<svg width="1280" height="720" viewBox="0 0 1280 720" fill="none" xmlns="http://www.w3.org/2000/svg">
<g id="101 Overview">
<rect width="1280" height="720" fill="white"/>
<g id="Template">
<path id="Contents of the talk" d="M42.377 44.4746C42.1777 47.2285 41.1582 49.3965 39.3184 50.9785C37.4902 52.5605 35.0762 53.3516 32.0762 53.3516C28.7949 53.3516 26.2109 52.25 24.3242 50.0469C22.4492 47.832 21.5117 44.7969 21.5117 40.9414V39.377C21.5117 36.916 21.9453 34.748 22.8125 32.873C23.6797 30.998 24.916 29.5625 26.5215 28.5664C28.1387 27.5586 30.0137 27.0547 32.1465 27.0547C35.0996 27.0547 37.4785 27.8457 39.2832 29.4277C41.0879 31.0098 42.1309 33.2305 42.4121 36.0898H37.1387C37.0098 34.4375 36.5469 33.2422 35.75 32.5039C34.9648 31.7539 33.7637 31.3789 32.1465 31.3789C30.3887 31.3789 29.0703 32.0117 28.1914 33.2773C27.3242 34.5312 26.8789 36.4824 26.8555 39.1309V41.0645C26.8555 43.8301 27.2715 45.8516 28.1035 47.1289C28.9473 48.4062 30.2715 49.0449 32.0762 49.0449C33.7051 49.0449 34.918 48.6758 35.7148 47.9375C36.5234 47.1875 36.9863 46.0332 37.1035 44.4746H42.377ZM44.7148 43.3145C44.7148 41.4277 45.0781 39.7461 45.8047 38.2695C46.5312 36.793 47.5742 35.6504 48.9336 34.8418C50.3047 34.0332 51.8926 33.6289 53.6973 33.6289C56.2637 33.6289 58.3555 34.4141 59.9727 35.9844C61.6016 37.5547 62.5098 39.6875 62.6973 42.3828L62.7324 43.6836C62.7324 46.6016 61.918 48.9453 60.2891 50.7148C58.6602 52.4727 56.4746 53.3516 53.7324 53.3516C50.9902 53.3516 48.7988 52.4727 47.1582 50.7148C45.5293 48.957 44.7148 46.5664 44.7148 43.543V43.3145ZM49.7949 43.6836C49.7949 45.4883 50.1348 46.8711 50.8145 47.832C51.4941 48.7812 52.4668 49.2559 53.7324 49.2559C54.9629 49.2559 55.9238 48.7871 56.6152 47.8496C57.3066 46.9004 57.6523 45.3887 57.6523 43.3145C57.6523 41.5449 57.3066 40.1738 56.6152 39.2012C55.9238 38.2285 54.9512 37.7422 53.6973 37.7422C52.4551 37.7422 51.4941 38.2285 50.8145 39.2012C50.1348 40.1621 49.7949 41.6562 49.7949 43.6836ZM70.5371 33.9805L70.6953 36.1777C72.0547 34.4785 73.877 33.6289 76.1621 33.6289C78.1777 33.6289 79.6777 34.2207 80.6621 35.4043C81.6465 36.5879 82.1504 38.3574 82.1738 40.7129V53H77.0938V40.8359C77.0938 39.7578 76.8594 38.9785 76.3906 38.498C75.9219 38.0059 75.1426 37.7598 74.0527 37.7598C72.623 37.7598 71.5508 38.3691 70.8359 39.5879V53H65.7559V33.9805H70.5371ZM92.123 29.3047V33.9805H95.375V37.707H92.123V47.1992C92.123 47.9023 92.2578 48.4062 92.5273 48.7109C92.7969 49.0156 93.3125 49.168 94.0742 49.168C94.6367 49.168 95.1348 49.127 95.5684 49.0449V52.8945C94.5723 53.1992 93.5469 53.3516 92.4922 53.3516C88.9297 53.3516 87.1133 51.5527 87.043 47.9551V37.707H84.2656V33.9805H87.043V29.3047H92.123ZM106.959 53.3516C104.17 53.3516 101.896 52.4961 100.139 50.7852C98.3926 49.0742 97.5195 46.7949 97.5195 43.9473V43.4551C97.5195 41.5449 97.8887 39.8398 98.627 38.3398C99.3652 36.8281 100.408 35.668 101.756 34.8594C103.115 34.0391 104.662 33.6289 106.396 33.6289C108.998 33.6289 111.043 34.4492 112.531 36.0898C114.031 37.7305 114.781 40.0566 114.781 43.0684V45.1426H102.67C102.834 46.3848 103.326 47.3809 104.146 48.1309C104.979 48.8809 106.027 49.2559 107.293 49.2559C109.25 49.2559 110.779 48.5469 111.881 47.1289L114.377 49.9238C113.615 51.002 112.584 51.8457 111.283 52.4551C109.982 53.0527 108.541 53.3516 106.959 53.3516ZM106.379 37.7422C105.371 37.7422 104.551 38.082 103.918 38.7617C103.297 39.4414 102.898 40.4141 102.723 41.6797H109.789V41.2754C109.766 40.1504 109.461 39.2832 108.875 38.6738C108.289 38.0527 107.457 37.7422 106.379 37.7422ZM122.357 33.9805L122.516 36.1777C123.875 34.4785 125.697 33.6289 127.982 33.6289C129.998 33.6289 131.498 34.2207 132.482 35.4043C133.467 36.5879 133.971 38.3574 133.994 40.7129V53H128.914V40.8359C128.914 39.7578 128.68 38.9785 128.211 38.498C127.742 38.0059 126.963 37.7598 125.873 37.7598C124.443 37.7598 123.371 38.3691 122.656 39.5879V53H117.576V33.9805H122.357ZM143.943 29.3047V33.9805H147.195V37.707H143.943V47.1992C143.943 47.9023 144.078 48.4062 144.348 48.7109C144.617 49.0156 145.133 49.168 145.895 49.168C146.457 49.168 146.955 49.127 147.389 49.0449V52.8945C146.393 53.1992 145.367 53.3516 144.312 53.3516C140.75 53.3516 138.934 51.5527 138.863 47.9551V37.707H136.086V33.9805H138.863V29.3047H143.943ZM160.326 47.7441C160.326 47.123 160.016 46.6367 159.395 46.2852C158.785 45.9219 157.801 45.5996 156.441 45.3184C151.918 44.3691 149.656 42.4473 149.656 39.5527C149.656 37.8652 150.354 36.459 151.748 35.334C153.154 34.1973 154.988 33.6289 157.25 33.6289C159.664 33.6289 161.592 34.1973 163.033 35.334C164.486 36.4707 165.213 37.9473 165.213 39.7637H160.133C160.133 39.0371 159.898 38.4395 159.43 37.9707C158.961 37.4902 158.229 37.25 157.232 37.25C156.377 37.25 155.715 37.4434 155.246 37.8301C154.777 38.2168 154.543 38.709 154.543 39.3066C154.543 39.8691 154.807 40.3262 155.334 40.6777C155.873 41.0176 156.775 41.3164 158.041 41.5742C159.307 41.8203 160.373 42.1016 161.24 42.418C163.924 43.4023 165.266 45.1074 165.266 47.5332C165.266 49.2676 164.521 50.6738 163.033 51.752C161.545 52.8184 159.623 53.3516 157.268 53.3516C155.674 53.3516 154.256 53.0703 153.014 52.5078C151.783 51.9336 150.816 51.1543 150.113 50.1699C149.41 49.1738 149.059 48.1016 149.059 46.9531H153.875C153.922 47.8555 154.256 48.5469 154.877 49.0273C155.498 49.5078 156.33 49.748 157.373 49.748C158.346 49.748 159.078 49.5664 159.57 49.2031C160.074 48.8281 160.326 48.3418 160.326 47.7441ZM176.727 43.3145C176.727 41.4277 177.09 39.7461 177.816 38.2695C178.543 36.793 179.586 35.6504 180.945 34.8418C182.316 34.0332 183.904 33.6289 185.709 33.6289C188.275 33.6289 190.367 34.4141 191.984 35.9844C193.613 37.5547 194.521 39.6875 194.709 42.3828L194.744 43.6836C194.744 46.6016 193.93 48.9453 192.301 50.7148C190.672 52.4727 188.486 53.3516 185.744 53.3516C183.002 53.3516 180.811 52.4727 179.17 50.7148C177.541 48.957 176.727 46.5664 176.727 43.543V43.3145ZM181.807 43.6836C181.807 45.4883 182.146 46.8711 182.826 47.832C183.506 48.7812 184.479 49.2559 185.744 49.2559C186.975 49.2559 187.936 48.7871 188.627 47.8496C189.318 46.9004 189.664 45.3887 189.664 43.3145C189.664 41.5449 189.318 40.1738 188.627 39.2012C187.936 38.2285 186.963 37.7422 185.709 37.7422C184.467 37.7422 183.506 38.2285 182.826 39.2012C182.146 40.1621 181.807 41.6562 181.807 43.6836ZM199.262 53V37.707H196.432V33.9805H199.262V32.3633C199.262 30.2305 199.871 28.5781 201.09 27.4062C202.32 26.2227 204.037 25.6309 206.24 25.6309C206.943 25.6309 207.805 25.748 208.824 25.9824L208.771 29.9199C208.35 29.8145 207.834 29.7617 207.225 29.7617C205.314 29.7617 204.359 30.6582 204.359 32.4512V33.9805H208.139V37.707H204.359V53H199.262ZM225.822 29.3047V33.9805H229.074V37.707H225.822V47.1992C225.822 47.9023 225.957 48.4062 226.227 48.7109C226.496 49.0156 227.012 49.168 227.773 49.168C228.336 49.168 228.834 49.127 229.268 49.0449V52.8945C228.271 53.1992 227.246 53.3516 226.191 53.3516C222.629 53.3516 220.812 51.5527 220.742 47.9551V37.707H217.965V33.9805H220.742V29.3047H225.822ZM236.861 36.0547C238.209 34.4375 239.902 33.6289 241.941 33.6289C246.066 33.6289 248.158 36.0254 248.217 40.8184V53H243.137V40.959C243.137 39.8691 242.902 39.0664 242.434 38.5508C241.965 38.0234 241.186 37.7598 240.096 37.7598C238.607 37.7598 237.529 38.334 236.861 39.4824V53H231.781V26H236.861V36.0547ZM260.803 53.3516C258.014 53.3516 255.74 52.4961 253.982 50.7852C252.236 49.0742 251.363 46.7949 251.363 43.9473V43.4551C251.363 41.5449 251.732 39.8398 252.471 38.3398C253.209 36.8281 254.252 35.668 255.6 34.8594C256.959 34.0391 258.506 33.6289 260.24 33.6289C262.842 33.6289 264.887 34.4492 266.375 36.0898C267.875 37.7305 268.625 40.0566 268.625 43.0684V45.1426H256.514C256.678 46.3848 257.17 47.3809 257.99 48.1309C258.822 48.8809 259.871 49.2559 261.137 49.2559C263.094 49.2559 264.623 48.5469 265.725 47.1289L268.221 49.9238C267.459 51.002 266.428 51.8457 265.127 52.4551C263.826 53.0527 262.385 53.3516 260.803 53.3516ZM260.223 37.7422C259.215 37.7422 258.395 38.082 257.762 38.7617C257.141 39.4414 256.742 40.4141 256.566 41.6797H263.633V41.2754C263.609 40.1504 263.305 39.2832 262.719 38.6738C262.133 38.0527 261.301 37.7422 260.223 37.7422ZM286.572 29.3047V33.9805H289.824V37.707H286.572V47.1992C286.572 47.9023 286.707 48.4062 286.977 48.7109C287.246 49.0156 287.762 49.168 288.523 49.168C289.086 49.168 289.584 49.127 290.018 49.0449V52.8945C289.021 53.1992 287.996 53.3516 286.941 53.3516C283.379 53.3516 281.562 51.5527 281.492 47.9551V37.707H278.715V33.9805H281.492V29.3047H286.572ZM303.676 53C303.441 52.543 303.271 51.9746 303.166 51.2949C301.936 52.666 300.336 53.3516 298.367 53.3516C296.504 53.3516 294.957 52.8125 293.727 51.7344C292.508 50.6562 291.898 49.2969 291.898 47.6562C291.898 45.6406 292.643 44.0938 294.131 43.0156C295.631 41.9375 297.793 41.3926 300.617 41.3809H302.955V40.291C302.955 39.4121 302.727 38.709 302.27 38.1816C301.824 37.6543 301.115 37.3906 300.143 37.3906C299.287 37.3906 298.613 37.5957 298.121 38.0059C297.641 38.416 297.4 38.9785 297.4 39.6934H292.32C292.32 38.5918 292.66 37.5723 293.34 36.6348C294.02 35.6973 294.98 34.9648 296.223 34.4375C297.465 33.8984 298.859 33.6289 300.406 33.6289C302.75 33.6289 304.607 34.2207 305.979 35.4043C307.361 36.5762 308.053 38.2285 308.053 40.3613V48.6055C308.064 50.4102 308.316 51.7754 308.809 52.7012V53H303.676ZM299.475 49.4668C300.225 49.4668 300.916 49.3027 301.549 48.9746C302.182 48.6348 302.65 48.1836 302.955 47.6211V44.3516H301.057C298.514 44.3516 297.16 45.2305 296.996 46.9883L296.979 47.2871C296.979 47.9199 297.201 48.4414 297.646 48.8516C298.092 49.2617 298.701 49.4668 299.475 49.4668ZM317.316 53H312.219V26H317.316V53ZM328.426 45.3711L326.598 47.1992V53H321.518V26H326.598V40.959L327.582 39.6934L332.451 33.9805H338.551L331.678 41.9082L339.148 53H333.312L328.426 45.3711Z" fill="#309CFF"/>
<path id="Company&#226;&#128;&#153;s copyright text" d="M1061.94 679.939C1061.79 681.293 1061.28 682.339 1060.44 683.077C1059.6 683.81 1058.49 684.176 1057.09 684.176C1055.58 684.176 1054.37 683.634 1053.45 682.55C1052.54 681.466 1052.09 680.016 1052.09 678.199V676.969C1052.09 675.779 1052.3 674.733 1052.72 673.831C1053.15 672.929 1053.75 672.237 1054.53 671.757C1055.31 671.271 1056.22 671.027 1057.24 671.027C1058.6 671.027 1059.69 671.408 1060.51 672.17C1061.33 672.926 1061.81 673.975 1061.94 675.316H1060.25C1060.1 674.297 1059.78 673.559 1059.29 673.102C1058.8 672.645 1058.12 672.416 1057.24 672.416C1056.16 672.416 1055.32 672.814 1054.7 673.611C1054.09 674.408 1053.79 675.542 1053.79 677.013V678.252C1053.79 679.641 1054.08 680.745 1054.66 681.565C1055.24 682.386 1056.05 682.796 1057.09 682.796C1058.03 682.796 1058.75 682.585 1059.25 682.163C1059.75 681.735 1060.08 680.994 1060.25 679.939H1061.94ZM1063.57 679.157C1063.57 678.226 1063.75 677.388 1064.11 676.644C1064.48 675.899 1064.99 675.325 1065.64 674.921C1066.3 674.517 1067.05 674.314 1067.88 674.314C1069.18 674.314 1070.23 674.763 1071.02 675.659C1071.83 676.556 1072.23 677.748 1072.23 679.236V679.351C1072.23 680.276 1072.05 681.108 1071.69 681.847C1071.34 682.579 1070.83 683.15 1070.17 683.561C1069.51 683.971 1068.76 684.176 1067.9 684.176C1066.61 684.176 1065.57 683.728 1064.76 682.831C1063.97 681.935 1063.57 680.748 1063.57 679.271V679.157ZM1065.2 679.351C1065.2 680.405 1065.45 681.252 1065.93 681.891C1066.43 682.529 1067.08 682.849 1067.9 682.849C1068.73 682.849 1069.38 682.526 1069.87 681.882C1070.36 681.231 1070.6 680.323 1070.6 679.157C1070.6 678.114 1070.35 677.271 1069.85 676.626C1069.36 675.976 1068.71 675.65 1067.88 675.65C1067.08 675.65 1066.43 675.97 1065.94 676.608C1065.45 677.247 1065.2 678.161 1065.2 679.351ZM1075.79 674.49L1075.84 675.545C1076.54 674.725 1077.48 674.314 1078.66 674.314C1079.99 674.314 1080.9 674.824 1081.38 675.844C1081.69 675.387 1082.1 675.018 1082.61 674.736C1083.12 674.455 1083.72 674.314 1084.41 674.314C1086.49 674.314 1087.55 675.419 1087.59 677.628V684H1085.96V677.725C1085.96 677.045 1085.81 676.538 1085.5 676.204C1085.19 675.864 1084.67 675.694 1083.93 675.694C1083.33 675.694 1082.83 675.876 1082.43 676.239C1082.03 676.597 1081.8 677.08 1081.74 677.689V684H1080.1V677.769C1080.1 676.386 1079.42 675.694 1078.07 675.694C1077 675.694 1076.28 676.148 1075.88 677.057V684H1074.26V674.49H1075.79ZM1098.08 679.351C1098.08 680.798 1097.75 681.964 1097.09 682.849C1096.43 683.733 1095.53 684.176 1094.4 684.176C1093.25 684.176 1092.34 683.81 1091.68 683.077V687.656H1090.05V674.49H1091.54L1091.62 675.545C1092.28 674.725 1093.2 674.314 1094.38 674.314C1095.52 674.314 1096.42 674.745 1097.08 675.606C1097.75 676.468 1098.08 677.666 1098.08 679.201V679.351ZM1096.46 679.166C1096.46 678.094 1096.23 677.247 1095.77 676.626C1095.32 676.005 1094.69 675.694 1093.89 675.694C1092.91 675.694 1092.17 676.131 1091.68 677.004V681.548C1092.16 682.415 1092.91 682.849 1093.91 682.849C1094.69 682.849 1095.31 682.541 1095.76 681.926C1096.23 681.305 1096.46 680.385 1096.46 679.166ZM1106.03 684C1105.94 683.812 1105.86 683.479 1105.8 682.998C1105.04 683.783 1104.14 684.176 1103.09 684.176C1102.16 684.176 1101.39 683.912 1100.78 683.385C1100.18 682.852 1099.89 682.178 1099.89 681.363C1099.89 680.373 1100.26 679.605 1101.01 679.061C1101.77 678.51 1102.83 678.234 1104.19 678.234H1105.77V677.487C1105.77 676.919 1105.6 676.468 1105.26 676.134C1104.92 675.794 1104.42 675.624 1103.76 675.624C1103.18 675.624 1102.7 675.771 1102.3 676.063C1101.91 676.356 1101.71 676.711 1101.71 677.127H1100.08C1100.08 676.652 1100.25 676.195 1100.58 675.756C1100.92 675.311 1101.38 674.959 1101.95 674.701C1102.53 674.443 1103.17 674.314 1103.86 674.314C1104.95 674.314 1105.81 674.59 1106.43 675.141C1107.05 675.686 1107.38 676.438 1107.4 677.399V681.776C1107.4 682.649 1107.51 683.344 1107.73 683.859V684H1106.03ZM1103.33 682.761C1103.84 682.761 1104.32 682.629 1104.78 682.365C1105.24 682.102 1105.57 681.759 1105.77 681.337V679.386H1104.5C1102.51 679.386 1101.51 679.969 1101.51 681.135C1101.51 681.645 1101.68 682.043 1102.02 682.33C1102.36 682.617 1102.8 682.761 1103.33 682.761ZM1111.49 674.49L1111.54 675.686C1112.27 674.771 1113.22 674.314 1114.39 674.314C1116.4 674.314 1117.41 675.448 1117.43 677.716V684H1115.8V677.707C1115.8 677.021 1115.64 676.515 1115.33 676.187C1115.02 675.858 1114.55 675.694 1113.9 675.694C1113.37 675.694 1112.91 675.835 1112.51 676.116C1112.11 676.397 1111.8 676.767 1111.58 677.224V684H1109.95V674.49H1111.49ZM1122.99 681.618L1125.21 674.49H1126.95L1123.12 685.468C1122.53 687.05 1121.59 687.841 1120.3 687.841L1120 687.814L1119.39 687.7V686.382L1119.83 686.417C1120.38 686.417 1120.81 686.306 1121.11 686.083C1121.42 685.86 1121.68 685.453 1121.88 684.861L1122.24 683.895L1118.84 674.49H1120.62L1122.99 681.618ZM1128.66 674.807L1127.74 674.174C1128.28 673.412 1128.56 672.609 1128.58 671.766V670.5H1130.19V671.643C1130.18 672.229 1130.04 672.814 1129.75 673.4C1129.47 673.98 1129.11 674.449 1128.66 674.807ZM1136.7 681.478C1136.7 681.038 1136.54 680.698 1136.2 680.458C1135.87 680.212 1135.3 680.001 1134.47 679.825C1133.65 679.649 1133 679.438 1132.51 679.192C1132.03 678.946 1131.67 678.653 1131.44 678.313C1131.21 677.974 1131.1 677.569 1131.1 677.101C1131.1 676.321 1131.42 675.662 1132.08 675.123C1132.74 674.584 1133.59 674.314 1134.61 674.314C1135.69 674.314 1136.56 674.593 1137.23 675.149C1137.9 675.706 1138.24 676.418 1138.24 677.285H1136.61C1136.61 676.84 1136.42 676.456 1136.04 676.134C1135.66 675.812 1135.19 675.65 1134.61 675.65C1134.02 675.65 1133.56 675.779 1133.22 676.037C1132.89 676.295 1132.72 676.632 1132.72 677.048C1132.72 677.44 1132.88 677.736 1133.19 677.936C1133.5 678.135 1134.06 678.325 1134.87 678.507C1135.68 678.688 1136.34 678.905 1136.84 679.157C1137.35 679.409 1137.72 679.714 1137.96 680.071C1138.21 680.423 1138.33 680.854 1138.33 681.363C1138.33 682.213 1137.99 682.896 1137.31 683.411C1136.63 683.921 1135.75 684.176 1134.66 684.176C1133.9 684.176 1133.23 684.041 1132.64 683.771C1132.06 683.502 1131.6 683.127 1131.26 682.646C1130.93 682.16 1130.77 681.636 1130.77 681.073H1132.4C1132.43 681.618 1132.64 682.052 1133.05 682.374C1133.46 682.69 1134 682.849 1134.66 682.849C1135.28 682.849 1135.77 682.726 1136.14 682.479C1136.52 682.228 1136.7 681.894 1136.7 681.478ZM1148.73 682.849C1149.31 682.849 1149.81 682.673 1150.25 682.321C1150.68 681.97 1150.92 681.53 1150.97 681.003H1152.51C1152.48 681.548 1152.29 682.066 1151.94 682.559C1151.6 683.051 1151.13 683.443 1150.55 683.736C1149.98 684.029 1149.37 684.176 1148.73 684.176C1147.43 684.176 1146.4 683.745 1145.63 682.884C1144.87 682.017 1144.49 680.833 1144.49 679.333V679.061C1144.49 678.135 1144.66 677.312 1145 676.591C1145.34 675.87 1145.83 675.311 1146.46 674.912C1147.1 674.514 1147.85 674.314 1148.72 674.314C1149.78 674.314 1150.67 674.634 1151.37 675.272C1152.08 675.911 1152.46 676.74 1152.51 677.76H1150.97C1150.92 677.145 1150.69 676.641 1150.26 676.248C1149.85 675.85 1149.33 675.65 1148.72 675.65C1147.89 675.65 1147.25 675.949 1146.79 676.547C1146.34 677.139 1146.12 677.997 1146.12 679.122V679.43C1146.12 680.525 1146.34 681.369 1146.79 681.961C1147.24 682.553 1147.89 682.849 1148.73 682.849ZM1153.9 679.157C1153.9 678.226 1154.08 677.388 1154.45 676.644C1154.82 675.899 1155.33 675.325 1155.98 674.921C1156.63 674.517 1157.38 674.314 1158.22 674.314C1159.51 674.314 1160.56 674.763 1161.36 675.659C1162.16 676.556 1162.56 677.748 1162.56 679.236V679.351C1162.56 680.276 1162.38 681.108 1162.02 681.847C1161.67 682.579 1161.17 683.15 1160.5 683.561C1159.85 683.971 1159.09 684.176 1158.24 684.176C1156.95 684.176 1155.9 683.728 1155.1 682.831C1154.3 681.935 1153.9 680.748 1153.9 679.271V679.157ZM1155.54 679.351C1155.54 680.405 1155.78 681.252 1156.27 681.891C1156.76 682.529 1157.42 682.849 1158.24 682.849C1159.06 682.849 1159.72 682.526 1160.21 681.882C1160.69 681.231 1160.93 680.323 1160.93 679.157C1160.93 678.114 1160.69 677.271 1160.19 676.626C1159.7 675.976 1159.04 675.65 1158.22 675.65C1157.42 675.65 1156.77 675.97 1156.28 676.608C1155.78 677.247 1155.54 678.161 1155.54 679.351ZM1172.63 679.351C1172.63 680.798 1172.3 681.964 1171.64 682.849C1170.98 683.733 1170.08 684.176 1168.95 684.176C1167.8 684.176 1166.89 683.81 1166.23 683.077V687.656H1164.6V674.49H1166.08L1166.16 675.545C1166.83 674.725 1167.75 674.314 1168.92 674.314C1170.07 674.314 1170.97 674.745 1171.63 675.606C1172.3 676.468 1172.63 677.666 1172.63 679.201V679.351ZM1171.01 679.166C1171.01 678.094 1170.78 677.247 1170.32 676.626C1169.86 676.005 1169.24 675.694 1168.44 675.694C1167.46 675.694 1166.72 676.131 1166.23 677.004V681.548C1166.71 682.415 1167.46 682.849 1168.46 682.849C1169.24 682.849 1169.86 682.541 1170.31 681.926C1170.78 681.305 1171.01 680.385 1171.01 679.166ZM1177.71 681.618L1179.93 674.49H1181.67L1177.84 685.468C1177.25 687.05 1176.31 687.841 1175.02 687.841L1174.72 687.814L1174.11 687.7V686.382L1174.55 686.417C1175.1 686.417 1175.53 686.306 1175.83 686.083C1176.14 685.86 1176.4 685.453 1176.6 684.861L1176.96 683.895L1173.56 674.49H1175.34L1177.71 681.618ZM1187.72 675.949C1187.48 675.908 1187.21 675.888 1186.92 675.888C1185.86 675.888 1185.13 676.342 1184.75 677.25V684H1183.13V674.49H1184.71L1184.74 675.589C1185.27 674.739 1186.02 674.314 1187 674.314C1187.32 674.314 1187.56 674.355 1187.72 674.438V675.949ZM1190.99 684H1189.37V674.49H1190.99V684ZM1189.24 671.968C1189.24 671.704 1189.31 671.481 1189.47 671.3C1189.64 671.118 1189.88 671.027 1190.19 671.027C1190.51 671.027 1190.75 671.118 1190.91 671.3C1191.08 671.481 1191.16 671.704 1191.16 671.968C1191.16 672.231 1191.08 672.451 1190.91 672.627C1190.75 672.803 1190.51 672.891 1190.19 672.891C1189.88 672.891 1189.64 672.803 1189.47 672.627C1189.31 672.451 1189.24 672.231 1189.24 671.968ZM1193.22 679.166C1193.22 677.684 1193.56 676.506 1194.25 675.633C1194.93 674.754 1195.84 674.314 1196.97 674.314C1198.13 674.314 1199.04 674.725 1199.69 675.545L1199.76 674.49H1201.25V683.771C1201.25 685.002 1200.88 685.972 1200.15 686.681C1199.42 687.39 1198.45 687.744 1197.22 687.744C1196.53 687.744 1195.86 687.598 1195.2 687.305C1194.55 687.012 1194.05 686.61 1193.7 686.101L1194.54 685.125C1195.24 685.986 1196.09 686.417 1197.1 686.417C1197.89 686.417 1198.51 686.194 1198.95 685.749C1199.39 685.304 1199.62 684.677 1199.62 683.868V683.051C1198.96 683.801 1198.08 684.176 1196.95 684.176C1195.84 684.176 1194.94 683.728 1194.25 682.831C1193.56 681.935 1193.22 680.713 1193.22 679.166ZM1194.85 679.351C1194.85 680.423 1195.07 681.267 1195.51 681.882C1195.95 682.491 1196.57 682.796 1197.36 682.796C1198.38 682.796 1199.13 682.33 1199.62 681.398V677.057C1199.12 676.148 1198.37 675.694 1197.37 675.694C1196.58 675.694 1195.96 676.002 1195.52 676.617C1195.07 677.232 1194.85 678.144 1194.85 679.351ZM1205.34 675.642C1206.06 674.757 1207 674.314 1208.15 674.314C1210.16 674.314 1211.17 675.448 1211.19 677.716V684H1209.56V677.707C1209.56 677.021 1209.4 676.515 1209.09 676.187C1208.79 675.858 1208.31 675.694 1207.66 675.694C1207.13 675.694 1206.67 675.835 1206.27 676.116C1205.87 676.397 1205.56 676.767 1205.34 677.224V684H1203.71V670.5H1205.34V675.642ZM1215.83 672.188V674.49H1217.61V675.747H1215.83V681.645C1215.83 682.025 1215.91 682.312 1216.07 682.506C1216.23 682.693 1216.5 682.787 1216.88 682.787C1217.06 682.787 1217.32 682.752 1217.65 682.682V684C1217.22 684.117 1216.81 684.176 1216.4 684.176C1215.68 684.176 1215.13 683.956 1214.76 683.517C1214.39 683.077 1214.21 682.453 1214.21 681.645V675.747H1212.47V674.49H1214.21V672.188H1215.83ZM1226.18 672.188V674.49H1227.96V675.747H1226.18V681.645C1226.18 682.025 1226.26 682.312 1226.42 682.506C1226.58 682.693 1226.85 682.787 1227.23 682.787C1227.42 682.787 1227.68 682.752 1228 682.682V684C1227.58 684.117 1227.16 684.176 1226.76 684.176C1226.03 684.176 1225.48 683.956 1225.11 683.517C1224.74 683.077 1224.56 682.453 1224.56 681.645V675.747H1222.83V674.49H1224.56V672.188H1226.18ZM1233.81 684.176C1232.52 684.176 1231.48 683.754 1230.67 682.91C1229.86 682.061 1229.45 680.927 1229.45 679.509V679.21C1229.45 678.267 1229.63 677.426 1229.99 676.688C1230.35 675.943 1230.86 675.363 1231.5 674.947C1232.15 674.525 1232.86 674.314 1233.61 674.314C1234.85 674.314 1235.81 674.722 1236.49 675.536C1237.18 676.351 1237.52 677.517 1237.52 679.034V679.711H1231.08C1231.1 680.648 1231.38 681.407 1231.9 681.987C1232.42 682.562 1233.09 682.849 1233.9 682.849C1234.48 682.849 1234.96 682.731 1235.36 682.497C1235.76 682.263 1236.11 681.952 1236.41 681.565L1237.4 682.339C1236.6 683.563 1235.41 684.176 1233.81 684.176ZM1233.61 675.65C1232.96 675.65 1232.4 675.891 1231.96 676.371C1231.51 676.846 1231.24 677.514 1231.13 678.375H1235.9V678.252C1235.85 677.426 1235.63 676.787 1235.23 676.336C1234.83 675.879 1234.29 675.65 1233.61 675.65ZM1242.6 677.962L1244.71 674.49H1246.61L1243.5 679.192L1246.71 684H1244.83L1242.63 680.44L1240.43 684H1238.54L1241.75 679.192L1238.64 674.49H1240.52L1242.6 677.962ZM1250.55 672.188V674.49H1252.32V675.747H1250.55V681.645C1250.55 682.025 1250.63 682.312 1250.79 682.506C1250.94 682.693 1251.21 682.787 1251.59 682.787C1251.78 682.787 1252.04 682.752 1252.37 682.682V684C1251.94 684.117 1251.52 684.176 1251.12 684.176C1250.39 684.176 1249.84 683.956 1249.48 683.517C1249.11 683.077 1248.92 682.453 1248.92 681.645V675.747H1247.19V674.49H1248.92V672.188H1250.55Z" fill="#868686"/>
</g>
<path id="This is a text[fade-in]" d="M388.654 252.184H380.428V275H377.07V252.184H368.861V249.406H388.654V252.184ZM395.193 258.283C396.635 256.514 398.51 255.629 400.818 255.629C404.838 255.629 406.865 257.896 406.9 262.432V275H403.648V262.414C403.637 261.043 403.32 260.029 402.699 259.373C402.09 258.717 401.135 258.389 399.834 258.389C398.779 258.389 397.854 258.67 397.057 259.232C396.26 259.795 395.639 260.533 395.193 261.447V275H391.941V248H395.193V258.283ZM415.303 275H412.051V255.98H415.303V275ZM411.787 250.936C411.787 250.408 411.945 249.963 412.262 249.6C412.59 249.236 413.07 249.055 413.703 249.055C414.336 249.055 414.816 249.236 415.145 249.6C415.473 249.963 415.637 250.408 415.637 250.936C415.637 251.463 415.473 251.902 415.145 252.254C414.816 252.605 414.336 252.781 413.703 252.781C413.07 252.781 412.59 252.605 412.262 252.254C411.945 251.902 411.787 251.463 411.787 250.936ZM431.598 269.955C431.598 269.076 431.264 268.396 430.596 267.916C429.939 267.424 428.785 267.002 427.133 266.65C425.492 266.299 424.186 265.877 423.213 265.385C422.252 264.893 421.537 264.307 421.068 263.627C420.611 262.947 420.383 262.139 420.383 261.201C420.383 259.643 421.039 258.324 422.352 257.246C423.676 256.168 425.363 255.629 427.414 255.629C429.57 255.629 431.316 256.186 432.652 257.299C434 258.412 434.674 259.836 434.674 261.57H431.404C431.404 260.68 431.023 259.912 430.262 259.268C429.512 258.623 428.562 258.301 427.414 258.301C426.23 258.301 425.305 258.559 424.637 259.074C423.969 259.59 423.635 260.264 423.635 261.096C423.635 261.881 423.945 262.473 424.566 262.871C425.188 263.27 426.307 263.65 427.924 264.014C429.553 264.377 430.871 264.811 431.879 265.314C432.887 265.818 433.631 266.428 434.111 267.143C434.604 267.846 434.85 268.707 434.85 269.727C434.85 271.426 434.17 272.791 432.811 273.822C431.451 274.842 429.688 275.352 427.52 275.352C425.996 275.352 424.648 275.082 423.477 274.543C422.305 274.004 421.385 273.254 420.717 272.293C420.061 271.32 419.732 270.271 419.732 269.146H422.984C423.043 270.236 423.477 271.104 424.285 271.748C425.105 272.381 426.184 272.697 427.52 272.697C428.75 272.697 429.734 272.451 430.473 271.959C431.223 271.455 431.598 270.787 431.598 269.955ZM451.549 275H448.297V255.98H451.549V275ZM448.033 250.936C448.033 250.408 448.191 249.963 448.508 249.6C448.836 249.236 449.316 249.055 449.949 249.055C450.582 249.055 451.062 249.236 451.391 249.6C451.719 249.963 451.883 250.408 451.883 250.936C451.883 251.463 451.719 251.902 451.391 252.254C451.062 252.605 450.582 252.781 449.949 252.781C449.316 252.781 448.836 252.605 448.508 252.254C448.191 251.902 448.033 251.463 448.033 250.936ZM467.844 269.955C467.844 269.076 467.51 268.396 466.842 267.916C466.186 267.424 465.031 267.002 463.379 266.65C461.738 266.299 460.432 265.877 459.459 265.385C458.498 264.893 457.783 264.307 457.314 263.627C456.857 262.947 456.629 262.139 456.629 261.201C456.629 259.643 457.285 258.324 458.598 257.246C459.922 256.168 461.609 255.629 463.66 255.629C465.816 255.629 467.562 256.186 468.898 257.299C470.246 258.412 470.92 259.836 470.92 261.57H467.65C467.65 260.68 467.27 259.912 466.508 259.268C465.758 258.623 464.809 258.301 463.66 258.301C462.477 258.301 461.551 258.559 460.883 259.074C460.215 259.59 459.881 260.264 459.881 261.096C459.881 261.881 460.191 262.473 460.812 262.871C461.434 263.27 462.553 263.65 464.17 264.014C465.799 264.377 467.117 264.811 468.125 265.314C469.133 265.818 469.877 266.428 470.357 267.143C470.85 267.846 471.096 268.707 471.096 269.727C471.096 271.426 470.416 272.791 469.057 273.822C467.697 274.842 465.934 275.352 463.766 275.352C462.242 275.352 460.895 275.082 459.723 274.543C458.551 274.004 457.631 273.254 456.963 272.293C456.307 271.32 455.979 270.271 455.979 269.146H459.23C459.289 270.236 459.723 271.104 460.531 271.748C461.352 272.381 462.43 272.697 463.766 272.697C464.996 272.697 465.98 272.451 466.719 271.959C467.469 271.455 467.844 270.787 467.844 269.955ZM496.004 275C495.816 274.625 495.664 273.957 495.547 272.996C494.035 274.566 492.23 275.352 490.133 275.352C488.258 275.352 486.717 274.824 485.51 273.77C484.314 272.703 483.717 271.355 483.717 269.727C483.717 267.746 484.467 266.211 485.967 265.121C487.479 264.02 489.6 263.469 492.33 263.469H495.494V261.975C495.494 260.838 495.154 259.936 494.475 259.268C493.795 258.588 492.793 258.248 491.469 258.248C490.309 258.248 489.336 258.541 488.551 259.127C487.766 259.713 487.373 260.422 487.373 261.254H484.104C484.104 260.305 484.438 259.391 485.105 258.512C485.785 257.621 486.699 256.918 487.848 256.402C489.008 255.887 490.279 255.629 491.662 255.629C493.854 255.629 495.57 256.18 496.812 257.281C498.055 258.371 498.699 259.877 498.746 261.799V270.553C498.746 272.299 498.969 273.688 499.414 274.719V275H496.004ZM490.607 272.521C491.627 272.521 492.594 272.258 493.508 271.73C494.422 271.203 495.084 270.518 495.494 269.674V265.771H492.945C488.961 265.771 486.969 266.938 486.969 269.27C486.969 270.289 487.309 271.086 487.988 271.66C488.668 272.234 489.541 272.521 490.607 272.521ZM517.186 251.375V255.98H520.736V258.494H517.186V270.289C517.186 271.051 517.344 271.625 517.66 272.012C517.977 272.387 518.516 272.574 519.277 272.574C519.652 272.574 520.168 272.504 520.824 272.363V275C519.969 275.234 519.137 275.352 518.328 275.352C516.875 275.352 515.779 274.912 515.041 274.033C514.303 273.154 513.934 271.906 513.934 270.289V258.494H510.471V255.98H513.934V251.375H517.186ZM532.443 275.352C529.865 275.352 527.768 274.508 526.15 272.82C524.533 271.121 523.725 268.854 523.725 266.018V265.42C523.725 263.533 524.082 261.852 524.797 260.375C525.523 258.887 526.531 257.727 527.82 256.895C529.121 256.051 530.527 255.629 532.039 255.629C534.512 255.629 536.434 256.443 537.805 258.072C539.176 259.701 539.861 262.033 539.861 265.068V266.422H526.977C527.023 268.297 527.568 269.814 528.611 270.975C529.666 272.123 531.002 272.697 532.619 272.697C533.768 272.697 534.74 272.463 535.537 271.994C536.334 271.525 537.031 270.904 537.629 270.131L539.615 271.678C538.021 274.127 535.631 275.352 532.443 275.352ZM532.039 258.301C530.727 258.301 529.625 258.781 528.734 259.742C527.844 260.691 527.293 262.027 527.082 263.75H536.609V263.504C536.516 261.852 536.07 260.574 535.273 259.672C534.477 258.758 533.398 258.301 532.039 258.301ZM550.021 262.924L554.24 255.98H558.037L551.814 265.385L558.23 275H554.469L550.074 267.881L545.68 275H541.9L548.316 265.385L542.094 255.98H545.855L550.021 262.924ZM565.912 251.375V255.98H569.463V258.494H565.912V270.289C565.912 271.051 566.07 271.625 566.387 272.012C566.703 272.387 567.242 272.574 568.004 272.574C568.379 272.574 568.895 272.504 569.551 272.363V275C568.695 275.234 567.863 275.352 567.055 275.352C565.602 275.352 564.506 274.912 563.768 274.033C563.029 273.154 562.66 271.906 562.66 270.289V258.494H559.197V255.98H562.66V251.375H565.912Z" fill="black"/>
<path id="This is another one[stage=1][fade-in]" d="M388.654 337.184H380.428V360H377.07V337.184H368.861V334.406H388.654V337.184ZM395.193 343.283C396.635 341.514 398.51 340.629 400.818 340.629C404.838 340.629 406.865 342.896 406.9 347.432V360H403.648V347.414C403.637 346.043 403.32 345.029 402.699 344.373C402.09 343.717 401.135 343.389 399.834 343.389C398.779 343.389 397.854 343.67 397.057 344.232C396.26 344.795 395.639 345.533 395.193 346.447V360H391.941V333H395.193V343.283ZM415.303 360H412.051V340.98H415.303V360ZM411.787 335.936C411.787 335.408 411.945 334.963 412.262 334.6C412.59 334.236 413.07 334.055 413.703 334.055C414.336 334.055 414.816 334.236 415.145 334.6C415.473 334.963 415.637 335.408 415.637 335.936C415.637 336.463 415.473 336.902 415.145 337.254C414.816 337.605 414.336 337.781 413.703 337.781C413.07 337.781 412.59 337.605 412.262 337.254C411.945 336.902 411.787 336.463 411.787 335.936ZM431.598 354.955C431.598 354.076 431.264 353.396 430.596 352.916C429.939 352.424 428.785 352.002 427.133 351.65C425.492 351.299 424.186 350.877 423.213 350.385C422.252 349.893 421.537 349.307 421.068 348.627C420.611 347.947 420.383 347.139 420.383 346.201C420.383 344.643 421.039 343.324 422.352 342.246C423.676 341.168 425.363 340.629 427.414 340.629C429.57 340.629 431.316 341.186 432.652 342.299C434 343.412 434.674 344.836 434.674 346.57H431.404C431.404 345.68 431.023 344.912 430.262 344.268C429.512 343.623 428.562 343.301 427.414 343.301C426.23 343.301 425.305 343.559 424.637 344.074C423.969 344.59 423.635 345.264 423.635 346.096C423.635 346.881 423.945 347.473 424.566 347.871C425.188 348.27 426.307 348.65 427.924 349.014C429.553 349.377 430.871 349.811 431.879 350.314C432.887 350.818 433.631 351.428 434.111 352.143C434.604 352.846 434.85 353.707 434.85 354.727C434.85 356.426 434.17 357.791 432.811 358.822C431.451 359.842 429.688 360.352 427.52 360.352C425.996 360.352 424.648 360.082 423.477 359.543C422.305 359.004 421.385 358.254 420.717 357.293C420.061 356.32 419.732 355.271 419.732 354.146H422.984C423.043 355.236 423.477 356.104 424.285 356.748C425.105 357.381 426.184 357.697 427.52 357.697C428.75 357.697 429.734 357.451 430.473 356.959C431.223 356.455 431.598 355.787 431.598 354.955ZM451.549 360H448.297V340.98H451.549V360ZM448.033 335.936C448.033 335.408 448.191 334.963 448.508 334.6C448.836 334.236 449.316 334.055 449.949 334.055C450.582 334.055 451.062 334.236 451.391 334.6C451.719 334.963 451.883 335.408 451.883 335.936C451.883 336.463 451.719 336.902 451.391 337.254C451.062 337.605 450.582 337.781 449.949 337.781C449.316 337.781 448.836 337.605 448.508 337.254C448.191 336.902 448.033 336.463 448.033 335.936ZM467.844 354.955C467.844 354.076 467.51 353.396 466.842 352.916C466.186 352.424 465.031 352.002 463.379 351.65C461.738 351.299 460.432 350.877 459.459 350.385C458.498 349.893 457.783 349.307 457.314 348.627C456.857 347.947 456.629 347.139 456.629 346.201C456.629 344.643 457.285 343.324 458.598 342.246C459.922 341.168 461.609 340.629 463.66 340.629C465.816 340.629 467.562 341.186 468.898 342.299C470.246 343.412 470.92 344.836 470.92 346.57H467.65C467.65 345.68 467.27 344.912 466.508 344.268C465.758 343.623 464.809 343.301 463.66 343.301C462.477 343.301 461.551 343.559 460.883 344.074C460.215 344.59 459.881 345.264 459.881 346.096C459.881 346.881 460.191 347.473 460.812 347.871C461.434 348.27 462.553 348.65 464.17 349.014C465.799 349.377 467.117 349.811 468.125 350.314C469.133 350.818 469.877 351.428 470.357 352.143C470.85 352.846 471.096 353.707 471.096 354.727C471.096 356.426 470.416 357.791 469.057 358.822C467.697 359.842 465.934 360.352 463.766 360.352C462.242 360.352 460.895 360.082 459.723 359.543C458.551 359.004 457.631 358.254 456.963 357.293C456.307 356.32 455.979 355.271 455.979 354.146H459.23C459.289 355.236 459.723 356.104 460.531 356.748C461.352 357.381 462.43 357.697 463.766 357.697C464.996 357.697 465.98 357.451 466.719 356.959C467.469 356.455 467.844 355.787 467.844 354.955ZM496.004 360C495.816 359.625 495.664 358.957 495.547 357.996C494.035 359.566 492.23 360.352 490.133 360.352C488.258 360.352 486.717 359.824 485.51 358.77C484.314 357.703 483.717 356.355 483.717 354.727C483.717 352.746 484.467 351.211 485.967 350.121C487.479 349.02 489.6 348.469 492.33 348.469H495.494V346.975C495.494 345.838 495.154 344.936 494.475 344.268C493.795 343.588 492.793 343.248 491.469 343.248C490.309 343.248 489.336 343.541 488.551 344.127C487.766 344.713 487.373 345.422 487.373 346.254H484.104C484.104 345.305 484.438 344.391 485.105 343.512C485.785 342.621 486.699 341.918 487.848 341.402C489.008 340.887 490.279 340.629 491.662 340.629C493.854 340.629 495.57 341.18 496.812 342.281C498.055 343.371 498.699 344.877 498.746 346.799V355.553C498.746 357.299 498.969 358.688 499.414 359.719V360H496.004ZM490.607 357.521C491.627 357.521 492.594 357.258 493.508 356.73C494.422 356.203 495.084 355.518 495.494 354.674V350.771H492.945C488.961 350.771 486.969 351.938 486.969 354.27C486.969 355.289 487.309 356.086 487.988 356.66C488.668 357.234 489.541 357.521 490.607 357.521ZM506.92 340.98L507.025 343.371C508.479 341.543 510.377 340.629 512.721 340.629C516.74 340.629 518.768 342.896 518.803 347.432V360H515.551V347.414C515.539 346.043 515.223 345.029 514.602 344.373C513.992 343.717 513.037 343.389 511.736 343.389C510.682 343.389 509.756 343.67 508.959 344.232C508.162 344.795 507.541 345.533 507.096 346.447V360H503.844V340.98H506.92ZM522.846 350.314C522.846 348.451 523.209 346.775 523.936 345.287C524.674 343.799 525.693 342.65 526.994 341.842C528.307 341.033 529.801 340.629 531.477 340.629C534.066 340.629 536.158 341.525 537.752 343.318C539.357 345.111 540.16 347.496 540.16 350.473V350.701C540.16 352.553 539.803 354.217 539.088 355.693C538.385 357.158 537.371 358.301 536.047 359.121C534.734 359.941 533.223 360.352 531.512 360.352C528.934 360.352 526.842 359.455 525.236 357.662C523.643 355.869 522.846 353.496 522.846 350.543V350.314ZM526.115 350.701C526.115 352.811 526.602 354.504 527.574 355.781C528.559 357.059 529.871 357.697 531.512 357.697C533.164 357.697 534.477 357.053 535.449 355.764C536.422 354.463 536.908 352.646 536.908 350.314C536.908 348.229 536.41 346.541 535.414 345.252C534.43 343.951 533.117 343.301 531.477 343.301C529.871 343.301 528.576 343.939 527.592 345.217C526.607 346.494 526.115 348.322 526.115 350.701ZM548.65 336.375V340.98H552.201V343.494H548.65V355.289C548.65 356.051 548.809 356.625 549.125 357.012C549.441 357.387 549.98 357.574 550.742 357.574C551.117 357.574 551.633 357.504 552.289 357.363V360C551.434 360.234 550.602 360.352 549.793 360.352C548.34 360.352 547.244 359.912 546.506 359.033C545.768 358.154 545.398 356.906 545.398 355.289V343.494H541.936V340.98H545.398V336.375H548.65ZM559.268 343.283C560.709 341.514 562.584 340.629 564.893 340.629C568.912 340.629 570.939 342.896 570.975 347.432V360H567.723V347.414C567.711 346.043 567.395 345.029 566.773 344.373C566.164 343.717 565.209 343.389 563.908 343.389C562.854 343.389 561.928 343.67 561.131 344.232C560.334 344.795 559.713 345.533 559.268 346.447V360H556.016V333H559.268V343.283ZM583.736 360.352C581.158 360.352 579.061 359.508 577.443 357.82C575.826 356.121 575.018 353.854 575.018 351.018V350.42C575.018 348.533 575.375 346.852 576.09 345.375C576.816 343.887 577.824 342.727 579.113 341.895C580.414 341.051 581.82 340.629 583.332 340.629C585.805 340.629 587.727 341.443 589.098 343.072C590.469 344.701 591.154 347.033 591.154 350.068V351.422H578.27C578.316 353.297 578.861 354.814 579.904 355.975C580.959 357.123 582.295 357.697 583.912 357.697C585.061 357.697 586.033 357.463 586.83 356.994C587.627 356.525 588.324 355.904 588.922 355.131L590.908 356.678C589.314 359.127 586.924 360.352 583.736 360.352ZM583.332 343.301C582.02 343.301 580.918 343.781 580.027 344.742C579.137 345.691 578.586 347.027 578.375 348.75H587.902V348.504C587.809 346.852 587.363 345.574 586.566 344.672C585.77 343.758 584.691 343.301 583.332 343.301ZM604.127 343.898C603.635 343.816 603.102 343.775 602.527 343.775C600.395 343.775 598.947 344.684 598.186 346.5V360H594.934V340.98H598.098L598.15 343.178C599.217 341.479 600.729 340.629 602.686 340.629C603.318 340.629 603.799 340.711 604.127 340.875V343.898ZM615.201 350.314C615.201 348.451 615.564 346.775 616.291 345.287C617.029 343.799 618.049 342.65 619.35 341.842C620.662 341.033 622.156 340.629 623.832 340.629C626.422 340.629 628.514 341.525 630.107 343.318C631.713 345.111 632.516 347.496 632.516 350.473V350.701C632.516 352.553 632.158 354.217 631.443 355.693C630.74 357.158 629.727 358.301 628.402 359.121C627.09 359.941 625.578 360.352 623.867 360.352C621.289 360.352 619.197 359.455 617.592 357.662C615.998 355.869 615.201 353.496 615.201 350.543V350.314ZM618.471 350.701C618.471 352.811 618.957 354.504 619.93 355.781C620.914 357.059 622.227 357.697 623.867 357.697C625.52 357.697 626.832 357.053 627.805 355.764C628.777 354.463 629.264 352.646 629.264 350.314C629.264 348.229 628.766 346.541 627.77 345.252C626.785 343.951 625.473 343.301 623.832 343.301C622.227 343.301 620.932 343.939 619.947 345.217C618.963 346.494 618.471 348.322 618.471 350.701ZM639.67 340.98L639.775 343.371C641.229 341.543 643.127 340.629 645.471 340.629C649.49 340.629 651.518 342.896 651.553 347.432V360H648.301V347.414C648.289 346.043 647.973 345.029 647.352 344.373C646.742 343.717 645.787 343.389 644.486 343.389C643.432 343.389 642.506 343.67 641.709 344.232C640.912 344.795 640.291 345.533 639.846 346.447V360H636.594V340.98H639.67ZM664.35 360.352C661.771 360.352 659.674 359.508 658.057 357.82C656.439 356.121 655.631 353.854 655.631 351.018V350.42C655.631 348.533 655.988 346.852 656.703 345.375C657.43 343.887 658.438 342.727 659.727 341.895C661.027 341.051 662.434 340.629 663.945 340.629C666.418 340.629 668.34 341.443 669.711 343.072C671.082 344.701 671.768 347.033 671.768 350.068V351.422H658.883C658.93 353.297 659.475 354.814 660.518 355.975C661.572 357.123 662.908 357.697 664.525 357.697C665.674 357.697 666.646 357.463 667.443 356.994C668.24 356.525 668.938 355.904 669.535 355.131L671.521 356.678C669.928 359.127 667.537 360.352 664.35 360.352ZM663.945 343.301C662.633 343.301 661.531 343.781 660.641 344.742C659.75 345.691 659.199 347.027 658.988 348.75H668.516V348.504C668.422 346.852 667.977 345.574 667.18 344.672C666.383 343.758 665.305 343.301 663.945 343.301Z" fill="black"/>
<path id="And the third[stage=2]" d="M385.104 438.32H374.381L371.973 445H368.492L378.266 419.406H381.219L391.01 445H387.547L385.104 438.32ZM375.4 435.543H384.102L379.742 423.572L375.4 435.543ZM397.021 425.98L397.127 428.371C398.58 426.543 400.479 425.629 402.822 425.629C406.842 425.629 408.869 427.896 408.904 432.432V445H405.652V432.414C405.641 431.043 405.324 430.029 404.703 429.373C404.094 428.717 403.139 428.389 401.838 428.389C400.783 428.389 399.857 428.67 399.061 429.232C398.264 429.795 397.643 430.533 397.197 431.447V445H393.945V425.98H397.021ZM413.018 435.332C413.018 432.414 413.709 430.07 415.092 428.301C416.475 426.52 418.285 425.629 420.523 425.629C422.75 425.629 424.514 426.391 425.814 427.914V418H429.066V445H426.078L425.92 442.961C424.619 444.555 422.809 445.352 420.488 445.352C418.285 445.352 416.486 444.449 415.092 442.645C413.709 440.84 413.018 438.484 413.018 435.578V435.332ZM416.27 435.701C416.27 437.857 416.715 439.545 417.605 440.764C418.496 441.982 419.727 442.592 421.297 442.592C423.359 442.592 424.865 441.666 425.814 439.814V431.078C424.842 429.285 423.348 428.389 421.332 428.389C419.738 428.389 418.496 429.004 417.605 430.234C416.715 431.465 416.27 433.287 416.27 435.701ZM447.471 421.375V425.98H451.021V428.494H447.471V440.289C447.471 441.051 447.629 441.625 447.945 442.012C448.262 442.387 448.801 442.574 449.562 442.574C449.938 442.574 450.453 442.504 451.109 442.363V445C450.254 445.234 449.422 445.352 448.613 445.352C447.16 445.352 446.064 444.912 445.326 444.033C444.588 443.154 444.219 441.906 444.219 440.289V428.494H440.756V425.98H444.219V421.375H447.471ZM458.088 428.283C459.529 426.514 461.404 425.629 463.713 425.629C467.732 425.629 469.76 427.896 469.795 432.432V445H466.543V432.414C466.531 431.043 466.215 430.029 465.594 429.373C464.984 428.717 464.029 428.389 462.729 428.389C461.674 428.389 460.748 428.67 459.951 429.232C459.154 429.795 458.533 430.533 458.088 431.447V445H454.836V418H458.088V428.283ZM482.557 445.352C479.979 445.352 477.881 444.508 476.264 442.82C474.646 441.121 473.838 438.854 473.838 436.018V435.42C473.838 433.533 474.195 431.852 474.91 430.375C475.637 428.887 476.645 427.727 477.934 426.895C479.234 426.051 480.641 425.629 482.152 425.629C484.625 425.629 486.547 426.443 487.918 428.072C489.289 429.701 489.975 432.033 489.975 435.068V436.422H477.09C477.137 438.297 477.682 439.814 478.725 440.975C479.779 442.123 481.115 442.697 482.732 442.697C483.881 442.697 484.854 442.463 485.65 441.994C486.447 441.525 487.145 440.904 487.742 440.131L489.729 441.678C488.135 444.127 485.744 445.352 482.557 445.352ZM482.152 428.301C480.84 428.301 479.738 428.781 478.848 429.742C477.957 430.691 477.406 432.027 477.195 433.75H486.723V433.504C486.629 431.852 486.184 430.574 485.387 429.672C484.59 428.758 483.512 428.301 482.152 428.301ZM508.256 421.305V425.98H511.508V429.707H508.256V439.199C508.256 439.902 508.391 440.406 508.66 440.711C508.93 441.016 509.445 441.168 510.207 441.168C510.77 441.168 511.268 441.127 511.701 441.045V444.895C510.705 445.199 509.68 445.352 508.625 445.352C505.062 445.352 503.246 443.553 503.176 439.955V429.707H500.398V425.98H503.176V421.305H508.256ZM519.295 428.055C520.643 426.438 522.336 425.629 524.375 425.629C528.5 425.629 530.592 428.025 530.65 432.818V445H525.57V432.959C525.57 431.869 525.336 431.066 524.867 430.551C524.398 430.023 523.619 429.76 522.529 429.76C521.041 429.76 519.963 430.334 519.295 431.482V445H514.215V418H519.295V428.055ZM539.844 445H534.746V425.98H539.844V445ZM534.447 421.059C534.447 420.297 534.699 419.67 535.203 419.178C535.719 418.686 536.416 418.439 537.295 418.439C538.162 418.439 538.854 418.686 539.369 419.178C539.885 419.67 540.143 420.297 540.143 421.059C540.143 421.832 539.879 422.465 539.352 422.957C538.836 423.449 538.15 423.695 537.295 423.695C536.439 423.695 535.748 423.449 535.221 422.957C534.705 422.465 534.447 421.832 534.447 421.059ZM554.732 430.744C554.041 430.65 553.432 430.604 552.904 430.604C550.982 430.604 549.723 431.254 549.125 432.555V445H544.045V425.98H548.844L548.984 428.248C550.004 426.502 551.416 425.629 553.221 425.629C553.783 425.629 554.311 425.705 554.803 425.857L554.732 430.744ZM556.051 435.35C556.051 432.385 556.713 430.023 558.037 428.266C559.373 426.508 561.195 425.629 563.504 425.629C565.355 425.629 566.885 426.32 568.092 427.703V418H573.189V445H568.602L568.355 442.979C567.09 444.561 565.461 445.352 563.469 445.352C561.23 445.352 559.432 444.473 558.072 442.715C556.725 440.945 556.051 438.49 556.051 435.35ZM561.131 435.719C561.131 437.5 561.441 438.865 562.062 439.814C562.684 440.764 563.586 441.238 564.77 441.238C566.34 441.238 567.447 440.576 568.092 439.252V431.746C567.459 430.422 566.363 429.76 564.805 429.76C562.355 429.76 561.131 431.746 561.131 435.719ZM591.014 421.375V425.98H594.564V428.494H591.014V440.289C591.014 441.051 591.172 441.625 591.488 442.012C591.805 442.387 592.344 442.574 593.105 442.574C593.48 442.574 593.996 442.504 594.652 442.363V445C593.797 445.234 592.965 445.352 592.156 445.352C590.703 445.352 589.607 444.912 588.869 444.033C588.131 443.154 587.762 441.906 587.762 440.289V428.494H584.299V425.98H587.762V421.375H591.014ZM606.271 445.352C603.693 445.352 601.596 444.508 599.979 442.82C598.361 441.121 597.553 438.854 597.553 436.018V435.42C597.553 433.533 597.91 431.852 598.625 430.375C599.352 428.887 600.359 427.727 601.648 426.895C602.949 426.051 604.355 425.629 605.867 425.629C608.34 425.629 610.262 426.443 611.633 428.072C613.004 429.701 613.689 432.033 613.689 435.068V436.422H600.805C600.852 438.297 601.396 439.814 602.439 440.975C603.494 442.123 604.83 442.697 606.447 442.697C607.596 442.697 608.568 442.463 609.365 441.994C610.162 441.525 610.859 440.904 611.457 440.131L613.443 441.678C611.85 444.127 609.459 445.352 606.271 445.352ZM605.867 428.301C604.555 428.301 603.453 428.781 602.562 429.742C601.672 430.691 601.121 432.027 600.91 433.75H610.438V433.504C610.344 431.852 609.898 430.574 609.102 429.672C608.305 428.758 607.227 428.301 605.867 428.301ZM623.85 432.924L628.068 425.98H631.865L625.643 435.385L632.059 445H628.297L623.902 437.881L619.508 445H615.729L622.145 435.385L615.922 425.98H619.684L623.85 432.924ZM639.74 421.375V425.98H643.291V428.494H639.74V440.289C639.74 441.051 639.898 441.625 640.215 442.012C640.531 442.387 641.07 442.574 641.832 442.574C642.207 442.574 642.723 442.504 643.379 442.363V445C642.523 445.234 641.691 445.352 640.883 445.352C639.43 445.352 638.334 444.912 637.596 444.033C636.857 443.154 636.488 441.906 636.488 440.289V428.494H633.025V425.98H636.488V421.375H639.74Z" fill="black"/>
<rect id="Rectangle 3[move]" x="94" y="242" width="171" height="126" fill="#FFA800"/>
</g>
</svg>
