<?xml version="1.0" encoding="UTF-8"?>
<svg width="385px" height="57px" viewBox="0 0 385 57" version="1.1" xmlns="http://www.w3.org/2000/svg" xmlns:xlink="http://www.w3.org/1999/xlink">
    <title>logo</title>
    <g id="Page-1" stroke="none" stroke-width="1" fill="none" fill-rule="evenodd">
        <g id="Artboard" transform="translate(-101.000000, -127.000000)" fill="#333333">
            <g id="logo" transform="translate(101.000000, 127.000000)">
                <g id="Group-4" transform="translate(0.000000, 3.000000)" fill-rule="nonzero">
                    <path d="M17.8151951,50 C20.6735113,50 23.2361396,49.5931953 25.5030801,48.7795858 C27.7700205,47.9659763 29.6796715,46.8811637 31.2320329,45.5251479 C32.7843943,44.1691321 33.9671458,42.5912229 34.7802875,40.7914201 C35.5934292,38.9916174 36,37.0808679 36,35.0591716 C36,31.6568047 35.1498973,28.9201183 33.449692,26.8491124 C31.7494867,24.7781065 29.4209446,23.1508876 26.4640657,21.9674556 L26.4640657,21.9674556 L20.2546201,19.4526627 C19.2197125,19.0088757 18.2587269,18.602071 17.3716632,18.2322485 C16.4845996,17.862426 15.7084189,17.4679487 15.0431211,17.0488166 C14.3778234,16.6296844 13.8603696,16.1612426 13.4907598,15.6434911 C13.1211499,15.1257396 12.936345,14.4970414 12.936345,13.7573964 C12.936345,12.3767258 13.4907598,11.3042406 14.5995893,10.5399408 C15.7084189,9.77564103 17.1991786,9.39349112 19.0718686,9.39349112 C20.9938398,9.39349112 22.7433265,9.72633136 24.3203285,10.3920118 C25.8973306,11.0576923 27.4743326,12.0069034 29.0513347,13.239645 L29.0513347,13.239645 L34.5954825,6.36094675 C32.5256674,4.28994083 30.1232033,2.71203156 27.3880903,1.62721893 C24.6529774,0.542406312 21.8809035,0 19.0718686,0 C16.5585216,0 14.2546201,0.369822485 12.1601643,1.10946746 C10.0657084,1.84911243 8.25462012,2.87228797 6.72689938,4.17899408 C5.19917864,5.4857002 4.0164271,7.0142998 3.17864476,8.7647929 C2.34086242,10.515286 1.92197125,12.3767258 1.92197125,14.3491124 C1.92197125,16.1242604 2.19301848,17.714497 2.73511294,19.1198225 C3.27720739,20.5251479 4.00410678,21.7578895 4.91581109,22.8180473 C5.8275154,23.8782051 6.862423,24.8027613 8.02053388,25.591716 C9.17864476,26.3806706 10.3737166,27.0216963 11.6057495,27.5147929 L11.6057495,27.5147929 L17.889117,30.1775148 C18.9240246,30.6213018 19.8726899,31.0281065 20.7351129,31.397929 C21.5975359,31.7677515 22.3367556,32.1622288 22.9527721,32.5813609 C23.5687885,33.0004931 24.036961,33.4812623 24.3572895,34.0236686 C24.6776181,34.566075 24.8377823,35.2071006 24.8377823,35.9467456 C24.8377823,37.3767258 24.2833676,38.5108481 23.174538,39.3491124 C22.0657084,40.1873767 20.3778234,40.6065089 18.110883,40.6065089 C16.0903491,40.6065089 14.0328542,40.1380671 11.9383984,39.2011834 C9.84394251,38.2642998 7.93429158,37.056213 6.20944559,35.5769231 L6.20944559,35.5769231 L0,43.0473373 C2.46406571,45.3648915 5.26078029,47.1030572 8.39014374,48.2618343 C11.5195072,49.4206114 14.661191,50 17.8151951,50 Z" id="Path"></path>
                    <polygon id="Path" points="74 49 74 39.8711656 54.8888889 39.8711656 54.8888889 1 44 1 44 49"></polygon>
                    <polygon id="Path" points="94 49 94 1 83 1 83 49"></polygon>
                    <path d="M118.682975,1 L119.37578,1.00546396 C122.818019,1.06010353 125.933464,1.52453988 128.722114,2.39877301 C131.696673,3.33128834 134.249837,4.76687117 136.381605,6.70552147 C138.513372,8.64417178 140.14938,11.1104294 141.289628,14.1042945 C142.429876,17.0981595 143,20.6564417 143,24.7791411 C143,28.9018405 142.429876,32.4846626 141.289628,35.5276074 C140.14938,38.5705521 138.53816,41.0858896 136.455969,43.0736196 C134.373777,45.0613497 131.882583,46.5460123 128.982387,47.5276074 C126.082192,48.5092025 122.847358,49 119.277886,49 L119.277886,49 L105,49 L105,1 L118.682975,1 Z M118.013699,9.7607362 L115.931507,9.7607362 L115.931507,40.2392638 L118.013699,40.2392638 C120.09589,40.2392638 121.979778,39.9693252 123.665362,39.4294479 C125.350946,38.8895706 126.78865,38.0184049 127.978474,36.8159509 C129.168297,35.6134969 130.097847,34.0306748 130.767123,32.0674847 C131.436399,30.1042945 131.771037,27.6748466 131.771037,24.7791411 C131.771037,21.9325153 131.436399,19.5398773 130.767123,17.601227 C130.097847,15.6625767 129.168297,14.1165644 127.978474,12.9631902 C126.78865,11.809816 125.350946,10.9877301 123.665362,10.4969325 C121.979778,10.006135 120.09589,9.7607362 118.013699,9.7607362 L118.013699,9.7607362 Z" id="Combined-Shape"></path>
                    <polygon id="Path" points="183 49 183 39.8711656 162.901914 39.8711656 162.901914 28.8282209 179.366029 28.8282209 179.366029 19.7730061 162.901914 19.7730061 162.901914 10.1288344 182.258373 10.1288344 182.258373 1 152 1 152 49"></polygon>
                </g>
                <g id="Group-3" transform="translate(285.000000, 4.000000)" fill-rule="nonzero">
                    <polygon id="Path" points="10.8287293 48 10.8287293 35.1165644 16.427256 27.7546012 28.1399632 48 40 48 22.8360958 19.1411043 37.3480663 0 25.4143646 0 11.1233886 19.6564417 10.8287293 19.6564417 10.8287293 0 0 0 0 48"></polygon>
                    <polygon id="Path" points="56 48 56 0 45 0 45 48"></polygon>
                    <polygon id="Path" points="86.9110672 48 86.9110672 9.12883436 100 9.12883436 100 0 63 0 63 9.12883436 76.0889328 9.12883436 76.0889328 48"></polygon>
                </g>
                <path d="M198,0 L272,0 L272,57 L198,57 L198,0 Z M245,7 L248.142857,7 L251.602095,13.8029867 L249.21,17.2415238 L249.21,28.7904762 L252.333333,28.7904762 C253.201209,28.7904762 253.904762,29.5221708 253.904762,30.4247619 L253.904762,36.2380952 L239.238095,36.2380952 L239.238095,30.4247619 C239.238095,29.5221708 239.941648,28.7904762 240.809524,28.7904762 L243.93,28.7904762 L243.93,17.2415238 L241.540762,13.8029867 L245,7 Z M253.904762,38.4285714 L253.904762,43.6666667 C253.904762,47.7167548 250.621517,51 246.571429,51 C242.52134,51 239.238095,47.7167548 239.238095,43.6666667 L239.238095,43.6666667 L239.238095,38.4285714 L253.904762,38.4285714 Z M228.590841,6.92749678 C232.058227,8.5598975 234.458545,12.0850894 234.458524,16.1714359 C234.458548,20.2577824 232.058254,23.7829508 228.590847,25.4153713 L228.590847,25.4153713 L228.590877,49.918636 L219.902129,49.918633 L219.902077,25.4154348 C216.434713,23.783012 214.034395,20.2578201 214.034393,16.1714957 C214.034392,12.0851271 216.434708,8.55998086 219.902115,6.92756028 L219.902115,6.92756028 L219.902096,15.7200984 L224.24647,17.6383914 L228.590844,15.7201012 Z" id="Oval-2"></path>
            </g>
        </g>
    </g>
</svg>
