<svg width="1280" height="720" viewBox="0 0 1280 720" fill="none" xmlns="http://www.w3.org/2000/svg">
<g id="100 Introduction">
<rect width="1280" height="720" fill="white"/>
<rect id="Rectangle[move=true][stage=0-0]" x="209" y="258" width="153" height="124" fill="#C4C4C4"/>
<rect id="Rectangle[move=true][stage=1][fade-out]" x="703" y="381" width="262" height="180" fill="#C4C4C4"/>
<rect id="Rectangle 3[fade-in][stage=2][move]" x="532" y="132" width="171" height="126" fill="#C4C4C4"/>
<g id="Slide basis">
<path id="Introduction: a couple of squares" d="M27.8926 53H22.6191V27.4062H27.8926V53ZM37.1387 33.9805L37.2969 36.1777C38.6562 34.4785 40.4785 33.6289 42.7637 33.6289C44.7793 33.6289 46.2793 34.2207 47.2637 35.4043C48.248 36.5879 48.752 38.3574 48.7754 40.7129V53H43.6953V40.8359C43.6953 39.7578 43.4609 38.9785 42.9922 38.498C42.5234 38.0059 41.7441 37.7598 40.6543 37.7598C39.2246 37.7598 38.1523 38.3691 37.4375 39.5879V53H32.3574V33.9805H37.1387ZM58.7246 29.3047V33.9805H61.9766V37.707H58.7246V47.1992C58.7246 47.9023 58.8594 48.4062 59.1289 48.7109C59.3984 49.0156 59.9141 49.168 60.6758 49.168C61.2383 49.168 61.7363 49.127 62.1699 49.0449V52.8945C61.1738 53.1992 60.1484 53.3516 59.0938 53.3516C55.5312 53.3516 53.7148 51.5527 53.6445 47.9551V37.707H50.8672V33.9805H53.6445V29.3047H58.7246ZM75.4941 38.7441C74.8027 38.6504 74.1934 38.6035 73.666 38.6035C71.7441 38.6035 70.4844 39.2539 69.8867 40.5547V53H64.8066V33.9805H69.6055L69.7461 36.248C70.7656 34.502 72.1777 33.6289 73.9824 33.6289C74.5449 33.6289 75.0723 33.7051 75.5645 33.8574L75.4941 38.7441ZM76.5312 43.3145C76.5312 41.4277 76.8945 39.7461 77.6211 38.2695C78.3477 36.793 79.3906 35.6504 80.75 34.8418C82.1211 34.0332 83.709 33.6289 85.5137 33.6289C88.0801 33.6289 90.1719 34.4141 91.7891 35.9844C93.418 37.5547 94.3262 39.6875 94.5137 42.3828L94.5488 43.6836C94.5488 46.6016 93.7344 48.9453 92.1055 50.7148C90.4766 52.4727 88.291 53.3516 85.5488 53.3516C82.8066 53.3516 80.6152 52.4727 78.9746 50.7148C77.3457 48.957 76.5312 46.5664 76.5312 43.543V43.3145ZM81.6113 43.6836C81.6113 45.4883 81.9512 46.8711 82.6309 47.832C83.3105 48.7812 84.2832 49.2559 85.5488 49.2559C86.7793 49.2559 87.7402 48.7871 88.4316 47.8496C89.123 46.9004 89.4688 45.3887 89.4688 43.3145C89.4688 41.5449 89.123 40.1738 88.4316 39.2012C87.7402 38.2285 86.7676 37.7422 85.5137 37.7422C84.2715 37.7422 83.3105 38.2285 82.6309 39.2012C81.9512 40.1621 81.6113 41.6562 81.6113 43.6836ZM96.8867 43.3496C96.8867 40.3848 97.5488 38.0234 98.873 36.2656C100.209 34.5078 102.031 33.6289 104.34 33.6289C106.191 33.6289 107.721 34.3203 108.928 35.7031V26H114.025V53H109.438L109.191 50.9785C107.926 52.5605 106.297 53.3516 104.305 53.3516C102.066 53.3516 100.268 52.4727 98.9082 50.7148C97.5605 48.9453 96.8867 46.4902 96.8867 43.3496ZM101.967 43.7188C101.967 45.5 102.277 46.8652 102.898 47.8145C103.52 48.7637 104.422 49.2383 105.605 49.2383C107.176 49.2383 108.283 48.5762 108.928 47.252V39.7461C108.295 38.4219 107.199 37.7598 105.641 37.7598C103.191 37.7598 101.967 39.7461 101.967 43.7188ZM129.354 51.0664C128.1 52.5898 126.365 53.3516 124.15 53.3516C122.111 53.3516 120.553 52.7656 119.475 51.5938C118.408 50.4219 117.863 48.7051 117.84 46.4434V33.9805H122.92V46.2676C122.92 48.248 123.822 49.2383 125.627 49.2383C127.35 49.2383 128.533 48.6406 129.178 47.4453V33.9805H134.275V53H129.494L129.354 51.0664ZM146.018 49.2559C146.955 49.2559 147.717 48.998 148.303 48.4824C148.889 47.9668 149.193 47.2812 149.217 46.4258H153.98C153.969 47.7148 153.617 48.8984 152.926 49.9766C152.234 51.043 151.285 51.875 150.078 52.4727C148.883 53.0586 147.559 53.3516 146.105 53.3516C143.387 53.3516 141.242 52.4902 139.672 50.7676C138.102 49.0332 137.316 46.6426 137.316 43.5957V43.2617C137.316 40.332 138.096 37.9941 139.654 36.248C141.213 34.502 143.352 33.6289 146.07 33.6289C148.449 33.6289 150.354 34.3086 151.783 35.668C153.225 37.0156 153.957 38.8145 153.98 41.0645H149.217C149.193 40.0801 148.889 39.2832 148.303 38.6738C147.717 38.0527 146.943 37.7422 145.982 37.7422C144.799 37.7422 143.902 38.1758 143.293 39.043C142.695 39.8984 142.396 41.293 142.396 43.2266V43.7539C142.396 45.7109 142.695 47.1172 143.293 47.9727C143.891 48.8281 144.799 49.2559 146.018 49.2559ZM162.963 29.3047V33.9805H166.215V37.707H162.963V47.1992C162.963 47.9023 163.098 48.4062 163.367 48.7109C163.637 49.0156 164.152 49.168 164.914 49.168C165.477 49.168 165.975 49.127 166.408 49.0449V52.8945C165.412 53.1992 164.387 53.3516 163.332 53.3516C159.77 53.3516 157.953 51.5527 157.883 47.9551V37.707H155.105V33.9805H157.883V29.3047H162.963ZM174.406 53H169.309V33.9805H174.406V53ZM169.01 29.0586C169.01 28.2969 169.262 27.6699 169.766 27.1777C170.281 26.6855 170.979 26.4395 171.857 26.4395C172.725 26.4395 173.416 26.6855 173.932 27.1777C174.447 27.6699 174.705 28.2969 174.705 29.0586C174.705 29.832 174.441 30.4648 173.914 30.957C173.398 31.4492 172.713 31.6953 171.857 31.6953C171.002 31.6953 170.311 31.4492 169.783 30.957C169.268 30.4648 169.01 29.832 169.01 29.0586ZM177.816 43.3145C177.816 41.4277 178.18 39.7461 178.906 38.2695C179.633 36.793 180.676 35.6504 182.035 34.8418C183.406 34.0332 184.994 33.6289 186.799 33.6289C189.365 33.6289 191.457 34.4141 193.074 35.9844C194.703 37.5547 195.611 39.6875 195.799 42.3828L195.834 43.6836C195.834 46.6016 195.02 48.9453 193.391 50.7148C191.762 52.4727 189.576 53.3516 186.834 53.3516C184.092 53.3516 181.9 52.4727 180.26 50.7148C178.631 48.957 177.816 46.5664 177.816 43.543V43.3145ZM182.896 43.6836C182.896 45.4883 183.236 46.8711 183.916 47.832C184.596 48.7812 185.568 49.2559 186.834 49.2559C188.064 49.2559 189.025 48.7871 189.717 47.8496C190.408 46.9004 190.754 45.3887 190.754 43.3145C190.754 41.5449 190.408 40.1738 189.717 39.2012C189.025 38.2285 188.053 37.7422 186.799 37.7422C185.557 37.7422 184.596 38.2285 183.916 39.2012C183.236 40.1621 182.896 41.6562 182.896 43.6836ZM203.639 33.9805L203.797 36.1777C205.156 34.4785 206.979 33.6289 209.264 33.6289C211.279 33.6289 212.779 34.2207 213.764 35.4043C214.748 36.5879 215.252 38.3574 215.275 40.7129V53H210.195V40.8359C210.195 39.7578 209.961 38.9785 209.492 38.498C209.023 38.0059 208.244 37.7598 207.154 37.7598C205.725 37.7598 204.652 38.3691 203.938 39.5879V53H198.857V33.9805H203.639ZM219.389 50.5039C219.389 49.6953 219.658 49.0391 220.197 48.5352C220.748 48.0312 221.434 47.7793 222.254 47.7793C223.086 47.7793 223.771 48.0312 224.311 48.5352C224.861 49.0391 225.137 49.6953 225.137 50.5039C225.137 51.3008 224.867 51.9512 224.328 52.4551C223.789 52.9473 223.098 53.1934 222.254 53.1934C221.422 53.1934 220.736 52.9473 220.197 52.4551C219.658 51.9512 219.389 51.3008 219.389 50.5039ZM219.389 36.1074C219.389 35.2988 219.658 34.6426 220.197 34.1387C220.748 33.6348 221.434 33.3828 222.254 33.3828C223.086 33.3828 223.771 33.6348 224.311 34.1387C224.861 34.6426 225.137 35.2988 225.137 36.1074C225.137 36.9043 224.867 37.5547 224.328 38.0586C223.789 38.5508 223.098 38.7969 222.254 38.7969C221.422 38.7969 220.736 38.5508 220.197 38.0586C219.658 37.5547 219.389 36.9043 219.389 36.1074ZM249.289 53C249.055 52.543 248.885 51.9746 248.779 51.2949C247.549 52.666 245.949 53.3516 243.98 53.3516C242.117 53.3516 240.57 52.8125 239.34 51.7344C238.121 50.6562 237.512 49.2969 237.512 47.6562C237.512 45.6406 238.256 44.0938 239.744 43.0156C241.244 41.9375 243.406 41.3926 246.23 41.3809H248.568V40.291C248.568 39.4121 248.34 38.709 247.883 38.1816C247.438 37.6543 246.729 37.3906 245.756 37.3906C244.9 37.3906 244.227 37.5957 243.734 38.0059C243.254 38.416 243.014 38.9785 243.014 39.6934H237.934C237.934 38.5918 238.273 37.5723 238.953 36.6348C239.633 35.6973 240.594 34.9648 241.836 34.4375C243.078 33.8984 244.473 33.6289 246.02 33.6289C248.363 33.6289 250.221 34.2207 251.592 35.4043C252.975 36.5762 253.666 38.2285 253.666 40.3613V48.6055C253.678 50.4102 253.93 51.7754 254.422 52.7012V53H249.289ZM245.088 49.4668C245.838 49.4668 246.529 49.3027 247.162 48.9746C247.795 48.6348 248.264 48.1836 248.568 47.6211V44.3516H246.67C244.127 44.3516 242.773 45.2305 242.609 46.9883L242.592 47.2871C242.592 47.9199 242.814 48.4414 243.26 48.8516C243.705 49.2617 244.314 49.4668 245.088 49.4668ZM274.443 49.2559C275.381 49.2559 276.143 48.998 276.729 48.4824C277.314 47.9668 277.619 47.2812 277.643 46.4258H282.406C282.395 47.7148 282.043 48.8984 281.352 49.9766C280.66 51.043 279.711 51.875 278.504 52.4727C277.309 53.0586 275.984 53.3516 274.531 53.3516C271.812 53.3516 269.668 52.4902 268.098 50.7676C266.527 49.0332 265.742 46.6426 265.742 43.5957V43.2617C265.742 40.332 266.521 37.9941 268.08 36.248C269.639 34.502 271.777 33.6289 274.496 33.6289C276.875 33.6289 278.779 34.3086 280.209 35.668C281.65 37.0156 282.383 38.8145 282.406 41.0645H277.643C277.619 40.0801 277.314 39.2832 276.729 38.6738C276.143 38.0527 275.369 37.7422 274.408 37.7422C273.225 37.7422 272.328 38.1758 271.719 39.043C271.121 39.8984 270.822 41.293 270.822 43.2266V43.7539C270.822 45.7109 271.121 47.1172 271.719 47.9727C272.316 48.8281 273.225 49.2559 274.443 49.2559ZM284.516 43.3145C284.516 41.4277 284.879 39.7461 285.605 38.2695C286.332 36.793 287.375 35.6504 288.734 34.8418C290.105 34.0332 291.693 33.6289 293.498 33.6289C296.064 33.6289 298.156 34.4141 299.773 35.9844C301.402 37.5547 302.311 39.6875 302.498 42.3828L302.533 43.6836C302.533 46.6016 301.719 48.9453 300.09 50.7148C298.461 52.4727 296.275 53.3516 293.533 53.3516C290.791 53.3516 288.6 52.4727 286.959 50.7148C285.33 48.957 284.516 46.5664 284.516 43.543V43.3145ZM289.596 43.6836C289.596 45.4883 289.936 46.8711 290.615 47.832C291.295 48.7812 292.268 49.2559 293.533 49.2559C294.764 49.2559 295.725 48.7871 296.416 47.8496C297.107 46.9004 297.453 45.3887 297.453 43.3145C297.453 41.5449 297.107 40.1738 296.416 39.2012C295.725 38.2285 294.752 37.7422 293.498 37.7422C292.256 37.7422 291.295 38.2285 290.615 39.2012C289.936 40.1621 289.596 41.6562 289.596 43.6836ZM317.053 51.0664C315.799 52.5898 314.064 53.3516 311.85 53.3516C309.811 53.3516 308.252 52.7656 307.174 51.5938C306.107 50.4219 305.562 48.7051 305.539 46.4434V33.9805H310.619V46.2676C310.619 48.248 311.521 49.2383 313.326 49.2383C315.049 49.2383 316.232 48.6406 316.877 47.4453V33.9805H321.975V53H317.193L317.053 51.0664ZM342.928 43.666C342.928 46.5957 342.26 48.9453 340.924 50.7148C339.6 52.4727 337.807 53.3516 335.545 53.3516C333.623 53.3516 332.07 52.6836 330.887 51.3477V60.3125H325.807V33.9805H330.518L330.693 35.8438C331.924 34.3672 333.529 33.6289 335.51 33.6289C337.854 33.6289 339.676 34.4961 340.977 36.2305C342.277 37.9648 342.928 40.3555 342.928 43.4023V43.666ZM337.848 43.2969C337.848 41.5273 337.531 40.1621 336.898 39.2012C336.277 38.2402 335.369 37.7598 334.174 37.7598C332.58 37.7598 331.484 38.3691 330.887 39.5879V47.375C331.508 48.6289 332.615 49.2559 334.209 49.2559C336.635 49.2559 337.848 47.2695 337.848 43.2969ZM351.453 53H346.355V26H351.453V53ZM364.408 53.3516C361.619 53.3516 359.346 52.4961 357.588 50.7852C355.842 49.0742 354.969 46.7949 354.969 43.9473V43.4551C354.969 41.5449 355.338 39.8398 356.076 38.3398C356.814 36.8281 357.857 35.668 359.205 34.8594C360.564 34.0391 362.111 33.6289 363.846 33.6289C366.447 33.6289 368.492 34.4492 369.98 36.0898C371.48 37.7305 372.23 40.0566 372.23 43.0684V45.1426H360.119C360.283 46.3848 360.775 47.3809 361.596 48.1309C362.428 48.8809 363.477 49.2559 364.742 49.2559C366.699 49.2559 368.229 48.5469 369.33 47.1289L371.826 49.9238C371.064 51.002 370.033 51.8457 368.732 52.4551C367.432 53.0527 365.99 53.3516 364.408 53.3516ZM363.828 37.7422C362.82 37.7422 362 38.082 361.367 38.7617C360.746 39.4414 360.348 40.4141 360.172 41.6797H367.238V41.2754C367.215 40.1504 366.91 39.2832 366.324 38.6738C365.738 38.0527 364.906 37.7422 363.828 37.7422ZM383.305 43.3145C383.305 41.4277 383.668 39.7461 384.395 38.2695C385.121 36.793 386.164 35.6504 387.523 34.8418C388.895 34.0332 390.482 33.6289 392.287 33.6289C394.854 33.6289 396.945 34.4141 398.562 35.9844C400.191 37.5547 401.1 39.6875 401.287 42.3828L401.322 43.6836C401.322 46.6016 400.508 48.9453 398.879 50.7148C397.25 52.4727 395.064 53.3516 392.322 53.3516C389.58 53.3516 387.389 52.4727 385.748 50.7148C384.119 48.957 383.305 46.5664 383.305 43.543V43.3145ZM388.385 43.6836C388.385 45.4883 388.725 46.8711 389.404 47.832C390.084 48.7812 391.057 49.2559 392.322 49.2559C393.553 49.2559 394.514 48.7871 395.205 47.8496C395.896 46.9004 396.242 45.3887 396.242 43.3145C396.242 41.5449 395.896 40.1738 395.205 39.2012C394.514 38.2285 393.541 37.7422 392.287 37.7422C391.045 37.7422 390.084 38.2285 389.404 39.2012C388.725 40.1621 388.385 41.6562 388.385 43.6836ZM405.84 53V37.707H403.01V33.9805H405.84V32.3633C405.84 30.2305 406.449 28.5781 407.668 27.4062C408.898 26.2227 410.615 25.6309 412.818 25.6309C413.521 25.6309 414.383 25.748 415.402 25.9824L415.35 29.9199C414.928 29.8145 414.412 29.7617 413.803 29.7617C411.893 29.7617 410.938 30.6582 410.938 32.4512V33.9805H414.717V37.707H410.938V53H405.84ZM436.619 47.7441C436.619 47.123 436.309 46.6367 435.688 46.2852C435.078 45.9219 434.094 45.5996 432.734 45.3184C428.211 44.3691 425.949 42.4473 425.949 39.5527C425.949 37.8652 426.646 36.459 428.041 35.334C429.447 34.1973 431.281 33.6289 433.543 33.6289C435.957 33.6289 437.885 34.1973 439.326 35.334C440.779 36.4707 441.506 37.9473 441.506 39.7637H436.426C436.426 39.0371 436.191 38.4395 435.723 37.9707C435.254 37.4902 434.521 37.25 433.525 37.25C432.67 37.25 432.008 37.4434 431.539 37.8301C431.07 38.2168 430.836 38.709 430.836 39.3066C430.836 39.8691 431.1 40.3262 431.627 40.6777C432.166 41.0176 433.068 41.3164 434.334 41.5742C435.6 41.8203 436.666 42.1016 437.533 42.418C440.217 43.4023 441.559 45.1074 441.559 47.5332C441.559 49.2676 440.814 50.6738 439.326 51.752C437.838 52.8184 435.916 53.3516 433.561 53.3516C431.967 53.3516 430.549 53.0703 429.307 52.5078C428.076 51.9336 427.109 51.1543 426.406 50.1699C425.703 49.1738 425.352 48.1016 425.352 46.9531H430.168C430.215 47.8555 430.549 48.5469 431.17 49.0273C431.791 49.5078 432.623 49.748 433.666 49.748C434.639 49.748 435.371 49.5664 435.863 49.2031C436.367 48.8281 436.619 48.3418 436.619 47.7441ZM444.055 43.3145C444.055 40.3262 444.717 37.9648 446.041 36.2305C447.377 34.4961 449.205 33.6289 451.525 33.6289C453.564 33.6289 455.188 34.4082 456.395 35.9668L456.729 33.9805H461.193V60.3125H456.096V51.3652C454.924 52.6895 453.389 53.3516 451.49 53.3516C449.229 53.3516 447.424 52.4727 446.076 50.7148C444.729 48.957 444.055 46.4902 444.055 43.3145ZM449.135 43.6836C449.135 45.5 449.451 46.8828 450.084 47.832C450.729 48.7812 451.631 49.2559 452.791 49.2559C454.35 49.2559 455.451 48.6348 456.096 47.3926V39.5352C455.463 38.3398 454.373 37.7422 452.826 37.7422C451.654 37.7422 450.746 38.2168 450.102 39.166C449.457 40.1152 449.135 41.6211 449.135 43.6836ZM476.592 51.0664C475.338 52.5898 473.604 53.3516 471.389 53.3516C469.35 53.3516 467.791 52.7656 466.713 51.5938C465.646 50.4219 465.102 48.7051 465.078 46.4434V33.9805H470.158V46.2676C470.158 48.248 471.061 49.2383 472.865 49.2383C474.588 49.2383 475.771 48.6406 476.416 47.4453V33.9805H481.514V53H476.732L476.592 51.0664ZM496.367 53C496.133 52.543 495.963 51.9746 495.857 51.2949C494.627 52.666 493.027 53.3516 491.059 53.3516C489.195 53.3516 487.648 52.8125 486.418 51.7344C485.199 50.6562 484.59 49.2969 484.59 47.6562C484.59 45.6406 485.334 44.0938 486.822 43.0156C488.322 41.9375 490.484 41.3926 493.309 41.3809H495.646V40.291C495.646 39.4121 495.418 38.709 494.961 38.1816C494.516 37.6543 493.807 37.3906 492.834 37.3906C491.979 37.3906 491.305 37.5957 490.812 38.0059C490.332 38.416 490.092 38.9785 490.092 39.6934H485.012C485.012 38.5918 485.352 37.5723 486.031 36.6348C486.711 35.6973 487.672 34.9648 488.914 34.4375C490.156 33.8984 491.551 33.6289 493.098 33.6289C495.441 33.6289 497.299 34.2207 498.67 35.4043C500.053 36.5762 500.744 38.2285 500.744 40.3613V48.6055C500.756 50.4102 501.008 51.7754 501.5 52.7012V53H496.367ZM492.166 49.4668C492.916 49.4668 493.607 49.3027 494.24 48.9746C494.873 48.6348 495.342 48.1836 495.646 47.6211V44.3516H493.748C491.205 44.3516 489.852 45.2305 489.688 46.9883L489.67 47.2871C489.67 47.9199 489.893 48.4414 490.338 48.8516C490.783 49.2617 491.393 49.4668 492.166 49.4668ZM515.334 38.7441C514.643 38.6504 514.033 38.6035 513.506 38.6035C511.584 38.6035 510.324 39.2539 509.727 40.5547V53H504.646V33.9805H509.445L509.586 36.248C510.605 34.502 512.018 33.6289 513.822 33.6289C514.385 33.6289 514.912 33.7051 515.404 33.8574L515.334 38.7441ZM526.197 53.3516C523.408 53.3516 521.135 52.4961 519.377 50.7852C517.631 49.0742 516.758 46.7949 516.758 43.9473V43.4551C516.758 41.5449 517.127 39.8398 517.865 38.3398C518.604 36.8281 519.646 35.668 520.994 34.8594C522.354 34.0391 523.9 33.6289 525.635 33.6289C528.236 33.6289 530.281 34.4492 531.77 36.0898C533.27 37.7305 534.02 40.0566 534.02 43.0684V45.1426H521.908C522.072 46.3848 522.564 47.3809 523.385 48.1309C524.217 48.8809 525.266 49.2559 526.531 49.2559C528.488 49.2559 530.018 48.5469 531.119 47.1289L533.615 49.9238C532.854 51.002 531.822 51.8457 530.521 52.4551C529.221 53.0527 527.779 53.3516 526.197 53.3516ZM525.617 37.7422C524.609 37.7422 523.789 38.082 523.156 38.7617C522.535 39.4414 522.137 40.4141 521.961 41.6797H529.027V41.2754C529.004 40.1504 528.699 39.2832 528.113 38.6738C527.527 38.0527 526.695 37.7422 525.617 37.7422ZM547.221 47.7441C547.221 47.123 546.91 46.6367 546.289 46.2852C545.68 45.9219 544.695 45.5996 543.336 45.3184C538.812 44.3691 536.551 42.4473 536.551 39.5527C536.551 37.8652 537.248 36.459 538.643 35.334C540.049 34.1973 541.883 33.6289 544.145 33.6289C546.559 33.6289 548.486 34.1973 549.928 35.334C551.381 36.4707 552.107 37.9473 552.107 39.7637H547.027C547.027 39.0371 546.793 38.4395 546.324 37.9707C545.855 37.4902 545.123 37.25 544.127 37.25C543.271 37.25 542.609 37.4434 542.141 37.8301C541.672 38.2168 541.438 38.709 541.438 39.3066C541.438 39.8691 541.701 40.3262 542.229 40.6777C542.768 41.0176 543.67 41.3164 544.936 41.5742C546.201 41.8203 547.268 42.1016 548.135 42.418C550.818 43.4023 552.16 45.1074 552.16 47.5332C552.16 49.2676 551.416 50.6738 549.928 51.752C548.439 52.8184 546.518 53.3516 544.162 53.3516C542.568 53.3516 541.15 53.0703 539.908 52.5078C538.678 51.9336 537.711 51.1543 537.008 50.1699C536.305 49.1738 535.953 48.1016 535.953 46.9531H540.77C540.816 47.8555 541.15 48.5469 541.771 49.0273C542.393 49.5078 543.225 49.748 544.268 49.748C545.24 49.748 545.973 49.5664 546.465 49.2031C546.969 48.8281 547.221 48.3418 547.221 47.7441Z" fill="#0085FF"/>
<path id="Shared copyright text" d="M1088.45 678.296C1087 677.88 1085.95 677.37 1085.29 676.767C1084.63 676.157 1084.3 675.407 1084.3 674.517C1084.3 673.509 1084.7 672.677 1085.51 672.021C1086.32 671.358 1087.36 671.027 1088.65 671.027C1089.53 671.027 1090.31 671.197 1091 671.537C1091.69 671.877 1092.22 672.346 1092.6 672.943C1092.98 673.541 1093.17 674.194 1093.17 674.903H1091.47C1091.47 674.13 1091.23 673.523 1090.74 673.084C1090.24 672.639 1089.55 672.416 1088.65 672.416C1087.82 672.416 1087.17 672.601 1086.7 672.97C1086.24 673.333 1086.01 673.84 1086.01 674.49C1086.01 675.012 1086.23 675.454 1086.67 675.817C1087.11 676.175 1087.87 676.503 1088.93 676.802C1089.99 677.101 1090.82 677.432 1091.42 677.795C1092.03 678.152 1092.47 678.571 1092.76 679.052C1093.05 679.532 1093.2 680.098 1093.2 680.748C1093.2 681.785 1092.79 682.617 1091.98 683.244C1091.18 683.865 1090.09 684.176 1088.74 684.176C1087.86 684.176 1087.04 684.009 1086.28 683.675C1085.52 683.335 1084.93 682.872 1084.51 682.286C1084.1 681.7 1083.9 681.035 1083.9 680.291H1085.59C1085.59 681.064 1085.88 681.677 1086.45 682.128C1087.02 682.573 1087.79 682.796 1088.74 682.796C1089.63 682.796 1090.31 682.614 1090.79 682.251C1091.26 681.888 1091.5 681.393 1091.5 680.766C1091.5 680.139 1091.28 679.655 1090.84 679.315C1090.4 678.97 1089.61 678.63 1088.45 678.296ZM1096.74 675.642C1097.46 674.757 1098.4 674.314 1099.55 674.314C1101.56 674.314 1102.58 675.448 1102.59 677.716V684H1100.97V677.707C1100.96 677.021 1100.8 676.515 1100.49 676.187C1100.19 675.858 1099.71 675.694 1099.06 675.694C1098.53 675.694 1098.07 675.835 1097.67 676.116C1097.27 676.397 1096.96 676.767 1096.74 677.224V684H1095.11V670.5H1096.74V675.642ZM1110.9 684C1110.8 683.812 1110.73 683.479 1110.67 682.998C1109.91 683.783 1109.01 684.176 1107.96 684.176C1107.03 684.176 1106.25 683.912 1105.65 683.385C1105.05 682.852 1104.75 682.178 1104.75 681.363C1104.75 680.373 1105.13 679.605 1105.88 679.061C1106.64 678.51 1107.7 678.234 1109.06 678.234H1110.64V677.487C1110.64 676.919 1110.47 676.468 1110.13 676.134C1109.79 675.794 1109.29 675.624 1108.63 675.624C1108.05 675.624 1107.56 675.771 1107.17 676.063C1106.78 676.356 1106.58 676.711 1106.58 677.127H1104.95C1104.95 676.652 1105.12 676.195 1105.45 675.756C1105.79 675.311 1106.25 674.959 1106.82 674.701C1107.4 674.443 1108.04 674.314 1108.73 674.314C1109.82 674.314 1110.68 674.59 1111.3 675.141C1111.92 675.686 1112.25 676.438 1112.27 677.399V681.776C1112.27 682.649 1112.38 683.344 1112.6 683.859V684H1110.9ZM1108.2 682.761C1108.71 682.761 1109.19 682.629 1109.65 682.365C1110.11 682.102 1110.44 681.759 1110.64 681.337V679.386H1109.37C1107.38 679.386 1106.38 679.969 1106.38 681.135C1106.38 681.645 1106.55 682.043 1106.89 682.33C1107.23 682.617 1107.67 682.761 1108.2 682.761ZM1119.42 675.949C1119.17 675.908 1118.9 675.888 1118.62 675.888C1117.55 675.888 1116.83 676.342 1116.44 677.25V684H1114.82V674.49H1116.4L1116.43 675.589C1116.96 674.739 1117.72 674.314 1118.69 674.314C1119.01 674.314 1119.25 674.355 1119.42 674.438V675.949ZM1124.69 684.176C1123.4 684.176 1122.35 683.754 1121.54 682.91C1120.73 682.061 1120.33 680.927 1120.33 679.509V679.21C1120.33 678.267 1120.51 677.426 1120.87 676.688C1121.23 675.943 1121.73 675.363 1122.38 674.947C1123.03 674.525 1123.73 674.314 1124.49 674.314C1125.72 674.314 1126.68 674.722 1127.37 675.536C1128.05 676.351 1128.4 677.517 1128.4 679.034V679.711H1121.96C1121.98 680.648 1122.25 681.407 1122.77 681.987C1123.3 682.562 1123.97 682.849 1124.78 682.849C1125.35 682.849 1125.84 682.731 1126.24 682.497C1126.63 682.263 1126.98 681.952 1127.28 681.565L1128.27 682.339C1127.48 683.563 1126.28 684.176 1124.69 684.176ZM1124.49 675.65C1123.83 675.65 1123.28 675.891 1122.83 676.371C1122.39 676.846 1122.11 677.514 1122.01 678.375H1126.77V678.252C1126.72 677.426 1126.5 676.787 1126.1 676.336C1125.71 675.879 1125.17 675.65 1124.49 675.65ZM1129.89 679.166C1129.89 677.707 1130.24 676.535 1130.93 675.65C1131.62 674.76 1132.53 674.314 1133.64 674.314C1134.76 674.314 1135.64 674.695 1136.29 675.457V670.5H1137.92V684H1136.42L1136.34 682.98C1135.69 683.777 1134.79 684.176 1133.63 684.176C1132.53 684.176 1131.63 683.725 1130.93 682.822C1130.24 681.92 1129.89 680.742 1129.89 679.289V679.166ZM1131.52 679.351C1131.52 680.429 1131.74 681.272 1132.19 681.882C1132.63 682.491 1133.25 682.796 1134.03 682.796C1135.06 682.796 1135.82 682.333 1136.29 681.407V677.039C1135.8 676.143 1135.06 675.694 1134.05 675.694C1133.25 675.694 1132.63 676.002 1132.19 676.617C1131.74 677.232 1131.52 678.144 1131.52 679.351ZM1148.73 682.849C1149.31 682.849 1149.81 682.673 1150.25 682.321C1150.68 681.97 1150.92 681.53 1150.97 681.003H1152.51C1152.48 681.548 1152.29 682.066 1151.94 682.559C1151.6 683.051 1151.13 683.443 1150.55 683.736C1149.98 684.029 1149.37 684.176 1148.73 684.176C1147.43 684.176 1146.4 683.745 1145.63 682.884C1144.87 682.017 1144.49 680.833 1144.49 679.333V679.061C1144.49 678.135 1144.66 677.312 1145 676.591C1145.34 675.87 1145.83 675.311 1146.46 674.912C1147.1 674.514 1147.85 674.314 1148.72 674.314C1149.78 674.314 1150.67 674.634 1151.37 675.272C1152.08 675.911 1152.46 676.74 1152.51 677.76H1150.97C1150.92 677.145 1150.69 676.641 1150.26 676.248C1149.85 675.85 1149.33 675.65 1148.72 675.65C1147.89 675.65 1147.25 675.949 1146.79 676.547C1146.34 677.139 1146.12 677.997 1146.12 679.122V679.43C1146.12 680.525 1146.34 681.369 1146.79 681.961C1147.24 682.553 1147.89 682.849 1148.73 682.849ZM1153.9 679.157C1153.9 678.226 1154.08 677.388 1154.45 676.644C1154.82 675.899 1155.33 675.325 1155.98 674.921C1156.63 674.517 1157.38 674.314 1158.22 674.314C1159.51 674.314 1160.56 674.763 1161.36 675.659C1162.16 676.556 1162.56 677.748 1162.56 679.236V679.351C1162.56 680.276 1162.38 681.108 1162.02 681.847C1161.67 682.579 1161.17 683.15 1160.5 683.561C1159.85 683.971 1159.09 684.176 1158.24 684.176C1156.95 684.176 1155.9 683.728 1155.1 682.831C1154.3 681.935 1153.9 680.748 1153.9 679.271V679.157ZM1155.54 679.351C1155.54 680.405 1155.78 681.252 1156.27 681.891C1156.76 682.529 1157.42 682.849 1158.24 682.849C1159.06 682.849 1159.72 682.526 1160.21 681.882C1160.69 681.231 1160.93 680.323 1160.93 679.157C1160.93 678.114 1160.69 677.271 1160.19 676.626C1159.7 675.976 1159.04 675.65 1158.22 675.65C1157.42 675.65 1156.77 675.97 1156.28 676.608C1155.78 677.247 1155.54 678.161 1155.54 679.351ZM1172.63 679.351C1172.63 680.798 1172.3 681.964 1171.64 682.849C1170.98 683.733 1170.08 684.176 1168.95 684.176C1167.8 684.176 1166.89 683.81 1166.23 683.077V687.656H1164.6V674.49H1166.08L1166.16 675.545C1166.83 674.725 1167.75 674.314 1168.92 674.314C1170.07 674.314 1170.97 674.745 1171.63 675.606C1172.3 676.468 1172.63 677.666 1172.63 679.201V679.351ZM1171.01 679.166C1171.01 678.094 1170.78 677.247 1170.32 676.626C1169.86 676.005 1169.24 675.694 1168.44 675.694C1167.46 675.694 1166.72 676.131 1166.23 677.004V681.548C1166.71 682.415 1167.46 682.849 1168.46 682.849C1169.24 682.849 1169.86 682.541 1170.31 681.926C1170.78 681.305 1171.01 680.385 1171.01 679.166ZM1177.71 681.618L1179.93 674.49H1181.67L1177.84 685.468C1177.25 687.05 1176.31 687.841 1175.02 687.841L1174.72 687.814L1174.11 687.7V686.382L1174.55 686.417C1175.1 686.417 1175.53 686.306 1175.83 686.083C1176.14 685.86 1176.4 685.453 1176.6 684.861L1176.96 683.895L1173.56 674.49H1175.34L1177.71 681.618ZM1187.72 675.949C1187.48 675.908 1187.21 675.888 1186.92 675.888C1185.86 675.888 1185.13 676.342 1184.75 677.25V684H1183.13V674.49H1184.71L1184.74 675.589C1185.27 674.739 1186.02 674.314 1187 674.314C1187.32 674.314 1187.56 674.355 1187.72 674.438V675.949ZM1190.99 684H1189.37V674.49H1190.99V684ZM1189.24 671.968C1189.24 671.704 1189.31 671.481 1189.47 671.3C1189.64 671.118 1189.88 671.027 1190.19 671.027C1190.51 671.027 1190.75 671.118 1190.91 671.3C1191.08 671.481 1191.16 671.704 1191.16 671.968C1191.16 672.231 1191.08 672.451 1190.91 672.627C1190.75 672.803 1190.51 672.891 1190.19 672.891C1189.88 672.891 1189.64 672.803 1189.47 672.627C1189.31 672.451 1189.24 672.231 1189.24 671.968ZM1193.22 679.166C1193.22 677.684 1193.56 676.506 1194.25 675.633C1194.93 674.754 1195.84 674.314 1196.97 674.314C1198.13 674.314 1199.04 674.725 1199.69 675.545L1199.76 674.49H1201.25V683.771C1201.25 685.002 1200.88 685.972 1200.15 686.681C1199.42 687.39 1198.45 687.744 1197.22 687.744C1196.53 687.744 1195.86 687.598 1195.2 687.305C1194.55 687.012 1194.05 686.61 1193.7 686.101L1194.54 685.125C1195.24 685.986 1196.09 686.417 1197.1 686.417C1197.89 686.417 1198.51 686.194 1198.95 685.749C1199.39 685.304 1199.62 684.677 1199.62 683.868V683.051C1198.96 683.801 1198.08 684.176 1196.95 684.176C1195.84 684.176 1194.94 683.728 1194.25 682.831C1193.56 681.935 1193.22 680.713 1193.22 679.166ZM1194.85 679.351C1194.85 680.423 1195.07 681.267 1195.51 681.882C1195.95 682.491 1196.57 682.796 1197.36 682.796C1198.38 682.796 1199.13 682.33 1199.62 681.398V677.057C1199.12 676.148 1198.37 675.694 1197.37 675.694C1196.58 675.694 1195.96 676.002 1195.52 676.617C1195.07 677.232 1194.85 678.144 1194.85 679.351ZM1205.34 675.642C1206.06 674.757 1207 674.314 1208.15 674.314C1210.16 674.314 1211.17 675.448 1211.19 677.716V684H1209.56V677.707C1209.56 677.021 1209.4 676.515 1209.09 676.187C1208.79 675.858 1208.31 675.694 1207.66 675.694C1207.13 675.694 1206.67 675.835 1206.27 676.116C1205.87 676.397 1205.56 676.767 1205.34 677.224V684H1203.71V670.5H1205.34V675.642ZM1215.83 672.188V674.49H1217.61V675.747H1215.83V681.645C1215.83 682.025 1215.91 682.312 1216.07 682.506C1216.23 682.693 1216.5 682.787 1216.88 682.787C1217.06 682.787 1217.32 682.752 1217.65 682.682V684C1217.22 684.117 1216.81 684.176 1216.4 684.176C1215.68 684.176 1215.13 683.956 1214.76 683.517C1214.39 683.077 1214.21 682.453 1214.21 681.645V675.747H1212.47V674.49H1214.21V672.188H1215.83ZM1226.18 672.188V674.49H1227.96V675.747H1226.18V681.645C1226.18 682.025 1226.26 682.312 1226.42 682.506C1226.58 682.693 1226.85 682.787 1227.23 682.787C1227.42 682.787 1227.68 682.752 1228 682.682V684C1227.58 684.117 1227.16 684.176 1226.76 684.176C1226.03 684.176 1225.48 683.956 1225.11 683.517C1224.74 683.077 1224.56 682.453 1224.56 681.645V675.747H1222.83V674.49H1224.56V672.188H1226.18ZM1233.81 684.176C1232.52 684.176 1231.48 683.754 1230.67 682.91C1229.86 682.061 1229.45 680.927 1229.45 679.509V679.21C1229.45 678.267 1229.63 677.426 1229.99 676.688C1230.35 675.943 1230.86 675.363 1231.5 674.947C1232.15 674.525 1232.86 674.314 1233.61 674.314C1234.85 674.314 1235.81 674.722 1236.49 675.536C1237.18 676.351 1237.52 677.517 1237.52 679.034V679.711H1231.08C1231.1 680.648 1231.38 681.407 1231.9 681.987C1232.42 682.562 1233.09 682.849 1233.9 682.849C1234.48 682.849 1234.96 682.731 1235.36 682.497C1235.76 682.263 1236.11 681.952 1236.41 681.565L1237.4 682.339C1236.6 683.563 1235.41 684.176 1233.81 684.176ZM1233.61 675.65C1232.96 675.65 1232.4 675.891 1231.96 676.371C1231.51 676.846 1231.24 677.514 1231.13 678.375H1235.9V678.252C1235.85 677.426 1235.63 676.787 1235.23 676.336C1234.83 675.879 1234.29 675.65 1233.61 675.65ZM1242.6 677.962L1244.71 674.49H1246.61L1243.5 679.192L1246.71 684H1244.83L1242.63 680.44L1240.43 684H1238.54L1241.75 679.192L1238.64 674.49H1240.52L1242.6 677.962ZM1250.55 672.188V674.49H1252.32V675.747H1250.55V681.645C1250.55 682.025 1250.63 682.312 1250.79 682.506C1250.94 682.693 1251.21 682.787 1251.59 682.787C1251.78 682.787 1252.04 682.752 1252.37 682.682V684C1251.94 684.117 1251.52 684.176 1251.12 684.176C1250.39 684.176 1249.84 683.956 1249.48 683.517C1249.11 683.077 1248.92 682.453 1248.92 681.645V675.747H1247.19V674.49H1248.92V672.188H1250.55Z" fill="#868686"/>
</g>
</g>
</svg>
