<svg width="1280" height="720" viewBox="0 0 1280 720" fill="none" xmlns="http://www.w3.org/2000/svg">
<g id="101 Overview">
<rect width="1280" height="720" fill="white"/>
<path id="This is a text[fade-in]" d="M388.654 252.184H380.428V275H377.07V252.184H368.861V249.406H388.654V252.184ZM395.193 258.283C396.635 256.514 398.51 255.629 400.818 255.629C404.838 255.629 406.865 257.896 406.9 262.432V275H403.648V262.414C403.637 261.043 403.32 260.029 402.699 259.373C402.09 258.717 401.135 258.389 399.834 258.389C398.779 258.389 397.854 258.67 397.057 259.232C396.26 259.795 395.639 260.533 395.193 261.447V275H391.941V248H395.193V258.283ZM415.303 275H412.051V255.98H415.303V275ZM411.787 250.936C411.787 250.408 411.945 249.963 412.262 249.6C412.59 249.236 413.07 249.055 413.703 249.055C414.336 249.055 414.816 249.236 415.145 249.6C415.473 249.963 415.637 250.408 415.637 250.936C415.637 251.463 415.473 251.902 415.145 252.254C414.816 252.605 414.336 252.781 413.703 252.781C413.07 252.781 412.59 252.605 412.262 252.254C411.945 251.902 411.787 251.463 411.787 250.936ZM431.598 269.955C431.598 269.076 431.264 268.396 430.596 267.916C429.939 267.424 428.785 267.002 427.133 266.65C425.492 266.299 424.186 265.877 423.213 265.385C422.252 264.893 421.537 264.307 421.068 263.627C420.611 262.947 420.383 262.139 420.383 261.201C420.383 259.643 421.039 258.324 422.352 257.246C423.676 256.168 425.363 255.629 427.414 255.629C429.57 255.629 431.316 256.186 432.652 257.299C434 258.412 434.674 259.836 434.674 261.57H431.404C431.404 260.68 431.023 259.912 430.262 259.268C429.512 258.623 428.562 258.301 427.414 258.301C426.23 258.301 425.305 258.559 424.637 259.074C423.969 259.59 423.635 260.264 423.635 261.096C423.635 261.881 423.945 262.473 424.566 262.871C425.188 263.27 426.307 263.65 427.924 264.014C429.553 264.377 430.871 264.811 431.879 265.314C432.887 265.818 433.631 266.428 434.111 267.143C434.604 267.846 434.85 268.707 434.85 269.727C434.85 271.426 434.17 272.791 432.811 273.822C431.451 274.842 429.688 275.352 427.52 275.352C425.996 275.352 424.648 275.082 423.477 274.543C422.305 274.004 421.385 273.254 420.717 272.293C420.061 271.32 419.732 270.271 419.732 269.146H422.984C423.043 270.236 423.477 271.104 424.285 271.748C425.105 272.381 426.184 272.697 427.52 272.697C428.75 272.697 429.734 272.451 430.473 271.959C431.223 271.455 431.598 270.787 431.598 269.955ZM451.549 275H448.297V255.98H451.549V275ZM448.033 250.936C448.033 250.408 448.191 249.963 448.508 249.6C448.836 249.236 449.316 249.055 449.949 249.055C450.582 249.055 451.062 249.236 451.391 249.6C451.719 249.963 451.883 250.408 451.883 250.936C451.883 251.463 451.719 251.902 451.391 252.254C451.062 252.605 450.582 252.781 449.949 252.781C449.316 252.781 448.836 252.605 448.508 252.254C448.191 251.902 448.033 251.463 448.033 250.936ZM467.844 269.955C467.844 269.076 467.51 268.396 466.842 267.916C466.186 267.424 465.031 267.002 463.379 266.65C461.738 266.299 460.432 265.877 459.459 265.385C458.498 264.893 457.783 264.307 457.314 263.627C456.857 262.947 456.629 262.139 456.629 261.201C456.629 259.643 457.285 258.324 458.598 257.246C459.922 256.168 461.609 255.629 463.66 255.629C465.816 255.629 467.562 256.186 468.898 257.299C470.246 258.412 470.92 259.836 470.92 261.57H467.65C467.65 260.68 467.27 259.912 466.508 259.268C465.758 258.623 464.809 258.301 463.66 258.301C462.477 258.301 461.551 258.559 460.883 259.074C460.215 259.59 459.881 260.264 459.881 261.096C459.881 261.881 460.191 262.473 460.812 262.871C461.434 263.27 462.553 263.65 464.17 264.014C465.799 264.377 467.117 264.811 468.125 265.314C469.133 265.818 469.877 266.428 470.357 267.143C470.85 267.846 471.096 268.707 471.096 269.727C471.096 271.426 470.416 272.791 469.057 273.822C467.697 274.842 465.934 275.352 463.766 275.352C462.242 275.352 460.895 275.082 459.723 274.543C458.551 274.004 457.631 273.254 456.963 272.293C456.307 271.32 455.979 270.271 455.979 269.146H459.23C459.289 270.236 459.723 271.104 460.531 271.748C461.352 272.381 462.43 272.697 463.766 272.697C464.996 272.697 465.98 272.451 466.719 271.959C467.469 271.455 467.844 270.787 467.844 269.955ZM496.004 275C495.816 274.625 495.664 273.957 495.547 272.996C494.035 274.566 492.23 275.352 490.133 275.352C488.258 275.352 486.717 274.824 485.51 273.77C484.314 272.703 483.717 271.355 483.717 269.727C483.717 267.746 484.467 266.211 485.967 265.121C487.479 264.02 489.6 263.469 492.33 263.469H495.494V261.975C495.494 260.838 495.154 259.936 494.475 259.268C493.795 258.588 492.793 258.248 491.469 258.248C490.309 258.248 489.336 258.541 488.551 259.127C487.766 259.713 487.373 260.422 487.373 261.254H484.104C484.104 260.305 484.438 259.391 485.105 258.512C485.785 257.621 486.699 256.918 487.848 256.402C489.008 255.887 490.279 255.629 491.662 255.629C493.854 255.629 495.57 256.18 496.812 257.281C498.055 258.371 498.699 259.877 498.746 261.799V270.553C498.746 272.299 498.969 273.688 499.414 274.719V275H496.004ZM490.607 272.521C491.627 272.521 492.594 272.258 493.508 271.73C494.422 271.203 495.084 270.518 495.494 269.674V265.771H492.945C488.961 265.771 486.969 266.938 486.969 269.27C486.969 270.289 487.309 271.086 487.988 271.66C488.668 272.234 489.541 272.521 490.607 272.521ZM517.186 251.375V255.98H520.736V258.494H517.186V270.289C517.186 271.051 517.344 271.625 517.66 272.012C517.977 272.387 518.516 272.574 519.277 272.574C519.652 272.574 520.168 272.504 520.824 272.363V275C519.969 275.234 519.137 275.352 518.328 275.352C516.875 275.352 515.779 274.912 515.041 274.033C514.303 273.154 513.934 271.906 513.934 270.289V258.494H510.471V255.98H513.934V251.375H517.186ZM532.443 275.352C529.865 275.352 527.768 274.508 526.15 272.82C524.533 271.121 523.725 268.854 523.725 266.018V265.42C523.725 263.533 524.082 261.852 524.797 260.375C525.523 258.887 526.531 257.727 527.82 256.895C529.121 256.051 530.527 255.629 532.039 255.629C534.512 255.629 536.434 256.443 537.805 258.072C539.176 259.701 539.861 262.033 539.861 265.068V266.422H526.977C527.023 268.297 527.568 269.814 528.611 270.975C529.666 272.123 531.002 272.697 532.619 272.697C533.768 272.697 534.74 272.463 535.537 271.994C536.334 271.525 537.031 270.904 537.629 270.131L539.615 271.678C538.021 274.127 535.631 275.352 532.443 275.352ZM532.039 258.301C530.727 258.301 529.625 258.781 528.734 259.742C527.844 260.691 527.293 262.027 527.082 263.75H536.609V263.504C536.516 261.852 536.07 260.574 535.273 259.672C534.477 258.758 533.398 258.301 532.039 258.301ZM550.021 262.924L554.24 255.98H558.037L551.814 265.385L558.23 275H554.469L550.074 267.881L545.68 275H541.9L548.316 265.385L542.094 255.98H545.855L550.021 262.924ZM565.912 251.375V255.98H569.463V258.494H565.912V270.289C565.912 271.051 566.07 271.625 566.387 272.012C566.703 272.387 567.242 272.574 568.004 272.574C568.379 272.574 568.895 272.504 569.551 272.363V275C568.695 275.234 567.863 275.352 567.055 275.352C565.602 275.352 564.506 274.912 563.768 274.033C563.029 273.154 562.66 271.906 562.66 270.289V258.494H559.197V255.98H562.66V251.375H565.912Z" fill="black"/>
<path id="This is another one[stage=1]" d="M388.654 337.184H380.428V360H377.07V337.184H368.861V334.406H388.654V337.184ZM395.193 343.283C396.635 341.514 398.51 340.629 400.818 340.629C404.838 340.629 406.865 342.896 406.9 347.432V360H403.648V347.414C403.637 346.043 403.32 345.029 402.699 344.373C402.09 343.717 401.135 343.389 399.834 343.389C398.779 343.389 397.854 343.67 397.057 344.232C396.26 344.795 395.639 345.533 395.193 346.447V360H391.941V333H395.193V343.283ZM415.303 360H412.051V340.98H415.303V360ZM411.787 335.936C411.787 335.408 411.945 334.963 412.262 334.6C412.59 334.236 413.07 334.055 413.703 334.055C414.336 334.055 414.816 334.236 415.145 334.6C415.473 334.963 415.637 335.408 415.637 335.936C415.637 336.463 415.473 336.902 415.145 337.254C414.816 337.605 414.336 337.781 413.703 337.781C413.07 337.781 412.59 337.605 412.262 337.254C411.945 336.902 411.787 336.463 411.787 335.936ZM431.598 354.955C431.598 354.076 431.264 353.396 430.596 352.916C429.939 352.424 428.785 352.002 427.133 351.65C425.492 351.299 424.186 350.877 423.213 350.385C422.252 349.893 421.537 349.307 421.068 348.627C420.611 347.947 420.383 347.139 420.383 346.201C420.383 344.643 421.039 343.324 422.352 342.246C423.676 341.168 425.363 340.629 427.414 340.629C429.57 340.629 431.316 341.186 432.652 342.299C434 343.412 434.674 344.836 434.674 346.57H431.404C431.404 345.68 431.023 344.912 430.262 344.268C429.512 343.623 428.562 343.301 427.414 343.301C426.23 343.301 425.305 343.559 424.637 344.074C423.969 344.59 423.635 345.264 423.635 346.096C423.635 346.881 423.945 347.473 424.566 347.871C425.188 348.27 426.307 348.65 427.924 349.014C429.553 349.377 430.871 349.811 431.879 350.314C432.887 350.818 433.631 351.428 434.111 352.143C434.604 352.846 434.85 353.707 434.85 354.727C434.85 356.426 434.17 357.791 432.811 358.822C431.451 359.842 429.688 360.352 427.52 360.352C425.996 360.352 424.648 360.082 423.477 359.543C422.305 359.004 421.385 358.254 420.717 357.293C420.061 356.32 419.732 355.271 419.732 354.146H422.984C423.043 355.236 423.477 356.104 424.285 356.748C425.105 357.381 426.184 357.697 427.52 357.697C428.75 357.697 429.734 357.451 430.473 356.959C431.223 356.455 431.598 355.787 431.598 354.955ZM451.549 360H448.297V340.98H451.549V360ZM448.033 335.936C448.033 335.408 448.191 334.963 448.508 334.6C448.836 334.236 449.316 334.055 449.949 334.055C450.582 334.055 451.062 334.236 451.391 334.6C451.719 334.963 451.883 335.408 451.883 335.936C451.883 336.463 451.719 336.902 451.391 337.254C451.062 337.605 450.582 337.781 449.949 337.781C449.316 337.781 448.836 337.605 448.508 337.254C448.191 336.902 448.033 336.463 448.033 335.936ZM467.844 354.955C467.844 354.076 467.51 353.396 466.842 352.916C466.186 352.424 465.031 352.002 463.379 351.65C461.738 351.299 460.432 350.877 459.459 350.385C458.498 349.893 457.783 349.307 457.314 348.627C456.857 347.947 456.629 347.139 456.629 346.201C456.629 344.643 457.285 343.324 458.598 342.246C459.922 341.168 461.609 340.629 463.66 340.629C465.816 340.629 467.562 341.186 468.898 342.299C470.246 343.412 470.92 344.836 470.92 346.57H467.65C467.65 345.68 467.27 344.912 466.508 344.268C465.758 343.623 464.809 343.301 463.66 343.301C462.477 343.301 461.551 343.559 460.883 344.074C460.215 344.59 459.881 345.264 459.881 346.096C459.881 346.881 460.191 347.473 460.812 347.871C461.434 348.27 462.553 348.65 464.17 349.014C465.799 349.377 467.117 349.811 468.125 350.314C469.133 350.818 469.877 351.428 470.357 352.143C470.85 352.846 471.096 353.707 471.096 354.727C471.096 356.426 470.416 357.791 469.057 358.822C467.697 359.842 465.934 360.352 463.766 360.352C462.242 360.352 460.895 360.082 459.723 359.543C458.551 359.004 457.631 358.254 456.963 357.293C456.307 356.32 455.979 355.271 455.979 354.146H459.23C459.289 355.236 459.723 356.104 460.531 356.748C461.352 357.381 462.43 357.697 463.766 357.697C464.996 357.697 465.98 357.451 466.719 356.959C467.469 356.455 467.844 355.787 467.844 354.955ZM496.004 360C495.816 359.625 495.664 358.957 495.547 357.996C494.035 359.566 492.23 360.352 490.133 360.352C488.258 360.352 486.717 359.824 485.51 358.77C484.314 357.703 483.717 356.355 483.717 354.727C483.717 352.746 484.467 351.211 485.967 350.121C487.479 349.02 489.6 348.469 492.33 348.469H495.494V346.975C495.494 345.838 495.154 344.936 494.475 344.268C493.795 343.588 492.793 343.248 491.469 343.248C490.309 343.248 489.336 343.541 488.551 344.127C487.766 344.713 487.373 345.422 487.373 346.254H484.104C484.104 345.305 484.438 344.391 485.105 343.512C485.785 342.621 486.699 341.918 487.848 341.402C489.008 340.887 490.279 340.629 491.662 340.629C493.854 340.629 495.57 341.18 496.812 342.281C498.055 343.371 498.699 344.877 498.746 346.799V355.553C498.746 357.299 498.969 358.688 499.414 359.719V360H496.004ZM490.607 357.521C491.627 357.521 492.594 357.258 493.508 356.73C494.422 356.203 495.084 355.518 495.494 354.674V350.771H492.945C488.961 350.771 486.969 351.938 486.969 354.27C486.969 355.289 487.309 356.086 487.988 356.66C488.668 357.234 489.541 357.521 490.607 357.521ZM506.92 340.98L507.025 343.371C508.479 341.543 510.377 340.629 512.721 340.629C516.74 340.629 518.768 342.896 518.803 347.432V360H515.551V347.414C515.539 346.043 515.223 345.029 514.602 344.373C513.992 343.717 513.037 343.389 511.736 343.389C510.682 343.389 509.756 343.67 508.959 344.232C508.162 344.795 507.541 345.533 507.096 346.447V360H503.844V340.98H506.92ZM522.846 350.314C522.846 348.451 523.209 346.775 523.936 345.287C524.674 343.799 525.693 342.65 526.994 341.842C528.307 341.033 529.801 340.629 531.477 340.629C534.066 340.629 536.158 341.525 537.752 343.318C539.357 345.111 540.16 347.496 540.16 350.473V350.701C540.16 352.553 539.803 354.217 539.088 355.693C538.385 357.158 537.371 358.301 536.047 359.121C534.734 359.941 533.223 360.352 531.512 360.352C528.934 360.352 526.842 359.455 525.236 357.662C523.643 355.869 522.846 353.496 522.846 350.543V350.314ZM526.115 350.701C526.115 352.811 526.602 354.504 527.574 355.781C528.559 357.059 529.871 357.697 531.512 357.697C533.164 357.697 534.477 357.053 535.449 355.764C536.422 354.463 536.908 352.646 536.908 350.314C536.908 348.229 536.41 346.541 535.414 345.252C534.43 343.951 533.117 343.301 531.477 343.301C529.871 343.301 528.576 343.939 527.592 345.217C526.607 346.494 526.115 348.322 526.115 350.701ZM548.65 336.375V340.98H552.201V343.494H548.65V355.289C548.65 356.051 548.809 356.625 549.125 357.012C549.441 357.387 549.98 357.574 550.742 357.574C551.117 357.574 551.633 357.504 552.289 357.363V360C551.434 360.234 550.602 360.352 549.793 360.352C548.34 360.352 547.244 359.912 546.506 359.033C545.768 358.154 545.398 356.906 545.398 355.289V343.494H541.936V340.98H545.398V336.375H548.65ZM559.268 343.283C560.709 341.514 562.584 340.629 564.893 340.629C568.912 340.629 570.939 342.896 570.975 347.432V360H567.723V347.414C567.711 346.043 567.395 345.029 566.773 344.373C566.164 343.717 565.209 343.389 563.908 343.389C562.854 343.389 561.928 343.67 561.131 344.232C560.334 344.795 559.713 345.533 559.268 346.447V360H556.016V333H559.268V343.283ZM583.736 360.352C581.158 360.352 579.061 359.508 577.443 357.82C575.826 356.121 575.018 353.854 575.018 351.018V350.42C575.018 348.533 575.375 346.852 576.09 345.375C576.816 343.887 577.824 342.727 579.113 341.895C580.414 341.051 581.82 340.629 583.332 340.629C585.805 340.629 587.727 341.443 589.098 343.072C590.469 344.701 591.154 347.033 591.154 350.068V351.422H578.27C578.316 353.297 578.861 354.814 579.904 355.975C580.959 357.123 582.295 357.697 583.912 357.697C585.061 357.697 586.033 357.463 586.83 356.994C587.627 356.525 588.324 355.904 588.922 355.131L590.908 356.678C589.314 359.127 586.924 360.352 583.736 360.352ZM583.332 343.301C582.02 343.301 580.918 343.781 580.027 344.742C579.137 345.691 578.586 347.027 578.375 348.75H587.902V348.504C587.809 346.852 587.363 345.574 586.566 344.672C585.77 343.758 584.691 343.301 583.332 343.301ZM604.127 343.898C603.635 343.816 603.102 343.775 602.527 343.775C600.395 343.775 598.947 344.684 598.186 346.5V360H594.934V340.98H598.098L598.15 343.178C599.217 341.479 600.729 340.629 602.686 340.629C603.318 340.629 603.799 340.711 604.127 340.875V343.898ZM615.201 350.314C615.201 348.451 615.564 346.775 616.291 345.287C617.029 343.799 618.049 342.65 619.35 341.842C620.662 341.033 622.156 340.629 623.832 340.629C626.422 340.629 628.514 341.525 630.107 343.318C631.713 345.111 632.516 347.496 632.516 350.473V350.701C632.516 352.553 632.158 354.217 631.443 355.693C630.74 357.158 629.727 358.301 628.402 359.121C627.09 359.941 625.578 360.352 623.867 360.352C621.289 360.352 619.197 359.455 617.592 357.662C615.998 355.869 615.201 353.496 615.201 350.543V350.314ZM618.471 350.701C618.471 352.811 618.957 354.504 619.93 355.781C620.914 357.059 622.227 357.697 623.867 357.697C625.52 357.697 626.832 357.053 627.805 355.764C628.777 354.463 629.264 352.646 629.264 350.314C629.264 348.229 628.766 346.541 627.77 345.252C626.785 343.951 625.473 343.301 623.832 343.301C622.227 343.301 620.932 343.939 619.947 345.217C618.963 346.494 618.471 348.322 618.471 350.701ZM639.67 340.98L639.775 343.371C641.229 341.543 643.127 340.629 645.471 340.629C649.49 340.629 651.518 342.896 651.553 347.432V360H648.301V347.414C648.289 346.043 647.973 345.029 647.352 344.373C646.742 343.717 645.787 343.389 644.486 343.389C643.432 343.389 642.506 343.67 641.709 344.232C640.912 344.795 640.291 345.533 639.846 346.447V360H636.594V340.98H639.67ZM664.35 360.352C661.771 360.352 659.674 359.508 658.057 357.82C656.439 356.121 655.631 353.854 655.631 351.018V350.42C655.631 348.533 655.988 346.852 656.703 345.375C657.43 343.887 658.438 342.727 659.727 341.895C661.027 341.051 662.434 340.629 663.945 340.629C666.418 340.629 668.34 341.443 669.711 343.072C671.082 344.701 671.768 347.033 671.768 350.068V351.422H658.883C658.93 353.297 659.475 354.814 660.518 355.975C661.572 357.123 662.908 357.697 664.525 357.697C665.674 357.697 666.646 357.463 667.443 356.994C668.24 356.525 668.938 355.904 669.535 355.131L671.521 356.678C669.928 359.127 667.537 360.352 664.35 360.352ZM663.945 343.301C662.633 343.301 661.531 343.781 660.641 344.742C659.75 345.691 659.199 347.027 658.988 348.75H668.516V348.504C668.422 346.852 667.977 345.574 667.18 344.672C666.383 343.758 665.305 343.301 663.945 343.301Z" fill="black"/>
<path id="And the third[stage=2]" d="M385.104 438.32H374.381L371.973 445H368.492L378.266 419.406H381.219L391.01 445H387.547L385.104 438.32ZM375.4 435.543H384.102L379.742 423.572L375.4 435.543ZM397.021 425.98L397.127 428.371C398.58 426.543 400.479 425.629 402.822 425.629C406.842 425.629 408.869 427.896 408.904 432.432V445H405.652V432.414C405.641 431.043 405.324 430.029 404.703 429.373C404.094 428.717 403.139 428.389 401.838 428.389C400.783 428.389 399.857 428.67 399.061 429.232C398.264 429.795 397.643 430.533 397.197 431.447V445H393.945V425.98H397.021ZM413.018 435.332C413.018 432.414 413.709 430.07 415.092 428.301C416.475 426.52 418.285 425.629 420.523 425.629C422.75 425.629 424.514 426.391 425.814 427.914V418H429.066V445H426.078L425.92 442.961C424.619 444.555 422.809 445.352 420.488 445.352C418.285 445.352 416.486 444.449 415.092 442.645C413.709 440.84 413.018 438.484 413.018 435.578V435.332ZM416.27 435.701C416.27 437.857 416.715 439.545 417.605 440.764C418.496 441.982 419.727 442.592 421.297 442.592C423.359 442.592 424.865 441.666 425.814 439.814V431.078C424.842 429.285 423.348 428.389 421.332 428.389C419.738 428.389 418.496 429.004 417.605 430.234C416.715 431.465 416.27 433.287 416.27 435.701ZM447.471 421.375V425.98H451.021V428.494H447.471V440.289C447.471 441.051 447.629 441.625 447.945 442.012C448.262 442.387 448.801 442.574 449.562 442.574C449.938 442.574 450.453 442.504 451.109 442.363V445C450.254 445.234 449.422 445.352 448.613 445.352C447.16 445.352 446.064 444.912 445.326 444.033C444.588 443.154 444.219 441.906 444.219 440.289V428.494H440.756V425.98H444.219V421.375H447.471ZM458.088 428.283C459.529 426.514 461.404 425.629 463.713 425.629C467.732 425.629 469.76 427.896 469.795 432.432V445H466.543V432.414C466.531 431.043 466.215 430.029 465.594 429.373C464.984 428.717 464.029 428.389 462.729 428.389C461.674 428.389 460.748 428.67 459.951 429.232C459.154 429.795 458.533 430.533 458.088 431.447V445H454.836V418H458.088V428.283ZM482.557 445.352C479.979 445.352 477.881 444.508 476.264 442.82C474.646 441.121 473.838 438.854 473.838 436.018V435.42C473.838 433.533 474.195 431.852 474.91 430.375C475.637 428.887 476.645 427.727 477.934 426.895C479.234 426.051 480.641 425.629 482.152 425.629C484.625 425.629 486.547 426.443 487.918 428.072C489.289 429.701 489.975 432.033 489.975 435.068V436.422H477.09C477.137 438.297 477.682 439.814 478.725 440.975C479.779 442.123 481.115 442.697 482.732 442.697C483.881 442.697 484.854 442.463 485.65 441.994C486.447 441.525 487.145 440.904 487.742 440.131L489.729 441.678C488.135 444.127 485.744 445.352 482.557 445.352ZM482.152 428.301C480.84 428.301 479.738 428.781 478.848 429.742C477.957 430.691 477.406 432.027 477.195 433.75H486.723V433.504C486.629 431.852 486.184 430.574 485.387 429.672C484.59 428.758 483.512 428.301 482.152 428.301ZM508.256 421.305V425.98H511.508V429.707H508.256V439.199C508.256 439.902 508.391 440.406 508.66 440.711C508.93 441.016 509.445 441.168 510.207 441.168C510.77 441.168 511.268 441.127 511.701 441.045V444.895C510.705 445.199 509.68 445.352 508.625 445.352C505.062 445.352 503.246 443.553 503.176 439.955V429.707H500.398V425.98H503.176V421.305H508.256ZM519.295 428.055C520.643 426.438 522.336 425.629 524.375 425.629C528.5 425.629 530.592 428.025 530.65 432.818V445H525.57V432.959C525.57 431.869 525.336 431.066 524.867 430.551C524.398 430.023 523.619 429.76 522.529 429.76C521.041 429.76 519.963 430.334 519.295 431.482V445H514.215V418H519.295V428.055ZM539.844 445H534.746V425.98H539.844V445ZM534.447 421.059C534.447 420.297 534.699 419.67 535.203 419.178C535.719 418.686 536.416 418.439 537.295 418.439C538.162 418.439 538.854 418.686 539.369 419.178C539.885 419.67 540.143 420.297 540.143 421.059C540.143 421.832 539.879 422.465 539.352 422.957C538.836 423.449 538.15 423.695 537.295 423.695C536.439 423.695 535.748 423.449 535.221 422.957C534.705 422.465 534.447 421.832 534.447 421.059ZM554.732 430.744C554.041 430.65 553.432 430.604 552.904 430.604C550.982 430.604 549.723 431.254 549.125 432.555V445H544.045V425.98H548.844L548.984 428.248C550.004 426.502 551.416 425.629 553.221 425.629C553.783 425.629 554.311 425.705 554.803 425.857L554.732 430.744ZM556.051 435.35C556.051 432.385 556.713 430.023 558.037 428.266C559.373 426.508 561.195 425.629 563.504 425.629C565.355 425.629 566.885 426.32 568.092 427.703V418H573.189V445H568.602L568.355 442.979C567.09 444.561 565.461 445.352 563.469 445.352C561.23 445.352 559.432 444.473 558.072 442.715C556.725 440.945 556.051 438.49 556.051 435.35ZM561.131 435.719C561.131 437.5 561.441 438.865 562.062 439.814C562.684 440.764 563.586 441.238 564.77 441.238C566.34 441.238 567.447 440.576 568.092 439.252V431.746C567.459 430.422 566.363 429.76 564.805 429.76C562.355 429.76 561.131 431.746 561.131 435.719ZM591.014 421.375V425.98H594.564V428.494H591.014V440.289C591.014 441.051 591.172 441.625 591.488 442.012C591.805 442.387 592.344 442.574 593.105 442.574C593.48 442.574 593.996 442.504 594.652 442.363V445C593.797 445.234 592.965 445.352 592.156 445.352C590.703 445.352 589.607 444.912 588.869 444.033C588.131 443.154 587.762 441.906 587.762 440.289V428.494H584.299V425.98H587.762V421.375H591.014ZM606.271 445.352C603.693 445.352 601.596 444.508 599.979 442.82C598.361 441.121 597.553 438.854 597.553 436.018V435.42C597.553 433.533 597.91 431.852 598.625 430.375C599.352 428.887 600.359 427.727 601.648 426.895C602.949 426.051 604.355 425.629 605.867 425.629C608.34 425.629 610.262 426.443 611.633 428.072C613.004 429.701 613.689 432.033 613.689 435.068V436.422H600.805C600.852 438.297 601.396 439.814 602.439 440.975C603.494 442.123 604.83 442.697 606.447 442.697C607.596 442.697 608.568 442.463 609.365 441.994C610.162 441.525 610.859 440.904 611.457 440.131L613.443 441.678C611.85 444.127 609.459 445.352 606.271 445.352ZM605.867 428.301C604.555 428.301 603.453 428.781 602.562 429.742C601.672 430.691 601.121 432.027 600.91 433.75H610.438V433.504C610.344 431.852 609.898 430.574 609.102 429.672C608.305 428.758 607.227 428.301 605.867 428.301ZM623.85 432.924L628.068 425.98H631.865L625.643 435.385L632.059 445H628.297L623.902 437.881L619.508 445H615.729L622.145 435.385L615.922 425.98H619.684L623.85 432.924ZM639.74 421.375V425.98H643.291V428.494H639.74V440.289C639.74 441.051 639.898 441.625 640.215 442.012C640.531 442.387 641.07 442.574 641.832 442.574C642.207 442.574 642.723 442.504 643.379 442.363V445C642.523 445.234 641.691 445.352 640.883 445.352C639.43 445.352 638.334 444.912 637.596 444.033C636.857 443.154 636.488 441.906 636.488 440.289V428.494H633.025V425.98H636.488V421.375H639.74Z" fill="black"/>
<rect id="Rectangle 3[move]" x="115" y="88" width="171" height="126" fill="#C4C4C4"/>
</g>
</svg>
