<?xml version="1.0" encoding="UTF-8"?>
<svg width="1280px" height="720px" viewBox="0 0 1280 720" version="1.1" xmlns="http://www.w3.org/2000/svg" xmlns:xlink="http://www.w3.org/1999/xlink">
    <!-- Generator: Sketch 57.1 (83088) - https://sketch.com -->
    <title>101 Setup</title>
    <desc>Created with Sketch.</desc>
    <g id="101-Setup" stroke="none" stroke-width="1" fill="none" fill-rule="evenodd">
        <g id="basics" transform="translate(30.000000, 30.000000)" fill="#FF0000" fill-rule="nonzero">
            <polygon id="Path" points="0 10 5.06005222 10 5.06005222 4.53703704 17 4.53703704 17 0 0 0"></polygon>
            <polygon id="Path" points="0 24 17 24 17 19.462963 5.06005222 19.462963 5.06005222 14 0 14"></polygon>
            <rect id="Rectangle" x="5" y="10" width="11" height="4"></rect>
            <path d="M39.1452381,2.21886792 C38.4666667,1.53962264 37.6071429,1.04150943 36.5666667,0.633962264 C35.5261905,0.181132075 34.2142857,0 32.7214286,0 L22,0 L22,24 L27.1571429,24 L27.1571429,14.2188679 L32.6761905,14.2188679 C34.1690476,14.2188679 35.4357143,14.0377358 36.5214286,13.6301887 C37.5619048,13.2226415 38.4214286,12.6792453 39.1,12.045283 C39.7785714,11.3660377 40.2309524,10.6415094 40.547619,9.78113208 C40.8642857,8.92075472 41,8.06037736 41,7.15471698 C41,6.2490566 40.8642857,5.34339623 40.547619,4.52830189 C40.2761905,3.62264151 39.7785714,2.85283019 39.1452381,2.21886792 Z M35.5261905,8.46792453 C35.2547619,8.83018868 34.9380952,9.10188679 34.4857143,9.28301887 C34.0785714,9.46415094 33.5809524,9.6 32.9928571,9.69056604 C32.45,9.73584906 31.8619048,9.78113208 31.2285714,9.78113208 L27.1119048,9.78113208 L27.1119048,4.43773585 L31.2285714,4.43773585 C31.8166667,4.43773585 32.4047619,4.48301887 32.9928571,4.52830189 C33.5357143,4.57358491 34.0333333,4.70943396 34.4857143,4.93584906 C34.8928571,5.11698113 35.2547619,5.38867925 35.5261905,5.7509434 C35.797619,6.11320755 35.9333333,6.56603774 35.9333333,7.10943396 C35.9333333,7.65283019 35.797619,8.1509434 35.5261905,8.46792453 Z" id="Shape"></path>
            <polygon id="Path" points="71.0911458 19.5622642 71.0911458 0 66 0 66 24 83 24 83 19.5622642"></polygon>
            <polygon id="Path" points="44 10 49.0911458 10 49.0911458 4.53703704 61 4.53703704 61 0 44 0"></polygon>
            <rect id="Rectangle" x="44" y="14" width="5" height="10"></rect>
            <rect id="Rectangle" x="49" y="10" width="11" height="4"></rect>
        </g>
        <text id="title" font-family="HelveticaNeue-Medium, Helvetica Neue" font-size="36" font-weight="400" line-spacing="50">
            <tspan x="441" y="195" fill="#000000">Data-parallel Training</tspan>
            <tspan x="794.52" y="195" fill="#858585"> of Neural Networks</tspan>
        </text>
        <g id="worker1[move]" opacity="0.532900856" transform="translate(501.000000, 536.000000)" fill="#000000" fill-rule="nonzero">
            <g id="worker">
                <path d="M63.5056378,53 L50.9698636,53 L24.9633504,53 C23.8791008,53 23,54.0269933 23,55.2938939 L23,56.7056651 C23,57.9724555 23.8790065,59 24.9633504,59 L50.9700523,59 L63.5058265,59 L70,59 L70,53.0003308 L63.5056378,53 L63.5056378,53 Z" id="Path"></path>
                <circle id="Oval" cx="20" cy="11" r="11"></circle>
                <path d="M46.6458942,37.9023268 L21.6312263,37.8884521 L21.0389534,37.8865514 L21.0389534,34.9755217 L21.0183897,32.5388932 C21.0183897,26.7186393 16.3132794,22 10.5091949,22 C10.3125603,22 10.1172524,22.0066523 9.9231764,22.0172959 L9.90839327,22 C4.4361711,22 0,26.4488426 0,31.9366735 L0,60 L21.0389534,60 L21.0389534,48.0450303 L20.7606326,48.0230778 C20.740827,48.0212722 20.7358993,48.0232679 20.72358,48.0232679 C19.3001351,48.0232679 17.9359175,47.4222836 16.9745402,46.3698007 L8.43519745,37.0221375 C8.16294146,36.7242112 8.18312612,36.2615939 8.48030495,35.9887562 C8.77719949,35.7157283 9.2386985,35.7360653 9.51076497,36.0339916 L18.0500129,45.3815597 C18.7438724,46.141153 19.7224019,46.6056709 20.7527672,46.620686 C20.8212813,46.6216364 21.7566934,46.6351309 21.7566934,46.6351309 L46.6458942,46.6351309 C49.050522,46.6351309 51,44.6802213 51,42.2686814 C51,39.8571414 49.050522,37.9023268 46.6458942,37.9023268 Z" id="Path"></path>
                <path d="M72.6687857,22.1080518 C71.6408182,21.7513994 70.5218606,22.3065796 70.1693817,23.3476636 L61.8253738,48.0149107 L31.9678154,48.0149107 C30.8812927,48.0149107 30,48.9068809 30,50.0073585 C30,51.1078361 30.8812927,52 31.9678154,52 L63.2074467,52 C63.8766206,52 64.4673384,51.660594 64.8224005,51.1433947 C64.9451558,50.9792629 65.0453309,50.7939122 65.1150804,50.5883114 L73.8937548,24.6382395 C74.2448942,23.5977369 73.6973273,22.4645104 72.6687857,22.1080518 Z" id="Path"></path>
            </g>
        </g>
        <g id="worker2[move]" opacity="0.532900856" transform="translate(747.000000, 281.000000)" fill="#000000" fill-rule="nonzero">
            <g id="worker">
                <path d="M63.5056378,53 L50.9698636,53 L24.9633504,53 C23.8791008,53 23,54.0269933 23,55.2938939 L23,56.7056651 C23,57.9724555 23.8790065,59 24.9633504,59 L50.9700523,59 L63.5058265,59 L70,59 L70,53.0003308 L63.5056378,53 L63.5056378,53 Z" id="Path"></path>
                <circle id="Oval" cx="20" cy="11" r="11"></circle>
                <path d="M46.6458942,37.9023268 L21.6312263,37.8884521 L21.0389534,37.8865514 L21.0389534,34.9755217 L21.0183897,32.5388932 C21.0183897,26.7186393 16.3132794,22 10.5091949,22 C10.3125603,22 10.1172524,22.0066523 9.9231764,22.0172959 L9.90839327,22 C4.4361711,22 0,26.4488426 0,31.9366735 L0,60 L21.0389534,60 L21.0389534,48.0450303 L20.7606326,48.0230778 C20.740827,48.0212722 20.7358993,48.0232679 20.72358,48.0232679 C19.3001351,48.0232679 17.9359175,47.4222836 16.9745402,46.3698007 L8.43519745,37.0221375 C8.16294146,36.7242112 8.18312612,36.2615939 8.48030495,35.9887562 C8.77719949,35.7157283 9.2386985,35.7360653 9.51076497,36.0339916 L18.0500129,45.3815597 C18.7438724,46.141153 19.7224019,46.6056709 20.7527672,46.620686 C20.8212813,46.6216364 21.7566934,46.6351309 21.7566934,46.6351309 L46.6458942,46.6351309 C49.050522,46.6351309 51,44.6802213 51,42.2686814 C51,39.8571414 49.050522,37.9023268 46.6458942,37.9023268 Z" id="Path"></path>
                <path d="M72.6687857,22.1080518 C71.6408182,21.7513994 70.5218606,22.3065796 70.1693817,23.3476636 L61.8253738,48.0149107 L31.9678154,48.0149107 C30.8812927,48.0149107 30,48.9068809 30,50.0073585 C30,51.1078361 30.8812927,52 31.9678154,52 L63.2074467,52 C63.8766206,52 64.4673384,51.660594 64.8224005,51.1433947 C64.9451558,50.9792629 65.0453309,50.7939122 65.1150804,50.5883114 L73.8937548,24.6382395 C74.2448942,23.5977369 73.6973273,22.4645104 72.6687857,22.1080518 Z" id="Path"></path>
            </g>
        </g>
        <g id="worker3[move]" opacity="0.532900856" transform="translate(1014.000000, 536.000000)" fill="#000000" fill-rule="nonzero">
            <g id="worker">
                <path d="M63.5056378,53 L50.9698636,53 L24.9633504,53 C23.8791008,53 23,54.0269933 23,55.2938939 L23,56.7056651 C23,57.9724555 23.8790065,59 24.9633504,59 L50.9700523,59 L63.5058265,59 L70,59 L70,53.0003308 L63.5056378,53 L63.5056378,53 Z" id="Path"></path>
                <circle id="Oval" cx="20" cy="11" r="11"></circle>
                <path d="M46.6458942,37.9023268 L21.6312263,37.8884521 L21.0389534,37.8865514 L21.0389534,34.9755217 L21.0183897,32.5388932 C21.0183897,26.7186393 16.3132794,22 10.5091949,22 C10.3125603,22 10.1172524,22.0066523 9.9231764,22.0172959 L9.90839327,22 C4.4361711,22 0,26.4488426 0,31.9366735 L0,60 L21.0389534,60 L21.0389534,48.0450303 L20.7606326,48.0230778 C20.740827,48.0212722 20.7358993,48.0232679 20.72358,48.0232679 C19.3001351,48.0232679 17.9359175,47.4222836 16.9745402,46.3698007 L8.43519745,37.0221375 C8.16294146,36.7242112 8.18312612,36.2615939 8.48030495,35.9887562 C8.77719949,35.7157283 9.2386985,35.7360653 9.51076497,36.0339916 L18.0500129,45.3815597 C18.7438724,46.141153 19.7224019,46.6056709 20.7527672,46.620686 C20.8212813,46.6216364 21.7566934,46.6351309 21.7566934,46.6351309 L46.6458942,46.6351309 C49.050522,46.6351309 51,44.6802213 51,42.2686814 C51,39.8571414 49.050522,37.9023268 46.6458942,37.9023268 Z" id="Path"></path>
                <path d="M72.6687857,22.1080518 C71.6408182,21.7513994 70.5218606,22.3065796 70.1693817,23.3476636 L61.8253738,48.0149107 L31.9678154,48.0149107 C30.8812927,48.0149107 30,48.9068809 30,50.0073585 C30,51.1078361 30.8812927,52 31.9678154,52 L63.2074467,52 C63.8766206,52 64.4673384,51.660594 64.8224005,51.1433947 C64.9451558,50.9792629 65.0453309,50.7939122 65.1150804,50.5883114 L73.8937548,24.6382395 C74.2448942,23.5977369 73.6973273,22.4645104 72.6687857,22.1080518 Z" id="Path"></path>
            </g>
        </g>
        <g id="g1" transform="translate(556.000000, 505.000000)" stroke="#000000" stroke-linecap="round" stroke-linejoin="round" stroke-width="4">
            <path d="M0,37.426137 L56.1,0.718150469" id="grad1[move=2]"></path>
            <polyline id="grad1_head[move=2]" points="34.2018574 1.56933747 57.1417426 -1.0658141e-14 46.49161 20.4487816"></polyline>
        </g>
        <g id="g2" transform="translate(767.000000, 360.000000)" stroke="#000000" stroke-linecap="round" stroke-linejoin="round" stroke-width="4">
            <path d="M0,19.2555512 L32,0.547564697" id="grad2[move=2]"></path>
            <polyline id="grad2_head[move=2]" points="10.181694 0.26613609 33.0893775 1.24344979e-14 21.4901471 19.7524298"></polyline>
        </g>
        <g id="g3" transform="translate(944.000000, 527.000000)" stroke="#000000" stroke-linecap="round" stroke-linejoin="round" stroke-width="4">
            <path d="M0,0.707986495 L59,29" id="grad3[move=2]"></path>
            <polyline id="grad3_head[move=2]" points="47.0165871 10.7481061 60 29.4263596 37.1984308 31.0194113"></polyline>
        </g>
    </g>
</svg>