<svg width="1280" height="720" viewBox="0 0 1280 720" fill="none" xmlns="http://www.w3.org/2000/svg">
<g id="200 Line drawing">
<rect width="1280" height="720" fill="white"/>
<path id="Vector[move]" d="M275 465.5L391 284.5L595 227.5" stroke="black" stroke-width="3"/>
<path id="My line[move]" d="M473.33 347.406L481.697 368.289L490.064 347.406H494.441V373H491.066V363.033L491.383 352.275L482.98 373H480.396L472.012 352.328L472.346 363.033V373H468.971V347.406H473.33ZM506.113 368.236L510.543 353.98H514.023L506.377 375.936C505.193 379.1 503.312 380.682 500.734 380.682L500.119 380.629L498.906 380.4V377.764L499.785 377.834C500.887 377.834 501.742 377.611 502.352 377.166C502.973 376.721 503.482 375.906 503.881 374.723L504.602 372.789L497.816 353.98H501.367L506.113 368.236ZM529.404 373H526.152V346H529.404V373ZM538.158 373H534.906V353.98H538.158V373ZM534.643 348.936C534.643 348.408 534.801 347.963 535.117 347.6C535.445 347.236 535.926 347.055 536.559 347.055C537.191 347.055 537.672 347.236 538 347.6C538.328 347.963 538.492 348.408 538.492 348.936C538.492 349.463 538.328 349.902 538 350.254C537.672 350.605 537.191 350.781 536.559 350.781C535.926 350.781 535.445 350.605 535.117 350.254C534.801 349.902 534.643 349.463 534.643 348.936ZM546.455 353.98L546.561 356.371C548.014 354.543 549.912 353.629 552.256 353.629C556.275 353.629 558.303 355.896 558.338 360.432V373H555.086V360.414C555.074 359.043 554.758 358.029 554.137 357.373C553.527 356.717 552.572 356.389 551.271 356.389C550.217 356.389 549.291 356.67 548.494 357.232C547.697 357.795 547.076 358.533 546.631 359.447V373H543.379V353.98H546.455ZM571.135 373.352C568.557 373.352 566.459 372.508 564.842 370.82C563.225 369.121 562.416 366.854 562.416 364.018V363.42C562.416 361.533 562.773 359.852 563.488 358.375C564.215 356.887 565.223 355.727 566.512 354.895C567.812 354.051 569.219 353.629 570.73 353.629C573.203 353.629 575.125 354.443 576.496 356.072C577.867 357.701 578.553 360.033 578.553 363.068V364.422H565.668C565.715 366.297 566.26 367.814 567.303 368.975C568.357 370.123 569.693 370.697 571.311 370.697C572.459 370.697 573.432 370.463 574.229 369.994C575.025 369.525 575.723 368.904 576.32 368.131L578.307 369.678C576.713 372.127 574.322 373.352 571.135 373.352ZM570.73 356.301C569.418 356.301 568.316 356.781 567.426 357.742C566.535 358.691 565.984 360.027 565.773 361.75H575.301V361.504C575.207 359.852 574.762 358.574 573.965 357.672C573.168 356.758 572.09 356.301 570.73 356.301Z" fill="black"/>
<g id="Slide basis">
<path id="Here&#226;&#128;&#153;s a line" d="M43.1152 53H37.8418V42.0312H27.5586V53H22.2852V27.4062H27.5586V37.7773H37.8418V27.4062H43.1152V53ZM56.1582 53.3516C53.3691 53.3516 51.0957 52.4961 49.3379 50.7852C47.5918 49.0742 46.7188 46.7949 46.7188 43.9473V43.4551C46.7188 41.5449 47.0879 39.8398 47.8262 38.3398C48.5645 36.8281 49.6074 35.668 50.9551 34.8594C52.3145 34.0391 53.8613 33.6289 55.5957 33.6289C58.1973 33.6289 60.2422 34.4492 61.7305 36.0898C63.2305 37.7305 63.9805 40.0566 63.9805 43.0684V45.1426H51.8691C52.0332 46.3848 52.5254 47.3809 53.3457 48.1309C54.1777 48.8809 55.2266 49.2559 56.4922 49.2559C58.4492 49.2559 59.9785 48.5469 61.0801 47.1289L63.5762 49.9238C62.8145 51.002 61.7832 51.8457 60.4824 52.4551C59.1816 53.0527 57.7402 53.3516 56.1582 53.3516ZM55.5781 37.7422C54.5703 37.7422 53.75 38.082 53.1172 38.7617C52.4961 39.4414 52.0977 40.4141 51.9219 41.6797H58.9883V41.2754C58.9648 40.1504 58.6602 39.2832 58.0742 38.6738C57.4883 38.0527 56.6562 37.7422 55.5781 37.7422ZM77.5684 38.7441C76.877 38.6504 76.2676 38.6035 75.7402 38.6035C73.8184 38.6035 72.5586 39.2539 71.9609 40.5547V53H66.8809V33.9805H71.6797L71.8203 36.248C72.8398 34.502 74.252 33.6289 76.0566 33.6289C76.6191 33.6289 77.1465 33.7051 77.6387 33.8574L77.5684 38.7441ZM88.4316 53.3516C85.6426 53.3516 83.3691 52.4961 81.6113 50.7852C79.8652 49.0742 78.9922 46.7949 78.9922 43.9473V43.4551C78.9922 41.5449 79.3613 39.8398 80.0996 38.3398C80.8379 36.8281 81.8809 35.668 83.2285 34.8594C84.5879 34.0391 86.1348 33.6289 87.8691 33.6289C90.4707 33.6289 92.5156 34.4492 94.0039 36.0898C95.5039 37.7305 96.2539 40.0566 96.2539 43.0684V45.1426H84.1426C84.3066 46.3848 84.7988 47.3809 85.6191 48.1309C86.4512 48.8809 87.5 49.2559 88.7656 49.2559C90.7227 49.2559 92.252 48.5469 93.3535 47.1289L95.8496 49.9238C95.0879 51.002 94.0566 51.8457 92.7559 52.4551C91.4551 53.0527 90.0137 53.3516 88.4316 53.3516ZM87.8516 37.7422C86.8438 37.7422 86.0234 38.082 85.3906 38.7617C84.7695 39.4414 84.3711 40.4141 84.1953 41.6797H91.2617V41.2754C91.2383 40.1504 90.9336 39.2832 90.3477 38.6738C89.7617 38.0527 88.9297 37.7422 87.8516 37.7422ZM99.4883 35.2637L97.0977 33.875C98.1055 32.293 98.627 30.6582 98.6621 28.9707V26H102.705V28.7246C102.705 29.7793 102.412 30.9219 101.826 32.1523C101.24 33.3828 100.461 34.4199 99.4883 35.2637ZM112.514 47.7441C112.514 47.123 112.203 46.6367 111.582 46.2852C110.973 45.9219 109.988 45.5996 108.629 45.3184C104.105 44.3691 101.844 42.4473 101.844 39.5527C101.844 37.8652 102.541 36.459 103.936 35.334C105.342 34.1973 107.176 33.6289 109.438 33.6289C111.852 33.6289 113.779 34.1973 115.221 35.334C116.674 36.4707 117.4 37.9473 117.4 39.7637H112.32C112.32 39.0371 112.086 38.4395 111.617 37.9707C111.148 37.4902 110.416 37.25 109.42 37.25C108.564 37.25 107.902 37.4434 107.434 37.8301C106.965 38.2168 106.73 38.709 106.73 39.3066C106.73 39.8691 106.994 40.3262 107.521 40.6777C108.061 41.0176 108.963 41.3164 110.229 41.5742C111.494 41.8203 112.561 42.1016 113.428 42.418C116.111 43.4023 117.453 45.1074 117.453 47.5332C117.453 49.2676 116.709 50.6738 115.221 51.752C113.732 52.8184 111.811 53.3516 109.455 53.3516C107.861 53.3516 106.443 53.0703 105.201 52.5078C103.971 51.9336 103.004 51.1543 102.301 50.1699C101.598 49.1738 101.246 48.1016 101.246 46.9531H106.062C106.109 47.8555 106.443 48.5469 107.064 49.0273C107.686 49.5078 108.518 49.748 109.561 49.748C110.533 49.748 111.266 49.5664 111.758 49.2031C112.262 48.8281 112.514 48.3418 112.514 47.7441ZM140.727 53C140.492 52.543 140.322 51.9746 140.217 51.2949C138.986 52.666 137.387 53.3516 135.418 53.3516C133.555 53.3516 132.008 52.8125 130.777 51.7344C129.559 50.6562 128.949 49.2969 128.949 47.6562C128.949 45.6406 129.693 44.0938 131.182 43.0156C132.682 41.9375 134.844 41.3926 137.668 41.3809H140.006V40.291C140.006 39.4121 139.777 38.709 139.32 38.1816C138.875 37.6543 138.166 37.3906 137.193 37.3906C136.338 37.3906 135.664 37.5957 135.172 38.0059C134.691 38.416 134.451 38.9785 134.451 39.6934H129.371C129.371 38.5918 129.711 37.5723 130.391 36.6348C131.07 35.6973 132.031 34.9648 133.273 34.4375C134.516 33.8984 135.91 33.6289 137.457 33.6289C139.801 33.6289 141.658 34.2207 143.029 35.4043C144.412 36.5762 145.104 38.2285 145.104 40.3613V48.6055C145.115 50.4102 145.367 51.7754 145.859 52.7012V53H140.727ZM136.525 49.4668C137.275 49.4668 137.967 49.3027 138.6 48.9746C139.232 48.6348 139.701 48.1836 140.006 47.6211V44.3516H138.107C135.564 44.3516 134.211 45.2305 134.047 46.9883L134.029 47.2871C134.029 47.9199 134.252 48.4414 134.697 48.8516C135.143 49.2617 135.752 49.4668 136.525 49.4668ZM163.332 53H158.234V26H163.332V53ZM172.895 53H167.797V33.9805H172.895V53ZM167.498 29.0586C167.498 28.2969 167.75 27.6699 168.254 27.1777C168.77 26.6855 169.467 26.4395 170.346 26.4395C171.213 26.4395 171.904 26.6855 172.42 27.1777C172.936 27.6699 173.193 28.2969 173.193 29.0586C173.193 29.832 172.93 30.4648 172.402 30.957C171.887 31.4492 171.201 31.6953 170.346 31.6953C169.49 31.6953 168.799 31.4492 168.271 30.957C167.756 30.4648 167.498 29.832 167.498 29.0586ZM181.771 33.9805L181.93 36.1777C183.289 34.4785 185.111 33.6289 187.396 33.6289C189.412 33.6289 190.912 34.2207 191.896 35.4043C192.881 36.5879 193.385 38.3574 193.408 40.7129V53H188.328V40.8359C188.328 39.7578 188.094 38.9785 187.625 38.498C187.156 38.0059 186.377 37.7598 185.287 37.7598C183.857 37.7598 182.785 38.3691 182.07 39.5879V53H176.99V33.9805H181.771ZM206.029 53.3516C203.24 53.3516 200.967 52.4961 199.209 50.7852C197.463 49.0742 196.59 46.7949 196.59 43.9473V43.4551C196.59 41.5449 196.959 39.8398 197.697 38.3398C198.436 36.8281 199.479 35.668 200.826 34.8594C202.186 34.0391 203.732 33.6289 205.467 33.6289C208.068 33.6289 210.113 34.4492 211.602 36.0898C213.102 37.7305 213.852 40.0566 213.852 43.0684V45.1426H201.74C201.904 46.3848 202.396 47.3809 203.217 48.1309C204.049 48.8809 205.098 49.2559 206.363 49.2559C208.32 49.2559 209.85 48.5469 210.951 47.1289L213.447 49.9238C212.686 51.002 211.654 51.8457 210.354 52.4551C209.053 53.0527 207.611 53.3516 206.029 53.3516ZM205.449 37.7422C204.441 37.7422 203.621 38.082 202.988 38.7617C202.367 39.4414 201.969 40.4141 201.793 41.6797H208.859V41.2754C208.836 40.1504 208.531 39.2832 207.945 38.6738C207.359 38.0527 206.527 37.7422 205.449 37.7422Z" fill="#0085FF"/>
<path id="Shared copyright text" d="M1088.45 678.296C1087 677.88 1085.95 677.37 1085.29 676.767C1084.63 676.157 1084.3 675.407 1084.3 674.517C1084.3 673.509 1084.7 672.677 1085.51 672.021C1086.32 671.358 1087.36 671.027 1088.65 671.027C1089.53 671.027 1090.31 671.197 1091 671.537C1091.69 671.877 1092.22 672.346 1092.6 672.943C1092.98 673.541 1093.17 674.194 1093.17 674.903H1091.47C1091.47 674.13 1091.23 673.523 1090.74 673.084C1090.24 672.639 1089.55 672.416 1088.65 672.416C1087.82 672.416 1087.17 672.601 1086.7 672.97C1086.24 673.333 1086.01 673.84 1086.01 674.49C1086.01 675.012 1086.23 675.454 1086.67 675.817C1087.11 676.175 1087.87 676.503 1088.93 676.802C1089.99 677.101 1090.82 677.432 1091.42 677.795C1092.03 678.152 1092.47 678.571 1092.76 679.052C1093.05 679.532 1093.2 680.098 1093.2 680.748C1093.2 681.785 1092.79 682.617 1091.98 683.244C1091.18 683.865 1090.09 684.176 1088.74 684.176C1087.86 684.176 1087.04 684.009 1086.28 683.675C1085.52 683.335 1084.93 682.872 1084.51 682.286C1084.1 681.7 1083.9 681.035 1083.9 680.291H1085.59C1085.59 681.064 1085.88 681.677 1086.45 682.128C1087.02 682.573 1087.79 682.796 1088.74 682.796C1089.63 682.796 1090.31 682.614 1090.79 682.251C1091.26 681.888 1091.5 681.393 1091.5 680.766C1091.5 680.139 1091.28 679.655 1090.84 679.315C1090.4 678.97 1089.61 678.63 1088.45 678.296ZM1096.74 675.642C1097.46 674.757 1098.4 674.314 1099.55 674.314C1101.56 674.314 1102.58 675.448 1102.59 677.716V684H1100.97V677.707C1100.96 677.021 1100.8 676.515 1100.49 676.187C1100.19 675.858 1099.71 675.694 1099.06 675.694C1098.53 675.694 1098.07 675.835 1097.67 676.116C1097.27 676.397 1096.96 676.767 1096.74 677.224V684H1095.11V670.5H1096.74V675.642ZM1110.9 684C1110.8 683.812 1110.73 683.479 1110.67 682.998C1109.91 683.783 1109.01 684.176 1107.96 684.176C1107.03 684.176 1106.25 683.912 1105.65 683.385C1105.05 682.852 1104.75 682.178 1104.75 681.363C1104.75 680.373 1105.13 679.605 1105.88 679.061C1106.64 678.51 1107.7 678.234 1109.06 678.234H1110.64V677.487C1110.64 676.919 1110.47 676.468 1110.13 676.134C1109.79 675.794 1109.29 675.624 1108.63 675.624C1108.05 675.624 1107.56 675.771 1107.17 676.063C1106.78 676.356 1106.58 676.711 1106.58 677.127H1104.95C1104.95 676.652 1105.12 676.195 1105.45 675.756C1105.79 675.311 1106.25 674.959 1106.82 674.701C1107.4 674.443 1108.04 674.314 1108.73 674.314C1109.82 674.314 1110.68 674.59 1111.3 675.141C1111.92 675.686 1112.25 676.438 1112.27 677.399V681.776C1112.27 682.649 1112.38 683.344 1112.6 683.859V684H1110.9ZM1108.2 682.761C1108.71 682.761 1109.19 682.629 1109.65 682.365C1110.11 682.102 1110.44 681.759 1110.64 681.337V679.386H1109.37C1107.38 679.386 1106.38 679.969 1106.38 681.135C1106.38 681.645 1106.55 682.043 1106.89 682.33C1107.23 682.617 1107.67 682.761 1108.2 682.761ZM1119.42 675.949C1119.17 675.908 1118.9 675.888 1118.62 675.888C1117.55 675.888 1116.83 676.342 1116.44 677.25V684H1114.82V674.49H1116.4L1116.43 675.589C1116.96 674.739 1117.72 674.314 1118.69 674.314C1119.01 674.314 1119.25 674.355 1119.42 674.438V675.949ZM1124.69 684.176C1123.4 684.176 1122.35 683.754 1121.54 682.91C1120.73 682.061 1120.33 680.927 1120.33 679.509V679.21C1120.33 678.267 1120.51 677.426 1120.87 676.688C1121.23 675.943 1121.73 675.363 1122.38 674.947C1123.03 674.525 1123.73 674.314 1124.49 674.314C1125.72 674.314 1126.68 674.722 1127.37 675.536C1128.05 676.351 1128.4 677.517 1128.4 679.034V679.711H1121.96C1121.98 680.648 1122.25 681.407 1122.77 681.987C1123.3 682.562 1123.97 682.849 1124.78 682.849C1125.35 682.849 1125.84 682.731 1126.24 682.497C1126.63 682.263 1126.98 681.952 1127.28 681.565L1128.27 682.339C1127.48 683.563 1126.28 684.176 1124.69 684.176ZM1124.49 675.65C1123.83 675.65 1123.28 675.891 1122.83 676.371C1122.39 676.846 1122.11 677.514 1122.01 678.375H1126.77V678.252C1126.72 677.426 1126.5 676.787 1126.1 676.336C1125.71 675.879 1125.17 675.65 1124.49 675.65ZM1129.89 679.166C1129.89 677.707 1130.24 676.535 1130.93 675.65C1131.62 674.76 1132.53 674.314 1133.64 674.314C1134.76 674.314 1135.64 674.695 1136.29 675.457V670.5H1137.92V684H1136.42L1136.34 682.98C1135.69 683.777 1134.79 684.176 1133.63 684.176C1132.53 684.176 1131.63 683.725 1130.93 682.822C1130.24 681.92 1129.89 680.742 1129.89 679.289V679.166ZM1131.52 679.351C1131.52 680.429 1131.74 681.272 1132.19 681.882C1132.63 682.491 1133.25 682.796 1134.03 682.796C1135.06 682.796 1135.82 682.333 1136.29 681.407V677.039C1135.8 676.143 1135.06 675.694 1134.05 675.694C1133.25 675.694 1132.63 676.002 1132.19 676.617C1131.74 677.232 1131.52 678.144 1131.52 679.351ZM1148.73 682.849C1149.31 682.849 1149.81 682.673 1150.25 682.321C1150.68 681.97 1150.92 681.53 1150.97 681.003H1152.51C1152.48 681.548 1152.29 682.066 1151.94 682.559C1151.6 683.051 1151.13 683.443 1150.55 683.736C1149.98 684.029 1149.37 684.176 1148.73 684.176C1147.43 684.176 1146.4 683.745 1145.63 682.884C1144.87 682.017 1144.49 680.833 1144.49 679.333V679.061C1144.49 678.135 1144.66 677.312 1145 676.591C1145.34 675.87 1145.83 675.311 1146.46 674.912C1147.1 674.514 1147.85 674.314 1148.72 674.314C1149.78 674.314 1150.67 674.634 1151.37 675.272C1152.08 675.911 1152.46 676.74 1152.51 677.76H1150.97C1150.92 677.145 1150.69 676.641 1150.26 676.248C1149.85 675.85 1149.33 675.65 1148.72 675.65C1147.89 675.65 1147.25 675.949 1146.79 676.547C1146.34 677.139 1146.12 677.997 1146.12 679.122V679.43C1146.12 680.525 1146.34 681.369 1146.79 681.961C1147.24 682.553 1147.89 682.849 1148.73 682.849ZM1153.9 679.157C1153.9 678.226 1154.08 677.388 1154.45 676.644C1154.82 675.899 1155.33 675.325 1155.98 674.921C1156.63 674.517 1157.38 674.314 1158.22 674.314C1159.51 674.314 1160.56 674.763 1161.36 675.659C1162.16 676.556 1162.56 677.748 1162.56 679.236V679.351C1162.56 680.276 1162.38 681.108 1162.02 681.847C1161.67 682.579 1161.17 683.15 1160.5 683.561C1159.85 683.971 1159.09 684.176 1158.24 684.176C1156.95 684.176 1155.9 683.728 1155.1 682.831C1154.3 681.935 1153.9 680.748 1153.9 679.271V679.157ZM1155.54 679.351C1155.54 680.405 1155.78 681.252 1156.27 681.891C1156.76 682.529 1157.42 682.849 1158.24 682.849C1159.06 682.849 1159.72 682.526 1160.21 681.882C1160.69 681.231 1160.93 680.323 1160.93 679.157C1160.93 678.114 1160.69 677.271 1160.19 676.626C1159.7 675.976 1159.04 675.65 1158.22 675.65C1157.42 675.65 1156.77 675.97 1156.28 676.608C1155.78 677.247 1155.54 678.161 1155.54 679.351ZM1172.63 679.351C1172.63 680.798 1172.3 681.964 1171.64 682.849C1170.98 683.733 1170.08 684.176 1168.95 684.176C1167.8 684.176 1166.89 683.81 1166.23 683.077V687.656H1164.6V674.49H1166.08L1166.16 675.545C1166.83 674.725 1167.75 674.314 1168.92 674.314C1170.07 674.314 1170.97 674.745 1171.63 675.606C1172.3 676.468 1172.63 677.666 1172.63 679.201V679.351ZM1171.01 679.166C1171.01 678.094 1170.78 677.247 1170.32 676.626C1169.86 676.005 1169.24 675.694 1168.44 675.694C1167.46 675.694 1166.72 676.131 1166.23 677.004V681.548C1166.71 682.415 1167.46 682.849 1168.46 682.849C1169.24 682.849 1169.86 682.541 1170.31 681.926C1170.78 681.305 1171.01 680.385 1171.01 679.166ZM1177.71 681.618L1179.93 674.49H1181.67L1177.84 685.468C1177.25 687.05 1176.31 687.841 1175.02 687.841L1174.72 687.814L1174.11 687.7V686.382L1174.55 686.417C1175.1 686.417 1175.53 686.306 1175.83 686.083C1176.14 685.86 1176.4 685.453 1176.6 684.861L1176.96 683.895L1173.56 674.49H1175.34L1177.71 681.618ZM1187.72 675.949C1187.48 675.908 1187.21 675.888 1186.92 675.888C1185.86 675.888 1185.13 676.342 1184.75 677.25V684H1183.13V674.49H1184.71L1184.74 675.589C1185.27 674.739 1186.02 674.314 1187 674.314C1187.32 674.314 1187.56 674.355 1187.72 674.438V675.949ZM1190.99 684H1189.37V674.49H1190.99V684ZM1189.24 671.968C1189.24 671.704 1189.31 671.481 1189.47 671.3C1189.64 671.118 1189.88 671.027 1190.19 671.027C1190.51 671.027 1190.75 671.118 1190.91 671.3C1191.08 671.481 1191.16 671.704 1191.16 671.968C1191.16 672.231 1191.08 672.451 1190.91 672.627C1190.75 672.803 1190.51 672.891 1190.19 672.891C1189.88 672.891 1189.64 672.803 1189.47 672.627C1189.31 672.451 1189.24 672.231 1189.24 671.968ZM1193.22 679.166C1193.22 677.684 1193.56 676.506 1194.25 675.633C1194.93 674.754 1195.84 674.314 1196.97 674.314C1198.13 674.314 1199.04 674.725 1199.69 675.545L1199.76 674.49H1201.25V683.771C1201.25 685.002 1200.88 685.972 1200.15 686.681C1199.42 687.39 1198.45 687.744 1197.22 687.744C1196.53 687.744 1195.86 687.598 1195.2 687.305C1194.55 687.012 1194.05 686.61 1193.7 686.101L1194.54 685.125C1195.24 685.986 1196.09 686.417 1197.1 686.417C1197.89 686.417 1198.51 686.194 1198.95 685.749C1199.39 685.304 1199.62 684.677 1199.62 683.868V683.051C1198.96 683.801 1198.08 684.176 1196.95 684.176C1195.84 684.176 1194.94 683.728 1194.25 682.831C1193.56 681.935 1193.22 680.713 1193.22 679.166ZM1194.85 679.351C1194.85 680.423 1195.07 681.267 1195.51 681.882C1195.95 682.491 1196.57 682.796 1197.36 682.796C1198.38 682.796 1199.13 682.33 1199.62 681.398V677.057C1199.12 676.148 1198.37 675.694 1197.37 675.694C1196.58 675.694 1195.96 676.002 1195.52 676.617C1195.07 677.232 1194.85 678.144 1194.85 679.351ZM1205.34 675.642C1206.06 674.757 1207 674.314 1208.15 674.314C1210.16 674.314 1211.17 675.448 1211.19 677.716V684H1209.56V677.707C1209.56 677.021 1209.4 676.515 1209.09 676.187C1208.79 675.858 1208.31 675.694 1207.66 675.694C1207.13 675.694 1206.67 675.835 1206.27 676.116C1205.87 676.397 1205.56 676.767 1205.34 677.224V684H1203.71V670.5H1205.34V675.642ZM1215.83 672.188V674.49H1217.61V675.747H1215.83V681.645C1215.83 682.025 1215.91 682.312 1216.07 682.506C1216.23 682.693 1216.5 682.787 1216.88 682.787C1217.06 682.787 1217.32 682.752 1217.65 682.682V684C1217.22 684.117 1216.81 684.176 1216.4 684.176C1215.68 684.176 1215.13 683.956 1214.76 683.517C1214.39 683.077 1214.21 682.453 1214.21 681.645V675.747H1212.47V674.49H1214.21V672.188H1215.83ZM1226.18 672.188V674.49H1227.96V675.747H1226.18V681.645C1226.18 682.025 1226.26 682.312 1226.42 682.506C1226.58 682.693 1226.85 682.787 1227.23 682.787C1227.42 682.787 1227.68 682.752 1228 682.682V684C1227.58 684.117 1227.16 684.176 1226.76 684.176C1226.03 684.176 1225.48 683.956 1225.11 683.517C1224.74 683.077 1224.56 682.453 1224.56 681.645V675.747H1222.83V674.49H1224.56V672.188H1226.18ZM1233.81 684.176C1232.52 684.176 1231.48 683.754 1230.67 682.91C1229.86 682.061 1229.45 680.927 1229.45 679.509V679.21C1229.45 678.267 1229.63 677.426 1229.99 676.688C1230.35 675.943 1230.86 675.363 1231.5 674.947C1232.15 674.525 1232.86 674.314 1233.61 674.314C1234.85 674.314 1235.81 674.722 1236.49 675.536C1237.18 676.351 1237.52 677.517 1237.52 679.034V679.711H1231.08C1231.1 680.648 1231.38 681.407 1231.9 681.987C1232.42 682.562 1233.09 682.849 1233.9 682.849C1234.48 682.849 1234.96 682.731 1235.36 682.497C1235.76 682.263 1236.11 681.952 1236.41 681.565L1237.4 682.339C1236.6 683.563 1235.41 684.176 1233.81 684.176ZM1233.61 675.65C1232.96 675.65 1232.4 675.891 1231.96 676.371C1231.51 676.846 1231.24 677.514 1231.13 678.375H1235.9V678.252C1235.85 677.426 1235.63 676.787 1235.23 676.336C1234.83 675.879 1234.29 675.65 1233.61 675.65ZM1242.6 677.962L1244.71 674.49H1246.61L1243.5 679.192L1246.71 684H1244.83L1242.63 680.44L1240.43 684H1238.54L1241.75 679.192L1238.64 674.49H1240.52L1242.6 677.962ZM1250.55 672.188V674.49H1252.32V675.747H1250.55V681.645C1250.55 682.025 1250.63 682.312 1250.79 682.506C1250.94 682.693 1251.21 682.787 1251.59 682.787C1251.78 682.787 1252.04 682.752 1252.37 682.682V684C1251.94 684.117 1251.52 684.176 1251.12 684.176C1250.39 684.176 1249.84 683.956 1249.48 683.517C1249.11 683.077 1248.92 682.453 1248.92 681.645V675.747H1247.19V674.49H1248.92V672.188H1250.55Z" fill="#868686"/>
</g>
</g>
</svg>
