<svg width="1280" height="720" viewBox="0 0 1280 720" fill="none" xmlns="http://www.w3.org/2000/svg">
<g id="200 Line drawing">
<rect width="1280" height="720" fill="white"/>
<path id="Vector[move]" d="M275 465.5L391 284.5L595 227.5" stroke="black" stroke-width="3"/>
<path id="My line[move]" d="M473.33 347.406L481.697 368.289L490.064 347.406H494.441V373H491.066V363.033L491.383 352.275L482.98 373H480.396L472.012 352.328L472.346 363.033V373H468.971V347.406H473.33ZM506.113 368.236L510.543 353.98H514.023L506.377 375.936C505.193 379.1 503.312 380.682 500.734 380.682L500.119 380.629L498.906 380.4V377.764L499.785 377.834C500.887 377.834 501.742 377.611 502.352 377.166C502.973 376.721 503.482 375.906 503.881 374.723L504.602 372.789L497.816 353.98H501.367L506.113 368.236ZM529.404 373H526.152V346H529.404V373ZM538.158 373H534.906V353.98H538.158V373ZM534.643 348.936C534.643 348.408 534.801 347.963 535.117 347.6C535.445 347.236 535.926 347.055 536.559 347.055C537.191 347.055 537.672 347.236 538 347.6C538.328 347.963 538.492 348.408 538.492 348.936C538.492 349.463 538.328 349.902 538 350.254C537.672 350.605 537.191 350.781 536.559 350.781C535.926 350.781 535.445 350.605 535.117 350.254C534.801 349.902 534.643 349.463 534.643 348.936ZM546.455 353.98L546.561 356.371C548.014 354.543 549.912 353.629 552.256 353.629C556.275 353.629 558.303 355.896 558.338 360.432V373H555.086V360.414C555.074 359.043 554.758 358.029 554.137 357.373C553.527 356.717 552.572 356.389 551.271 356.389C550.217 356.389 549.291 356.67 548.494 357.232C547.697 357.795 547.076 358.533 546.631 359.447V373H543.379V353.98H546.455ZM571.135 373.352C568.557 373.352 566.459 372.508 564.842 370.82C563.225 369.121 562.416 366.854 562.416 364.018V363.42C562.416 361.533 562.773 359.852 563.488 358.375C564.215 356.887 565.223 355.727 566.512 354.895C567.812 354.051 569.219 353.629 570.73 353.629C573.203 353.629 575.125 354.443 576.496 356.072C577.867 357.701 578.553 360.033 578.553 363.068V364.422H565.668C565.715 366.297 566.26 367.814 567.303 368.975C568.357 370.123 569.693 370.697 571.311 370.697C572.459 370.697 573.432 370.463 574.229 369.994C575.025 369.525 575.723 368.904 576.32 368.131L578.307 369.678C576.713 372.127 574.322 373.352 571.135 373.352ZM570.73 356.301C569.418 356.301 568.316 356.781 567.426 357.742C566.535 358.691 565.984 360.027 565.773 361.75H575.301V361.504C575.207 359.852 574.762 358.574 573.965 357.672C573.168 356.758 572.09 356.301 570.73 356.301Z" fill="black"/>
</g>
</svg>
