<svg width="1280" height="720" viewBox="0 0 1280 720" fill="none" xmlns="http://www.w3.org/2000/svg">
<g id="201 Line drawing">
<rect width="1280" height="720" fill="white"/>
<path id="Vector[move]" d="M653 360L923.5 257.5L953 58.5" stroke="#FF0000" stroke-width="3"/>
<path id="My line[move]" d="M903.33 300.406L911.697 321.289L920.064 300.406H924.441V326H921.066V316.033L921.383 305.275L912.98 326H910.396L902.012 305.328L902.346 316.033V326H898.971V300.406H903.33ZM936.113 321.236L940.543 306.98H944.023L936.377 328.936C935.193 332.1 933.312 333.682 930.734 333.682L930.119 333.629L928.906 333.4V330.764L929.785 330.834C930.887 330.834 931.742 330.611 932.352 330.166C932.973 329.721 933.482 328.906 933.881 327.723L934.602 325.789L927.816 306.98H931.367L936.113 321.236ZM959.404 326H956.152V299H959.404V326ZM968.158 326H964.906V306.98H968.158V326ZM964.643 301.936C964.643 301.408 964.801 300.963 965.117 300.6C965.445 300.236 965.926 300.055 966.559 300.055C967.191 300.055 967.672 300.236 968 300.6C968.328 300.963 968.492 301.408 968.492 301.936C968.492 302.463 968.328 302.902 968 303.254C967.672 303.605 967.191 303.781 966.559 303.781C965.926 303.781 965.445 303.605 965.117 303.254C964.801 302.902 964.643 302.463 964.643 301.936ZM976.455 306.98L976.561 309.371C978.014 307.543 979.912 306.629 982.256 306.629C986.275 306.629 988.303 308.896 988.338 313.432V326H985.086V313.414C985.074 312.043 984.758 311.029 984.137 310.373C983.527 309.717 982.572 309.389 981.271 309.389C980.217 309.389 979.291 309.67 978.494 310.232C977.697 310.795 977.076 311.533 976.631 312.447V326H973.379V306.98H976.455ZM1001.13 326.352C998.557 326.352 996.459 325.508 994.842 323.82C993.225 322.121 992.416 319.854 992.416 317.018V316.42C992.416 314.533 992.773 312.852 993.488 311.375C994.215 309.887 995.223 308.727 996.512 307.895C997.812 307.051 999.219 306.629 1000.73 306.629C1003.2 306.629 1005.12 307.443 1006.5 309.072C1007.87 310.701 1008.55 313.033 1008.55 316.068V317.422H995.668C995.715 319.297 996.26 320.814 997.303 321.975C998.357 323.123 999.693 323.697 1001.31 323.697C1002.46 323.697 1003.43 323.463 1004.23 322.994C1005.03 322.525 1005.72 321.904 1006.32 321.131L1008.31 322.678C1006.71 325.127 1004.32 326.352 1001.13 326.352ZM1000.73 309.301C999.418 309.301 998.316 309.781 997.426 310.742C996.535 311.691 995.984 313.027 995.773 314.75H1005.3V314.504C1005.21 312.852 1004.76 311.574 1003.96 310.672C1003.17 309.758 1002.09 309.301 1000.73 309.301Z" fill="#FF0000" fill-opacity="0.01"/>
</g>
</svg>
