<svg width="1280" height="720" viewBox="0 0 1280 720" fill="none" xmlns="http://www.w3.org/2000/svg">
<g id="201 Line drawing">
<rect width="1280" height="720" fill="white"/>
<path id="Vector[move]" d="M653 360L923.5 257.5L953 58.5" stroke="#FF0000" stroke-width="3"/>
<path id="My line[move]" d="M903.33 300.406L911.697 321.289L920.064 300.406H924.441V326H921.066V316.033L921.383 305.275L912.98 326H910.396L902.012 305.328L902.346 316.033V326H898.971V300.406H903.33ZM936.113 321.236L940.543 306.98H944.023L936.377 328.936C935.193 332.1 933.312 333.682 930.734 333.682L930.119 333.629L928.906 333.4V330.764L929.785 330.834C930.887 330.834 931.742 330.611 932.352 330.166C932.973 329.721 933.482 328.906 933.881 327.723L934.602 325.789L927.816 306.98H931.367L936.113 321.236ZM959.404 326H956.152V299H959.404V326ZM968.158 326H964.906V306.98H968.158V326ZM964.643 301.936C964.643 301.408 964.801 300.963 965.117 300.6C965.445 300.236 965.926 300.055 966.559 300.055C967.191 300.055 967.672 300.236 968 300.6C968.328 300.963 968.492 301.408 968.492 301.936C968.492 302.463 968.328 302.902 968 303.254C967.672 303.605 967.191 303.781 966.559 303.781C965.926 303.781 965.445 303.605 965.117 303.254C964.801 302.902 964.643 302.463 964.643 301.936ZM976.455 306.98L976.561 309.371C978.014 307.543 979.912 306.629 982.256 306.629C986.275 306.629 988.303 308.896 988.338 313.432V326H985.086V313.414C985.074 312.043 984.758 311.029 984.137 310.373C983.527 309.717 982.572 309.389 981.271 309.389C980.217 309.389 979.291 309.67 978.494 310.232C977.697 310.795 977.076 311.533 976.631 312.447V326H973.379V306.98H976.455ZM1001.13 326.352C998.557 326.352 996.459 325.508 994.842 323.82C993.225 322.121 992.416 319.854 992.416 317.018V316.42C992.416 314.533 992.773 312.852 993.488 311.375C994.215 309.887 995.223 308.727 996.512 307.895C997.812 307.051 999.219 306.629 1000.73 306.629C1003.2 306.629 1005.12 307.443 1006.5 309.072C1007.87 310.701 1008.55 313.033 1008.55 316.068V317.422H995.668C995.715 319.297 996.26 320.814 997.303 321.975C998.357 323.123 999.693 323.697 1001.31 323.697C1002.46 323.697 1003.43 323.463 1004.23 322.994C1005.03 322.525 1005.72 321.904 1006.32 321.131L1008.31 322.678C1006.71 325.127 1004.32 326.352 1001.13 326.352ZM1000.73 309.301C999.418 309.301 998.316 309.781 997.426 310.742C996.535 311.691 995.984 313.027 995.773 314.75H1005.3V314.504C1005.21 312.852 1004.76 311.574 1003.96 310.672C1003.17 309.758 1002.09 309.301 1000.73 309.301Z" fill="#FF0000" fill-opacity="0.01"/>
<g id="Slide basis">
<path id="Which can move" d="M42.2188 45.6172L45.6641 27.4062H50.9199L45.2422 53H39.9336L35.7676 35.8789L31.6016 53H26.293L20.6152 27.4062H25.8711L29.334 45.582L33.5527 27.4062H38.0176L42.2188 45.6172ZM58.4082 36.0547C59.7559 34.4375 61.4492 33.6289 63.4883 33.6289C67.6133 33.6289 69.7051 36.0254 69.7637 40.8184V53H64.6836V40.959C64.6836 39.8691 64.4492 39.0664 63.9805 38.5508C63.5117 38.0234 62.7324 37.7598 61.6426 37.7598C60.1543 37.7598 59.0762 38.334 58.4082 39.4824V53H53.3281V26H58.4082V36.0547ZM78.957 53H73.8594V33.9805H78.957V53ZM73.5605 29.0586C73.5605 28.2969 73.8125 27.6699 74.3164 27.1777C74.832 26.6855 75.5293 26.4395 76.4082 26.4395C77.2754 26.4395 77.9668 26.6855 78.4824 27.1777C78.998 27.6699 79.2559 28.2969 79.2559 29.0586C79.2559 29.832 78.9922 30.4648 78.4648 30.957C77.9492 31.4492 77.2637 31.6953 76.4082 31.6953C75.5527 31.6953 74.8613 31.4492 74.334 30.957C73.8184 30.4648 73.5605 29.832 73.5605 29.0586ZM91.0684 49.2559C92.0059 49.2559 92.7676 48.998 93.3535 48.4824C93.9395 47.9668 94.2441 47.2812 94.2676 46.4258H99.0312C99.0195 47.7148 98.668 48.8984 97.9766 49.9766C97.2852 51.043 96.3359 51.875 95.1289 52.4727C93.9336 53.0586 92.6094 53.3516 91.1562 53.3516C88.4375 53.3516 86.293 52.4902 84.7227 50.7676C83.1523 49.0332 82.3672 46.6426 82.3672 43.5957V43.2617C82.3672 40.332 83.1465 37.9941 84.7051 36.248C86.2637 34.502 88.4023 33.6289 91.1211 33.6289C93.5 33.6289 95.4043 34.3086 96.834 35.668C98.2754 37.0156 99.0078 38.8145 99.0312 41.0645H94.2676C94.2441 40.0801 93.9395 39.2832 93.3535 38.6738C92.7676 38.0527 91.9941 37.7422 91.0332 37.7422C89.8496 37.7422 88.9531 38.1758 88.3438 39.043C87.7461 39.8984 87.4473 41.293 87.4473 43.2266V43.7539C87.4473 45.7109 87.7461 47.1172 88.3438 47.9727C88.9414 48.8281 89.8496 49.2559 91.0684 49.2559ZM106.889 36.0547C108.236 34.4375 109.93 33.6289 111.969 33.6289C116.094 33.6289 118.186 36.0254 118.244 40.8184V53H113.164V40.959C113.164 39.8691 112.93 39.0664 112.461 38.5508C111.992 38.0234 111.213 37.7598 110.123 37.7598C108.635 37.7598 107.557 38.334 106.889 39.4824V53H101.809V26H106.889V36.0547ZM138.951 49.2559C139.889 49.2559 140.65 48.998 141.236 48.4824C141.822 47.9668 142.127 47.2812 142.15 46.4258H146.914C146.902 47.7148 146.551 48.8984 145.859 49.9766C145.168 51.043 144.219 51.875 143.012 52.4727C141.816 53.0586 140.492 53.3516 139.039 53.3516C136.32 53.3516 134.176 52.4902 132.605 50.7676C131.035 49.0332 130.25 46.6426 130.25 43.5957V43.2617C130.25 40.332 131.029 37.9941 132.588 36.248C134.146 34.502 136.285 33.6289 139.004 33.6289C141.383 33.6289 143.287 34.3086 144.717 35.668C146.158 37.0156 146.891 38.8145 146.914 41.0645H142.15C142.127 40.0801 141.822 39.2832 141.236 38.6738C140.65 38.0527 139.877 37.7422 138.916 37.7422C137.732 37.7422 136.836 38.1758 136.227 39.043C135.629 39.8984 135.33 41.293 135.33 43.2266V43.7539C135.33 45.7109 135.629 47.1172 136.227 47.9727C136.824 48.8281 137.732 49.2559 138.951 49.2559ZM160.836 53C160.602 52.543 160.432 51.9746 160.326 51.2949C159.096 52.666 157.496 53.3516 155.527 53.3516C153.664 53.3516 152.117 52.8125 150.887 51.7344C149.668 50.6562 149.059 49.2969 149.059 47.6562C149.059 45.6406 149.803 44.0938 151.291 43.0156C152.791 41.9375 154.953 41.3926 157.777 41.3809H160.115V40.291C160.115 39.4121 159.887 38.709 159.43 38.1816C158.984 37.6543 158.275 37.3906 157.303 37.3906C156.447 37.3906 155.773 37.5957 155.281 38.0059C154.801 38.416 154.561 38.9785 154.561 39.6934H149.48C149.48 38.5918 149.82 37.5723 150.5 36.6348C151.18 35.6973 152.141 34.9648 153.383 34.4375C154.625 33.8984 156.02 33.6289 157.566 33.6289C159.91 33.6289 161.768 34.2207 163.139 35.4043C164.521 36.5762 165.213 38.2285 165.213 40.3613V48.6055C165.225 50.4102 165.477 51.7754 165.969 52.7012V53H160.836ZM156.635 49.4668C157.385 49.4668 158.076 49.3027 158.709 48.9746C159.342 48.6348 159.811 48.1836 160.115 47.6211V44.3516H158.217C155.674 44.3516 154.32 45.2305 154.156 46.9883L154.139 47.2871C154.139 47.9199 154.361 48.4414 154.807 48.8516C155.252 49.2617 155.861 49.4668 156.635 49.4668ZM173.791 33.9805L173.949 36.1777C175.309 34.4785 177.131 33.6289 179.416 33.6289C181.432 33.6289 182.932 34.2207 183.916 35.4043C184.9 36.5879 185.404 38.3574 185.428 40.7129V53H180.348V40.8359C180.348 39.7578 180.113 38.9785 179.645 38.498C179.176 38.0059 178.396 37.7598 177.307 37.7598C175.877 37.7598 174.805 38.3691 174.09 39.5879V53H169.01V33.9805H173.791ZM203.023 33.9805L203.182 36.1074C204.529 34.4551 206.352 33.6289 208.648 33.6289C211.098 33.6289 212.779 34.5957 213.693 36.5293C215.029 34.5957 216.934 33.6289 219.406 33.6289C221.469 33.6289 223.004 34.2324 224.012 35.4395C225.02 36.6348 225.523 38.4395 225.523 40.8535V53H220.426V40.8711C220.426 39.793 220.215 39.0078 219.793 38.5156C219.371 38.0117 218.627 37.7598 217.561 37.7598C216.037 37.7598 214.982 38.4863 214.396 39.9395L214.414 53H209.334V40.8887C209.334 39.7871 209.117 38.9902 208.684 38.498C208.25 38.0059 207.512 37.7598 206.469 37.7598C205.027 37.7598 203.984 38.3574 203.34 39.5527V53H198.26V33.9805H203.023ZM228.652 43.3145C228.652 41.4277 229.016 39.7461 229.742 38.2695C230.469 36.793 231.512 35.6504 232.871 34.8418C234.242 34.0332 235.83 33.6289 237.635 33.6289C240.201 33.6289 242.293 34.4141 243.91 35.9844C245.539 37.5547 246.447 39.6875 246.635 42.3828L246.67 43.6836C246.67 46.6016 245.855 48.9453 244.227 50.7148C242.598 52.4727 240.412 53.3516 237.67 53.3516C234.928 53.3516 232.736 52.4727 231.096 50.7148C229.467 48.957 228.652 46.5664 228.652 43.543V43.3145ZM233.732 43.6836C233.732 45.4883 234.072 46.8711 234.752 47.832C235.432 48.7812 236.404 49.2559 237.67 49.2559C238.9 49.2559 239.861 48.7871 240.553 47.8496C241.244 46.9004 241.59 45.3887 241.59 43.3145C241.59 41.5449 241.244 40.1738 240.553 39.2012C239.861 38.2285 238.889 37.7422 237.635 37.7422C236.393 37.7422 235.432 38.2285 234.752 39.2012C234.072 40.1621 233.732 41.6562 233.732 43.6836ZM256.637 46.7949L260.17 33.9805H265.479L259.062 53H254.211L247.795 33.9805H253.104L256.637 46.7949ZM276.236 53.3516C273.447 53.3516 271.174 52.4961 269.416 50.7852C267.67 49.0742 266.797 46.7949 266.797 43.9473V43.4551C266.797 41.5449 267.166 39.8398 267.904 38.3398C268.643 36.8281 269.686 35.668 271.033 34.8594C272.393 34.0391 273.939 33.6289 275.674 33.6289C278.275 33.6289 280.32 34.4492 281.809 36.0898C283.309 37.7305 284.059 40.0566 284.059 43.0684V45.1426H271.947C272.111 46.3848 272.604 47.3809 273.424 48.1309C274.256 48.8809 275.305 49.2559 276.57 49.2559C278.527 49.2559 280.057 48.5469 281.158 47.1289L283.654 49.9238C282.893 51.002 281.861 51.8457 280.561 52.4551C279.26 53.0527 277.818 53.3516 276.236 53.3516ZM275.656 37.7422C274.648 37.7422 273.828 38.082 273.195 38.7617C272.574 39.4414 272.176 40.4141 272 41.6797H279.066V41.2754C279.043 40.1504 278.738 39.2832 278.152 38.6738C277.566 38.0527 276.734 37.7422 275.656 37.7422Z" fill="#0085FF"/>
<path id="Shared copyright text" d="M1088.45 678.296C1087 677.88 1085.95 677.37 1085.29 676.767C1084.63 676.157 1084.3 675.407 1084.3 674.517C1084.3 673.509 1084.7 672.677 1085.51 672.021C1086.32 671.358 1087.36 671.027 1088.65 671.027C1089.53 671.027 1090.31 671.197 1091 671.537C1091.69 671.877 1092.22 672.346 1092.6 672.943C1092.98 673.541 1093.17 674.194 1093.17 674.903H1091.47C1091.47 674.13 1091.23 673.523 1090.74 673.084C1090.24 672.639 1089.55 672.416 1088.65 672.416C1087.82 672.416 1087.17 672.601 1086.7 672.97C1086.24 673.333 1086.01 673.84 1086.01 674.49C1086.01 675.012 1086.23 675.454 1086.67 675.817C1087.11 676.175 1087.87 676.503 1088.93 676.802C1089.99 677.101 1090.82 677.432 1091.42 677.795C1092.03 678.152 1092.47 678.571 1092.76 679.052C1093.05 679.532 1093.2 680.098 1093.2 680.748C1093.2 681.785 1092.79 682.617 1091.98 683.244C1091.18 683.865 1090.09 684.176 1088.74 684.176C1087.86 684.176 1087.04 684.009 1086.28 683.675C1085.52 683.335 1084.93 682.872 1084.51 682.286C1084.1 681.7 1083.9 681.035 1083.9 680.291H1085.59C1085.59 681.064 1085.88 681.677 1086.45 682.128C1087.02 682.573 1087.79 682.796 1088.74 682.796C1089.63 682.796 1090.31 682.614 1090.79 682.251C1091.26 681.888 1091.5 681.393 1091.5 680.766C1091.5 680.139 1091.28 679.655 1090.84 679.315C1090.4 678.97 1089.61 678.63 1088.45 678.296ZM1096.74 675.642C1097.46 674.757 1098.4 674.314 1099.55 674.314C1101.56 674.314 1102.58 675.448 1102.59 677.716V684H1100.97V677.707C1100.96 677.021 1100.8 676.515 1100.49 676.187C1100.19 675.858 1099.71 675.694 1099.06 675.694C1098.53 675.694 1098.07 675.835 1097.67 676.116C1097.27 676.397 1096.96 676.767 1096.74 677.224V684H1095.11V670.5H1096.74V675.642ZM1110.9 684C1110.8 683.812 1110.73 683.479 1110.67 682.998C1109.91 683.783 1109.01 684.176 1107.96 684.176C1107.03 684.176 1106.25 683.912 1105.65 683.385C1105.05 682.852 1104.75 682.178 1104.75 681.363C1104.75 680.373 1105.13 679.605 1105.88 679.061C1106.64 678.51 1107.7 678.234 1109.06 678.234H1110.64V677.487C1110.64 676.919 1110.47 676.468 1110.13 676.134C1109.79 675.794 1109.29 675.624 1108.63 675.624C1108.05 675.624 1107.56 675.771 1107.17 676.063C1106.78 676.356 1106.58 676.711 1106.58 677.127H1104.95C1104.95 676.652 1105.12 676.195 1105.45 675.756C1105.79 675.311 1106.25 674.959 1106.82 674.701C1107.4 674.443 1108.04 674.314 1108.73 674.314C1109.82 674.314 1110.68 674.59 1111.3 675.141C1111.92 675.686 1112.25 676.438 1112.27 677.399V681.776C1112.27 682.649 1112.38 683.344 1112.6 683.859V684H1110.9ZM1108.2 682.761C1108.71 682.761 1109.19 682.629 1109.65 682.365C1110.11 682.102 1110.44 681.759 1110.64 681.337V679.386H1109.37C1107.38 679.386 1106.38 679.969 1106.38 681.135C1106.38 681.645 1106.55 682.043 1106.89 682.33C1107.23 682.617 1107.67 682.761 1108.2 682.761ZM1119.42 675.949C1119.17 675.908 1118.9 675.888 1118.62 675.888C1117.55 675.888 1116.83 676.342 1116.44 677.25V684H1114.82V674.49H1116.4L1116.43 675.589C1116.96 674.739 1117.72 674.314 1118.69 674.314C1119.01 674.314 1119.25 674.355 1119.42 674.438V675.949ZM1124.69 684.176C1123.4 684.176 1122.35 683.754 1121.54 682.91C1120.73 682.061 1120.33 680.927 1120.33 679.509V679.21C1120.33 678.267 1120.51 677.426 1120.87 676.688C1121.23 675.943 1121.73 675.363 1122.38 674.947C1123.03 674.525 1123.73 674.314 1124.49 674.314C1125.72 674.314 1126.68 674.722 1127.37 675.536C1128.05 676.351 1128.4 677.517 1128.4 679.034V679.711H1121.96C1121.98 680.648 1122.25 681.407 1122.77 681.987C1123.3 682.562 1123.97 682.849 1124.78 682.849C1125.35 682.849 1125.84 682.731 1126.24 682.497C1126.63 682.263 1126.98 681.952 1127.28 681.565L1128.27 682.339C1127.48 683.563 1126.28 684.176 1124.69 684.176ZM1124.49 675.65C1123.83 675.65 1123.28 675.891 1122.83 676.371C1122.39 676.846 1122.11 677.514 1122.01 678.375H1126.77V678.252C1126.72 677.426 1126.5 676.787 1126.1 676.336C1125.71 675.879 1125.17 675.65 1124.49 675.65ZM1129.89 679.166C1129.89 677.707 1130.24 676.535 1130.93 675.65C1131.62 674.76 1132.53 674.314 1133.64 674.314C1134.76 674.314 1135.64 674.695 1136.29 675.457V670.5H1137.92V684H1136.42L1136.34 682.98C1135.69 683.777 1134.79 684.176 1133.63 684.176C1132.53 684.176 1131.63 683.725 1130.93 682.822C1130.24 681.92 1129.89 680.742 1129.89 679.289V679.166ZM1131.52 679.351C1131.52 680.429 1131.74 681.272 1132.19 681.882C1132.63 682.491 1133.25 682.796 1134.03 682.796C1135.06 682.796 1135.82 682.333 1136.29 681.407V677.039C1135.8 676.143 1135.06 675.694 1134.05 675.694C1133.25 675.694 1132.63 676.002 1132.19 676.617C1131.74 677.232 1131.52 678.144 1131.52 679.351ZM1148.73 682.849C1149.31 682.849 1149.81 682.673 1150.25 682.321C1150.68 681.97 1150.92 681.53 1150.97 681.003H1152.51C1152.48 681.548 1152.29 682.066 1151.94 682.559C1151.6 683.051 1151.13 683.443 1150.55 683.736C1149.98 684.029 1149.37 684.176 1148.73 684.176C1147.43 684.176 1146.4 683.745 1145.63 682.884C1144.87 682.017 1144.49 680.833 1144.49 679.333V679.061C1144.49 678.135 1144.66 677.312 1145 676.591C1145.34 675.87 1145.83 675.311 1146.46 674.912C1147.1 674.514 1147.85 674.314 1148.72 674.314C1149.78 674.314 1150.67 674.634 1151.37 675.272C1152.08 675.911 1152.46 676.74 1152.51 677.76H1150.97C1150.92 677.145 1150.69 676.641 1150.26 676.248C1149.85 675.85 1149.33 675.65 1148.72 675.65C1147.89 675.65 1147.25 675.949 1146.79 676.547C1146.34 677.139 1146.12 677.997 1146.12 679.122V679.43C1146.12 680.525 1146.34 681.369 1146.79 681.961C1147.24 682.553 1147.89 682.849 1148.73 682.849ZM1153.9 679.157C1153.9 678.226 1154.08 677.388 1154.45 676.644C1154.82 675.899 1155.33 675.325 1155.98 674.921C1156.63 674.517 1157.38 674.314 1158.22 674.314C1159.51 674.314 1160.56 674.763 1161.36 675.659C1162.16 676.556 1162.56 677.748 1162.56 679.236V679.351C1162.56 680.276 1162.38 681.108 1162.02 681.847C1161.67 682.579 1161.17 683.15 1160.5 683.561C1159.85 683.971 1159.09 684.176 1158.24 684.176C1156.95 684.176 1155.9 683.728 1155.1 682.831C1154.3 681.935 1153.9 680.748 1153.9 679.271V679.157ZM1155.54 679.351C1155.54 680.405 1155.78 681.252 1156.27 681.891C1156.76 682.529 1157.42 682.849 1158.24 682.849C1159.06 682.849 1159.72 682.526 1160.21 681.882C1160.69 681.231 1160.93 680.323 1160.93 679.157C1160.93 678.114 1160.69 677.271 1160.19 676.626C1159.7 675.976 1159.04 675.65 1158.22 675.65C1157.42 675.65 1156.77 675.97 1156.28 676.608C1155.78 677.247 1155.54 678.161 1155.54 679.351ZM1172.63 679.351C1172.63 680.798 1172.3 681.964 1171.64 682.849C1170.98 683.733 1170.08 684.176 1168.95 684.176C1167.8 684.176 1166.89 683.81 1166.23 683.077V687.656H1164.6V674.49H1166.08L1166.16 675.545C1166.83 674.725 1167.75 674.314 1168.92 674.314C1170.07 674.314 1170.97 674.745 1171.63 675.606C1172.3 676.468 1172.63 677.666 1172.63 679.201V679.351ZM1171.01 679.166C1171.01 678.094 1170.78 677.247 1170.32 676.626C1169.86 676.005 1169.24 675.694 1168.44 675.694C1167.46 675.694 1166.72 676.131 1166.23 677.004V681.548C1166.71 682.415 1167.46 682.849 1168.46 682.849C1169.24 682.849 1169.86 682.541 1170.31 681.926C1170.78 681.305 1171.01 680.385 1171.01 679.166ZM1177.71 681.618L1179.93 674.49H1181.67L1177.84 685.468C1177.25 687.05 1176.31 687.841 1175.02 687.841L1174.72 687.814L1174.11 687.7V686.382L1174.55 686.417C1175.1 686.417 1175.53 686.306 1175.83 686.083C1176.14 685.86 1176.4 685.453 1176.6 684.861L1176.96 683.895L1173.56 674.49H1175.34L1177.71 681.618ZM1187.72 675.949C1187.48 675.908 1187.21 675.888 1186.92 675.888C1185.86 675.888 1185.13 676.342 1184.75 677.25V684H1183.13V674.49H1184.71L1184.74 675.589C1185.27 674.739 1186.02 674.314 1187 674.314C1187.32 674.314 1187.56 674.355 1187.72 674.438V675.949ZM1190.99 684H1189.37V674.49H1190.99V684ZM1189.24 671.968C1189.24 671.704 1189.31 671.481 1189.47 671.3C1189.64 671.118 1189.88 671.027 1190.19 671.027C1190.51 671.027 1190.75 671.118 1190.91 671.3C1191.08 671.481 1191.16 671.704 1191.16 671.968C1191.16 672.231 1191.08 672.451 1190.91 672.627C1190.75 672.803 1190.51 672.891 1190.19 672.891C1189.88 672.891 1189.64 672.803 1189.47 672.627C1189.31 672.451 1189.24 672.231 1189.24 671.968ZM1193.22 679.166C1193.22 677.684 1193.56 676.506 1194.25 675.633C1194.93 674.754 1195.84 674.314 1196.97 674.314C1198.13 674.314 1199.04 674.725 1199.69 675.545L1199.76 674.49H1201.25V683.771C1201.25 685.002 1200.88 685.972 1200.15 686.681C1199.42 687.39 1198.45 687.744 1197.22 687.744C1196.53 687.744 1195.86 687.598 1195.2 687.305C1194.55 687.012 1194.05 686.61 1193.7 686.101L1194.54 685.125C1195.24 685.986 1196.09 686.417 1197.1 686.417C1197.89 686.417 1198.51 686.194 1198.95 685.749C1199.39 685.304 1199.62 684.677 1199.62 683.868V683.051C1198.96 683.801 1198.08 684.176 1196.95 684.176C1195.84 684.176 1194.94 683.728 1194.25 682.831C1193.56 681.935 1193.22 680.713 1193.22 679.166ZM1194.85 679.351C1194.85 680.423 1195.07 681.267 1195.51 681.882C1195.95 682.491 1196.57 682.796 1197.36 682.796C1198.38 682.796 1199.13 682.33 1199.62 681.398V677.057C1199.12 676.148 1198.37 675.694 1197.37 675.694C1196.58 675.694 1195.96 676.002 1195.52 676.617C1195.07 677.232 1194.85 678.144 1194.85 679.351ZM1205.34 675.642C1206.06 674.757 1207 674.314 1208.15 674.314C1210.16 674.314 1211.17 675.448 1211.19 677.716V684H1209.56V677.707C1209.56 677.021 1209.4 676.515 1209.09 676.187C1208.79 675.858 1208.31 675.694 1207.66 675.694C1207.13 675.694 1206.67 675.835 1206.27 676.116C1205.87 676.397 1205.56 676.767 1205.34 677.224V684H1203.71V670.5H1205.34V675.642ZM1215.83 672.188V674.49H1217.61V675.747H1215.83V681.645C1215.83 682.025 1215.91 682.312 1216.07 682.506C1216.23 682.693 1216.5 682.787 1216.88 682.787C1217.06 682.787 1217.32 682.752 1217.65 682.682V684C1217.22 684.117 1216.81 684.176 1216.4 684.176C1215.68 684.176 1215.13 683.956 1214.76 683.517C1214.39 683.077 1214.21 682.453 1214.21 681.645V675.747H1212.47V674.49H1214.21V672.188H1215.83ZM1226.18 672.188V674.49H1227.96V675.747H1226.18V681.645C1226.18 682.025 1226.26 682.312 1226.42 682.506C1226.58 682.693 1226.85 682.787 1227.23 682.787C1227.42 682.787 1227.68 682.752 1228 682.682V684C1227.58 684.117 1227.16 684.176 1226.76 684.176C1226.03 684.176 1225.48 683.956 1225.11 683.517C1224.74 683.077 1224.56 682.453 1224.56 681.645V675.747H1222.83V674.49H1224.56V672.188H1226.18ZM1233.81 684.176C1232.52 684.176 1231.48 683.754 1230.67 682.91C1229.86 682.061 1229.45 680.927 1229.45 679.509V679.21C1229.45 678.267 1229.63 677.426 1229.99 676.688C1230.35 675.943 1230.86 675.363 1231.5 674.947C1232.15 674.525 1232.86 674.314 1233.61 674.314C1234.85 674.314 1235.81 674.722 1236.49 675.536C1237.18 676.351 1237.52 677.517 1237.52 679.034V679.711H1231.08C1231.1 680.648 1231.38 681.407 1231.9 681.987C1232.42 682.562 1233.09 682.849 1233.9 682.849C1234.48 682.849 1234.96 682.731 1235.36 682.497C1235.76 682.263 1236.11 681.952 1236.41 681.565L1237.4 682.339C1236.6 683.563 1235.41 684.176 1233.81 684.176ZM1233.61 675.65C1232.96 675.65 1232.4 675.891 1231.96 676.371C1231.51 676.846 1231.24 677.514 1231.13 678.375H1235.9V678.252C1235.85 677.426 1235.63 676.787 1235.23 676.336C1234.83 675.879 1234.29 675.65 1233.61 675.65ZM1242.6 677.962L1244.71 674.49H1246.61L1243.5 679.192L1246.71 684H1244.83L1242.63 680.44L1240.43 684H1238.54L1241.75 679.192L1238.64 674.49H1240.52L1242.6 677.962ZM1250.55 672.188V674.49H1252.32V675.747H1250.55V681.645C1250.55 682.025 1250.63 682.312 1250.79 682.506C1250.94 682.693 1251.21 682.787 1251.59 682.787C1251.78 682.787 1252.04 682.752 1252.37 682.682V684C1251.94 684.117 1251.52 684.176 1251.12 684.176C1250.39 684.176 1249.84 683.956 1249.48 683.517C1249.11 683.077 1248.92 682.453 1248.92 681.645V675.747H1247.19V674.49H1248.92V672.188H1250.55Z" fill="#868686"/>
</g>
</g>
</svg>
