<?xml version="1.0" encoding="UTF-8"?>
<svg width="1280px" height="720px" viewBox="0 0 1280 720" version="1.1" xmlns="http://www.w3.org/2000/svg" xmlns:xlink="http://www.w3.org/1999/xlink">
    <title>000 Artboard</title>
    <defs>
        <linearGradient x1="50%" y1="0%" x2="50%" y2="100%" id="linearGradient-1">
            <stop stop-color="#FFA663" offset="0%"></stop>
            <stop stop-color="#FF8A32" offset="100%"></stop>
        </linearGradient>
        <linearGradient x1="50%" y1="0%" x2="50%" y2="100%" id="linearGradient-2">
            <stop stop-color="#FFA663" offset="0%"></stop>
            <stop stop-color="#FF8A32" offset="100%"></stop>
        </linearGradient>
        <linearGradient x1="50%" y1="0%" x2="50%" y2="100%" id="linearGradient-3">
            <stop stop-color="#FFA663" offset="0%"></stop>
            <stop stop-color="#FF8A32" offset="100%"></stop>
        </linearGradient>
        <linearGradient x1="50%" y1="0%" x2="50%" y2="100%" id="linearGradient-4">
            <stop stop-color="#FFA663" offset="0%"></stop>
            <stop stop-color="#FF8A32" offset="100%"></stop>
        </linearGradient>
    </defs>
    <g id="000-Artboard" stroke="none" stroke-width="1" fill="none" fill-rule="evenodd">
        <rect id="background" fill="#EAEAEA" x="422" y="0" width="858" height="720"></rect>
        <rect id="BouncyRect[canvas][script=bouncy]" fill="#EAEAEA" x="422" y="0" width="858" height="720"></rect>
        <g id="Group-2" transform="translate(41.000000, 46.000000)" fill="#333333">
            <g id="Group-4" transform="translate(0.000000, 1.500000)" fill-rule="nonzero">
                <path d="M8.90759754,25 C10.3367556,25 11.6180698,24.7965976 12.75154,24.3897929 C13.8850103,23.9829882 14.8398357,23.4405819 15.6160164,22.762574 C16.3921971,22.0845661 16.9835729,21.2956114 17.3901437,20.3957101 C17.7967146,19.4958087 18,18.5404339 18,17.5295858 C18,15.8284024 17.5749487,14.4600592 16.724846,13.4245562 C15.8747433,12.3890533 14.7104723,11.5754438 13.2320329,10.9837278 L13.2320329,10.9837278 L10.1273101,9.72633136 C9.60985626,9.50443787 9.12936345,9.3010355 8.68583162,9.11612426 C8.24229979,8.93121302 7.85420945,8.73397436 7.52156057,8.52440828 C7.1889117,8.31484221 6.9301848,8.0806213 6.74537988,7.82174556 C6.56057495,7.56286982 6.46817248,7.24852071 6.46817248,6.87869822 C6.46817248,6.18836292 6.74537988,5.65212032 7.29979466,5.26997041 C7.85420945,4.88782051 8.59958932,4.69674556 9.53593429,4.69674556 C10.4969199,4.69674556 11.3716632,4.86316568 12.1601643,5.19600592 C12.9486653,5.52884615 13.7371663,6.00345168 14.5256674,6.61982249 L14.5256674,6.61982249 L17.2977413,3.18047337 C16.2628337,2.14497041 15.0616016,1.35601578 13.6940452,0.813609467 C12.3264887,0.271203156 10.9404517,0 9.53593429,0 C8.27926078,0 7.12731006,0.184911243 6.08008214,0.554733728 C5.03285421,0.924556213 4.12731006,1.43614398 3.36344969,2.08949704 C2.59958932,2.7428501 2.00821355,3.5071499 1.58932238,4.38239645 C1.17043121,5.257643 0.960985626,6.18836292 0.960985626,7.17455621 C0.960985626,8.06213018 1.09650924,8.85724852 1.36755647,9.55991124 C1.6386037,10.262574 2.00205339,10.8789448 2.45790554,11.4090237 C2.9137577,11.9391026 3.4312115,12.4013807 4.01026694,12.795858 C4.58932238,13.1903353 5.18685832,13.5108481 5.80287474,13.7573964 L5.80287474,13.7573964 L8.94455852,15.0887574 C9.46201232,15.3106509 9.93634497,15.5140533 10.3675565,15.6989645 C10.798768,15.8838757 11.1683778,16.0811144 11.476386,16.2906805 C11.7843943,16.5002465 12.0184805,16.7406312 12.1786448,17.0118343 C12.338809,17.2830375 12.4188912,17.6035503 12.4188912,17.9733728 C12.4188912,18.6883629 12.1416838,19.2554241 11.587269,19.6745562 C11.0328542,20.0936884 10.1889117,20.3032544 9.05544148,20.3032544 C8.04517454,20.3032544 7.0164271,20.0690335 5.96919918,19.6005917 C4.92197125,19.1321499 3.96714579,18.5281065 3.10472279,17.7884615 L3.10472279,17.7884615 L0,21.5236686 C1.23203285,22.6824458 2.63039014,23.5515286 4.19507187,24.1309172 C5.75975359,24.7103057 7.33059548,25 8.90759754,25 Z" id="Path"></path>
                <polygon id="Path" points="37 24.5 37 19.9355828 27.4444444 19.9355828 27.4444444 0.5 22 0.5 22 24.5"></polygon>
                <polygon id="Path" points="47 24.5 47 0.5 41.5 0.5 41.5 24.5"></polygon>
                <path d="M59.3414873,0.5 L59.8439052,0.505780054 C61.503267,0.544313745 63.0089842,0.775515895 64.3610568,1.1993865 C65.8483366,1.66564417 67.1249185,2.38343558 68.1908023,3.35276074 C69.2566862,4.32208589 70.0746902,5.55521472 70.6448141,7.05214724 C71.214938,8.54907975 71.5,10.3282209 71.5,12.3895706 C71.5,14.4509202 71.214938,16.2423313 70.6448141,17.7638037 C70.0746902,19.2852761 69.2690802,20.5429448 68.2279843,21.5368098 C67.1868885,22.5306748 65.9412916,23.2730061 64.4911937,23.7638037 C63.0410959,24.2546012 61.4236791,24.5 59.6389432,24.5 L59.6389432,24.5 L52.5,24.5 L52.5,0.5 L59.3414873,0.5 Z M59.0068493,4.8803681 L57.9657534,4.8803681 L57.9657534,20.1196319 L59.0068493,20.1196319 C60.0479452,20.1196319 60.9898891,19.9846626 61.832681,19.7147239 C62.6754729,19.4447853 63.3943249,19.0092025 63.9892368,18.4079755 C64.5841487,17.8067485 65.0489237,17.0153374 65.3835616,16.0337423 C65.7181996,15.0521472 65.8855186,13.8374233 65.8855186,12.3895706 C65.8855186,10.9662577 65.7181996,9.76993865 65.3835616,8.8006135 C65.0489237,7.83128834 64.5841487,7.05828221 63.9892368,6.48159509 C63.3943249,5.90490798 62.6754729,5.49386503 61.832681,5.24846626 C60.9898891,5.00306748 60.0479452,4.8803681 59.0068493,4.8803681 L59.0068493,4.8803681 Z" id="Combined-Shape"></path>
                <polygon id="Path" points="91.5 24.5 91.5 19.9355828 81.4509569 19.9355828 81.4509569 14.4141104 89.6830144 14.4141104 89.6830144 9.88650307 81.4509569 9.88650307 81.4509569 5.06441718 91.1291866 5.06441718 91.1291866 0.5 76 0.5 76 24.5"></polygon>
            </g>
            <g id="Group-3" transform="translate(142.500000, 2.000000)" fill-rule="nonzero">
                <polygon id="Path" points="5.41436464 24 5.41436464 17.5582822 8.21362799 13.8773006 14.0699816 24 20 24 11.4180479 9.57055215 18.6740331 0 12.7071823 0 5.56169429 9.82822086 5.41436464 9.82822086 5.41436464 0 0 0 0 24"></polygon>
                <polygon id="Path" points="28 24 28 0 22.5 0 22.5 24"></polygon>
                <polygon id="Path" points="43.4555336 24 43.4555336 4.56441718 50 4.56441718 50 0 31.5 0 31.5 4.56441718 38.0444664 4.56441718 38.0444664 24"></polygon>
            </g>
            <path d="M99,0 L136,0 L136,28.5 L99,28.5 L99,0 Z M122.5,3.5 L124.071429,3.5 L125.801048,6.90149333 L124.605,8.6207619 L124.605,14.3952381 L126.166667,14.3952381 C126.600605,14.3952381 126.952381,14.7610854 126.952381,15.212381 L126.952381,18.1190476 L119.619048,18.1190476 L119.619048,15.212381 C119.619048,14.7610854 119.970824,14.3952381 120.404762,14.3952381 L121.965,14.3952381 L121.965,8.6207619 L120.770381,6.90149333 L122.5,3.5 Z M126.952381,19.2142857 L126.952381,21.8333333 C126.952381,23.8583774 125.310758,25.5 123.285714,25.5 C121.26067,25.5 119.619048,23.8583774 119.619048,21.8333333 L119.619048,21.8333333 L119.619048,19.2142857 L126.952381,19.2142857 Z M114.29542,3.46374839 C116.029113,4.27994875 117.229273,6.04254472 117.229262,8.08571797 C117.229274,10.1288912 116.029127,11.8914754 114.295423,12.7076857 L114.295423,12.7076857 L114.295438,24.959318 L109.951064,24.9593165 L109.951038,12.7077174 C108.217356,11.891506 107.017197,10.12891 107.017197,8.08574784 C107.017196,6.04256354 108.217354,4.27999043 109.951057,3.46378014 L109.951057,3.46378014 L109.951048,7.86004922 L112.123235,8.81919572 L114.295422,7.86005061 Z" id="Oval-2"></path>
        </g>
        <g id="Group" transform="translate(473.000000, 620.000000)">
            <rect id="Rectangle" fill="url(#linearGradient-1)" x="0" y="0" width="150" height="100"></rect>
            <rect id="Rectangle" fill="#FF8A32" x="0" y="0" width="150" height="10"></rect>
        </g>
        <g id="Group-2[stage=1][fade-in]" transform="translate(675.000000, 520.000000)">
            <rect id="Rectangle" fill="url(#linearGradient-2)" x="0" y="0" width="150" height="200"></rect>
            <rect id="Rectangle" fill="#FF8A32" x="0" y="0" width="150" height="10"></rect>
        </g>
        <g id="Group-3[stage=2][fade-in]" transform="translate(877.666667, 420.000000)">
            <rect id="Rectangle" fill="url(#linearGradient-3)" x="0.333333333" y="0" width="150" height="300"></rect>
            <rect id="Rectangle" fill="#FF8A32" x="0.333333333" y="0" width="150" height="10"></rect>
        </g>
        <g id="Group-4[stage=3][fade-in]" transform="translate(1080.000000, 320.000000)">
            <rect id="Rectangle" fill="url(#linearGradient-4)" x="0" y="0" width="150" height="400"></rect>
            <rect id="Rectangle" fill="#FF8A32" x="0" y="0" width="150" height="10"></rect>
        </g>
        <text id="Bouncy-Slide" font-family="HelveticaNeue-Bold, Helvetica Neue" font-size="48" font-weight="bold" fill="#FF8A32">
            <tspan x="41" y="133">Bouncy Slide</tspan>
        </text>
        <text id="We-start-at-level-1" font-family="HelveticaNeue-Bold, Helvetica Neue" font-size="30" font-weight="bold" fill="#444444">
            <tspan x="41" y="259">We start at level 1</tspan>
        </text>
        <text id="Then-we-move-on[stage=1][fade-in]" font-family="HelveticaNeue-Bold, Helvetica Neue" font-size="30" font-weight="bold" fill="#444444">
            <tspan x="41" y="316">Then we move on</tspan>
        </text>
        <text id="To-a-step-higher[stage=2][fade-in]" font-family="HelveticaNeue-Bold, Helvetica Neue" font-size="30" font-weight="bold" fill="#444444">
            <tspan x="41" y="373">To a step higher</tspan>
        </text>
        <text id="And-finish-at-the-to[stage=3][fade-in]" font-family="HelveticaNeue-Bold, Helvetica Neue" font-size="30" font-weight="bold" fill="#444444">
            <tspan x="41" y="430">And finish at the top</tspan>
        </text>
    </g>
</svg>
